<?xml version="1.0" encoding="UTF-8" standalone="no"?>
<!-- Generator: Adobe Illustrator 14.0.0, SVG Export Plug-In . SVG Version: 6.00 Build 43363)  -->

<svg
   xmlns:dc="http://purl.org/dc/elements/1.1/"
   xmlns:cc="http://creativecommons.org/ns#"
   xmlns:rdf="http://www.w3.org/1999/02/22-rdf-syntax-ns#"
   xmlns:svg="http://www.w3.org/2000/svg"
   xmlns="http://www.w3.org/2000/svg"
   xmlns:sodipodi="http://sodipodi.sourceforge.net/DTD/sodipodi-0.dtd"
   xmlns:inkscape="http://www.inkscape.org/namespaces/inkscape"
   enable-background="new 0 0 500 500"
   xml:space="preserve"
   version="1.1"
   y="0px"
   x="0px"
   viewBox="0 0 500 500"
   id="svg2"
   inkscape:version="0.48.4 r9939"
   width="100%"
   height="100%"
   sodipodi:docname="Chick-Spring-2010.svg"><defs
     id="defs69" /><sodipodi:namedview
     pagecolor="#ffffff"
     bordercolor="#666666"
     borderopacity="1"
     objecttolerance="10"
     gridtolerance="10"
     guidetolerance="10"
     inkscape:pageopacity="0"
     inkscape:pageshadow="2"
     inkscape:window-width="1855"
     inkscape:window-height="1056"
     id="namedview67"
     showgrid="false"
     inkscape:zoom="1.888"
     inkscape:cx="551.37712"
     inkscape:cy="250"
     inkscape:window-x="65"
     inkscape:window-y="24"
     inkscape:window-maximized="1"
     inkscape:current-layer="svg2" /><g
     id="Outline"><g
       id="Background"><path
         d="m114 172.34s18.965 31.896 30.172 37.931c-10.345 15.517-25 53.448-25.862 71.551 2.586 14.655 26.724 66.38 35.345 76.725s16.379 9.483 18.965 8.621c6.896 3.448 35.345 11.206 35.345 11.206s6.896 33.621-1.724 44.828c-10.345 6.034-45.689 7.759-54.31 11.207s-9.483 11.207-6.035 14.655 29.311 5.172 29.311 5.172-6.897 7.76-4.311 12.932 6.035 8.619 11.207 7.758 15.517-9.483 24.138-14.655 24.139-12.069 37.069-10.345 30.172 1.725 30.172-9.482c-3.448-9.482-24.138-9.483-34.482-12.069-6.035-2.586-9.483-7.758-9.483-7.758s0.862-28.448 3.448-33.621c12.931 2.586 57.758 4.312 65.517 1.725 8.621 9.482 19.828 30.172 19.828 30.172s-4.311 11.206-7.759 12.931c-6.896 0.862-48.276 6.897-43.966 24.139 7.759 8.62 13.793 6.033 18.966 4.31s24.138-8.62 31.896-5.172c4.311 7.759 3.447 13.793 6.034 17.241s6.896 7.758 13.793 6.034c6.035-6.896 6.897-18.103 9.483-22.413 7.759-5.173 10.344-6.896 15.517-6.896s18.966 5.172 26.725 2.586 12.932-12.069 0.862-15.518-32.758-6.034-49.138-20.689c-8.621-16.379-12.069-18.104-18.966-38.793 9.482-7.759 38.794-16.379 86.207-117.24-4.311-11.207-5.173-16.379-5.173-16.379s-18.103-12.931-23.275-51.724c-10.345-9.483-26.725-21.552-26.725-21.552s0.862-11.208 7.759-20.69c-9.482-10.345-36.207-25.861-36.207-86.207-16.379-10.345-49.138-29.311-67.241-36.207-10.345 2.586-27.587 7.759-49.138 7.759s-34.482 13.793-34.482 13.793-29.34 106.03-59.51 124.13z"
         id="path6" /></g></g><g
     id="Art"><path
       d="m 263.14,39.586 c 0,0 35.345,11.207 53.448,30.172 3.448,17.241 6.896,62.932 31.896,82.759 -6.034,24.138 -13.793,43.965 -31.034,60.345 12.931,-4.311 20.69,-12.931 32.759,-34.483 12.068,7.759 20.689,14.655 20.689,14.655 0,0 12.068,31.897 28.448,66.379 -8.62,25.862 -42.241,89.655 -81.896,111.21 -1.724,-9.483 -2.585,-13.793 -1.724,-18.104 -8.621,-6.896 -25,-0.862 -30.173,10.345 3.448,6.896 10.345,15.518 10.345,15.518 0,0 -31.896,11.206 -65.517,0.861 -33.621,-10.345 -66.4,-25.88 -73.3,-32.78 -6.9,-6.9 -25,-50.861 -27.586,-62.068 -2.586,-11.207 9.483,-60.345 19.828,-69.828 10.345,7.758 19.828,14.655 27.586,14.655 -12.069,-10.345 -38.793,-31.035 -49.138,-55.173 6.896,-12.931 38.793,-73.276 49.138,-112.07 4.31,-7.758 5.172,-16.379 25.862,-18.104 20.69,-1.725 60.35,-4.31 60.35,-4.31 z"
       id="path15"
       inkscape:connector-curvature="0"
       style="fill:#ffffff" /><g
       id="Feet"><path
         d="m 308.83,355.97 c 0,0 -5.172,-6.897 -18.965,7.758 6.034,7.759 34.482,54.311 34.482,54.311 0,0 -0.862,11.207 -4.311,14.655 -10.345,3.448 -14.655,6.034 -20.689,6.034 -6.034,0 -25.001,6.034 -25.862,11.207 -0.861,5.173 0,7.759 6.896,5.173 6.896,-2.586 26.724,-9.482 31.896,-9.482 5.172,0 12.932,3.448 12.932,3.448 l -2.586,-7.759 0.861,-5.173 c 0,0 8.621,12.932 5.173,26.725 -2.586,7.759 1.724,11.207 1.724,11.207 0,0 5.172,2.586 11.207,-19.828 6.896,-9.482 11.208,-12.069 19.828,-10.345 8.62,1.724 18.965,2.586 23.275,2.586 4.31,0 10.344,-4.31 -7.759,-9.482 -18.103,-5.172 -32.758,-8.621 -37.931,-15.518 -5.173,-6.897 -28.44,-41.41 -30.16,-65.54 z"
         id="path23"
         inkscape:connector-curvature="0"
         style="fill:#ffffff" /><path
         d="m 214,381.83 13.79,5.17 c 0,0 -3.448,28.447 -2.586,34.482 0.862,6.035 4.311,11.208 18.104,12.932 13.793,1.724 22.414,4.309 22.414,7.758 0,3.449 -7.759,8.622 -22.414,2.587 -12.931,0 -27.587,1.724 -35.345,8.62 -7.758,6.896 -27.586,18.967 -31.034,16.38 -3.448,-2.587 0,-13.794 8.621,-19.828 -11.207,-0.861 -29.311,-3.448 -29.311,-3.448 0,0 -14.655,-2.586 6.896,-9.482 22.414,-0.862 38.793,-3.447 43.966,-6.034 5.173,-2.587 12.06,-7.76 6.89,-49.14 z"
         id="path30"
         inkscape:connector-curvature="0"
         style="fill:#ffffff" /></g></g><g
     id="Wing"><path
       d="m314 258.55l6.034 18.104s39.656 23.276 59.483 18.966c6.896-3.448 17.242-26.725 4.311-50s-11.208-26.724-12.932-31.896c-4.311 0.862-9.482 0-9.482 0s5.172 3.448 12.068 19.828 8.621 41.38 8.621 46.552-0.862 9.483-11.207 8.621-16.37 0.87-56.89-30.17z"
       id="path44" /></g><g
     id="Eyes"><ellipse
       cy="106.4"
       cx="247.62"
       rx="6.897"
       ry="12.5"
       id="ellipse47" /><ellipse
       cy="106.4"
       cx="192.02"
       rx="6.466"
       ry="12.5"
       id="ellipse49" /></g><g
     id="Beak"><path
       d="m175.21 144.76s46.551-17.242 80.172-6.035c-11.207 17.241-52.586 55.172-52.586 55.172s-20.69-30.17-27.58-49.13z"
       id="path52" /><g
       id="Art_1_"><path
         d="m 178.79,148.21 c 0,0 13.655,-7.758 60.207,-1.724 -5.172,7.758 -27.586,34.482 -36.207,37.931 -7.75,-6.9 -17.96,-22.42 -24,-36.21 z"
         id="path60"
         inkscape:connector-curvature="0"
         style="fill:#ffffff" /></g></g><metadata
     id="metadata65"><rdf:RDF><cc:Work><dc:format>image/svg+xml</dc:format><dc:type
           rdf:resource="http://purl.org/dc/dcmitype/StillImage" /><cc:license
           rdf:resource="http://creativecommons.org/licenses/publicdomain/" /><dc:publisher><cc:Agent
             rdf:about="http://openclipart.org/"><dc:title>Openclipart</dc:title></cc:Agent></dc:publisher><dc:title></dc:title><dc:date>2010-05-27T02:50:16</dc:date><dc:description>A chick, completed for the Spring 2010 Clip Art Package Release</dc:description><dc:source>https://openclipart.org/detail/63145/chick-by-pianobrad</dc:source><dc:creator><cc:Agent><dc:title>pianoBrad</dc:title></cc:Agent></dc:creator><dc:subject><rdf:Bag><rdf:li>animal</rdf:li><rdf:li>baby</rdf:li><rdf:li>bird</rdf:li><rdf:li>chick</rdf:li><rdf:li>chicken</rdf:li><rdf:li>season</rdf:li><rdf:li>spring2010</rdf:li></rdf:Bag></dc:subject></cc:Work><cc:License
         rdf:about="http://creativecommons.org/licenses/publicdomain/"><cc:permits
           rdf:resource="http://creativecommons.org/ns#Reproduction" /><cc:permits
           rdf:resource="http://creativecommons.org/ns#Distribution" /><cc:permits
           rdf:resource="http://creativecommons.org/ns#DerivativeWorks" /></cc:License></rdf:RDF></metadata></svg>