G04 EasyPC Gerber Version 21.0.3 Build 4286 *
G04 #@! TF.Part,Single*
G04 #@! TF.FileFunction,Legend,Bot *
G04 #@! TF.FilePolarity,Positive *
%FSLAX35Y35*%
%MOIN*%
%ADD13C,0.00001*%
%ADD10C,0.00500*%
X0Y0D02*
D02*
D10*
X22787Y290073D02*
X23100Y290385D01*
X23413Y291011*
Y291948*
X23100Y292573*
X22787Y292885*
X22163Y293198*
X20913*
X20287Y292885*
X19975Y292573*
X19663Y291948*
Y291011*
X19975Y290385*
X20287Y290073*
X23413Y287573D02*
Y286323D01*
Y286948D02*
X19663D01*
X20287Y287573*
X23413Y282573D02*
Y281323D01*
Y281948D02*
X19663D01*
X20287Y282573*
X23413Y277573D02*
Y276323D01*
Y276948D02*
X19663D01*
X20287Y277573*
X28100Y145385D02*
X28413Y145698D01*
X29037Y146011*
X29663Y145698*
X29975Y145385*
Y142261*
X30600*
X29975D02*
X28725D01*
X33100Y146011D02*
Y142261D01*
X34663Y144135*
X36225Y142261*
Y146011*
X38100D02*
Y142261D01*
X40287*
X40913Y142573*
X41225Y143198*
X40913Y143823*
X40287Y144135*
X38100*
X43725Y146011D02*
X44975D01*
X44350D02*
Y142261D01*
X43725Y142885*
X48413Y145698D02*
X49037Y146011D01*
X49663*
X50287Y145698*
X50600Y145073*
Y143198*
X50287Y142573*
X49663Y142261*
X49037*
X48413Y142573*
X48100Y143198*
Y145073*
X48413Y145698*
X50287Y142573*
X54037Y146011D02*
X54663Y145698D01*
X55287Y145073*
X55600Y144135*
Y143198*
X55287Y142573*
X54663Y142261*
X54037*
X53413Y142573*
X53100Y143198*
X53413Y143823*
X54037Y144135*
X54663*
X55287Y143823*
X55600Y143198*
X30600Y286398D02*
Y284998D01*
X25600*
Y286398*
X30600*
X39037Y108823D02*
X39350Y109135D01*
X39663Y109761*
Y110698*
X39350Y111323*
X39037Y111635*
X38413Y111948*
X37163*
X36537Y111635*
X36225Y111323*
X35913Y110698*
Y109761*
X36225Y109135*
X36537Y108823*
X39663Y106323D02*
Y105073D01*
Y105698D02*
X35913D01*
X36537Y106323*
X39350Y101635D02*
X39663Y101011D01*
Y100385*
X39350Y99761*
X38725Y99448*
X36850*
X36225Y99761*
X35913Y100385*
Y101011*
X36225Y101635*
X36850Y101948*
X38725*
X39350Y101635*
X36225Y99761*
X39663Y94448D02*
Y96948D01*
X37475Y94761*
X36850Y94448*
X36225Y94761*
X35913Y95385*
Y96323*
X36225Y96948*
X40600Y184761D02*
Y181011D01*
X42787*
X43413Y181323*
X43725Y181948*
X43413Y182573*
X42787Y182885*
X40600*
X42787D02*
X43725Y184761D01*
X46225D02*
X47475D01*
X46850D02*
Y181011D01*
X46225Y181635*
X51225Y184761D02*
X52475D01*
X51850D02*
Y181011D01*
X51225Y181635*
X55913Y184448D02*
X56537Y184761D01*
X57163*
X57787Y184448*
X58100Y183823*
Y181948*
X57787Y181323*
X57163Y181011*
X56537*
X55913Y181323*
X55600Y181948*
Y183823*
X55913Y184448*
X57787Y181323*
X40600Y191011D02*
Y187261D01*
X42787*
X43413Y187573*
X43725Y188198*
X43413Y188823*
X42787Y189135*
X40600*
X42787D02*
X43725Y191011D01*
X46225D02*
X47475D01*
X46850D02*
Y187261D01*
X46225Y187885*
X51225Y191011D02*
X52475D01*
X51850D02*
Y187261D01*
X51225Y187885*
X56225Y191011D02*
X57475D01*
X56850D02*
Y187261D01*
X56225Y187885*
X41850Y104448D02*
X50600D01*
X43413Y131948D02*
X39663D01*
Y129761*
X39975Y129135*
X40600Y128823*
X41225Y129135*
X41537Y129761*
Y131948*
Y129761D02*
X43413Y128823D01*
Y126323D02*
Y125073D01*
Y125698D02*
X39663D01*
X40287Y126323*
X43100Y121635D02*
X43413Y121011D01*
Y120385*
X43100Y119761*
X42475Y119448*
X40600*
X39975Y119761*
X39663Y120385*
Y121011*
X39975Y121635*
X40600Y121948*
X42475*
X43100Y121635*
X39975Y119761*
X43413Y115385D02*
X39663D01*
X42163Y116948*
Y114448*
X45600Y118198D02*
X49350D01*
X45287Y71323D02*
X45600Y71635D01*
X45913Y72261*
Y73198*
X45600Y73823*
X45287Y74135*
X44663Y74448*
X43413*
X42787Y74135*
X42475Y73823*
X42163Y73198*
Y72261*
X42475Y71635*
X42787Y71323*
X45913Y68823D02*
Y67573D01*
Y68198D02*
X42163D01*
X42787Y68823*
X45600Y64135D02*
X45913Y63511D01*
Y62885*
X45600Y62261*
X44975Y61948*
X43100*
X42475Y62261*
X42163Y62885*
Y63511*
X42475Y64135*
X43100Y64448*
X44975*
X45600Y64135*
X42475Y62261*
X45913Y58823D02*
Y57573D01*
Y58198D02*
X42163D01*
X42787Y58823*
X45913Y99448D02*
X42163D01*
Y96323*
X44037Y96948D02*
Y99448D01*
Y92261D02*
X44350Y91635D01*
X44975Y91323*
X45600Y91635*
X45913Y92261*
Y94448*
X42163*
Y92261*
X42475Y91635*
X43100Y91323*
X43725Y91635*
X44037Y92261*
Y94448*
X45913Y88823D02*
Y87573D01*
Y88198D02*
X42163D01*
X42787Y88823*
X45600Y84135D02*
X45913Y83511D01*
Y82885*
X45600Y82261*
X44975Y81948*
X43100*
X42475Y82261*
X42163Y82885*
Y83511*
X42475Y84135*
X43100Y84448*
X44975*
X45600Y84135*
X42475Y82261*
X45913Y78823D02*
Y77573D01*
Y78198D02*
X42163D01*
X42787Y78823*
X49350Y131011D02*
Y127261D01*
X51537*
X52163Y127573*
X52475Y128198*
X52163Y128823*
X51537Y129135*
X49350*
X51537D02*
X52475Y131011D01*
X54975D02*
X56225D01*
X55600D02*
Y127261D01*
X54975Y127885*
X59663Y130698D02*
X60287Y131011D01*
X60913*
X61537Y130698*
X61850Y130073*
Y128198*
X61537Y127573*
X60913Y127261*
X60287*
X59663Y127573*
X59350Y128198*
Y130073*
X59663Y130698*
X61537Y127573*
X66850Y131011D02*
X64350D01*
X66537Y128823*
X66850Y128198*
X66537Y127573*
X65913Y127261*
X64975*
X64350Y127573*
X50600Y64998D02*
Y66398D01*
X55600*
Y64998*
X50600*
Y87498D02*
Y88898D01*
X55600*
Y87498*
X50600*
X54037Y176948D02*
X54350Y176635D01*
X54663Y176011*
X54350Y175385*
X54037Y175073*
X50913*
Y174448*
Y175073D02*
Y176323D01*
X54663Y171948D02*
X50913D01*
X52787Y170385*
X50913Y168823*
X54663*
Y166948D02*
X50913D01*
Y164761*
X51225Y164135*
X51850Y163823*
X52475Y164135*
X52787Y164761*
Y166948*
X54663Y161323D02*
Y160073D01*
Y160698D02*
X50913D01*
X51537Y161323*
X54350Y156635D02*
X54663Y156011D01*
Y155385*
X54350Y154761*
X53725Y154448*
X51850*
X51225Y154761*
X50913Y155385*
Y156011*
X51225Y156635*
X51850Y156948*
X53725*
X54350Y156635*
X51225Y154761*
X54663Y150385D02*
X50913D01*
X53413Y151948*
Y149448*
X57400Y110698D02*
X58800D01*
Y105698*
X57400*
Y110698*
Y118198D02*
X58800D01*
Y113198*
X57400*
Y118198*
Y125698D02*
X58800D01*
Y120698*
X57400*
Y125698*
X58754Y75163D02*
X72446D01*
Y56233*
X58754*
Y75163*
X60000Y100711D02*
Y96961D01*
X62187*
X62813Y97273*
X63125Y97898*
X62813Y98523*
X62187Y98835*
X60000*
X62187D02*
X63125Y100711D01*
X65625D02*
X66875D01*
X66250D02*
Y96961D01*
X65625Y97585*
X70313Y100398D02*
X70937Y100711D01*
X71563*
X72187Y100398*
X72500Y99773*
Y97898*
X72187Y97273*
X71563Y96961*
X70937*
X70313Y97273*
X70000Y97898*
Y99773*
X70313Y100398*
X72187Y97273*
X75625Y100711D02*
X76875D01*
X76250D02*
Y96961D01*
X75625Y97585*
X64825Y147498D02*
X70225D01*
Y141498*
X64825*
Y147498*
Y154898D02*
X70225D01*
Y148898*
X64825*
Y154898*
X64900Y95698D02*
X66300D01*
Y90698*
X64900*
Y95698*
X66537Y223198D02*
X66850Y222885D01*
X67163Y222261*
X66850Y221635*
X66537Y221323*
X63413*
Y220698*
Y221323D02*
Y222573D01*
X67163Y218198D02*
X63413D01*
X65287Y216635*
X63413Y215073*
X67163*
Y213198D02*
X63413D01*
Y211011*
X63725Y210385*
X64350Y210073*
X64975Y210385*
X65287Y211011*
Y213198*
X67163Y207573D02*
Y206323D01*
Y206948D02*
X63413D01*
X64037Y207573*
X66850Y202885D02*
X67163Y202261D01*
Y201635*
X66850Y201011*
X66225Y200698*
X64350*
X63725Y201011*
X63413Y201635*
Y202261*
X63725Y202885*
X64350Y203198*
X66225*
X66850Y202885*
X63725Y201011*
X66225Y198198D02*
X65600Y197885D01*
X65287Y197261*
Y196635*
X65600Y196011*
X66225Y195698*
X66850Y196011*
X67163Y196635*
Y197261*
X66850Y197885*
X66225Y198198*
X65287*
X64350Y197885*
X63725Y197261*
X63413Y196635*
X68225Y180698D02*
X66825D01*
Y185698*
X68225*
Y180698*
Y187198D02*
X66825D01*
Y192198*
X68225*
Y187198*
X69950Y123511D02*
Y126323D01*
X70263Y126948*
X70887Y127261*
X72137*
X72763Y126948*
X73075Y126323*
Y123511*
X75575Y127261D02*
X76825D01*
X76200D02*
Y123511D01*
X75575Y124135*
X80263Y126948D02*
X80887Y127261D01*
X81513*
X82137Y126948*
X82450Y126323*
Y124448*
X82137Y123823*
X81513Y123511*
X80887*
X80263Y123823*
X79950Y124448*
Y126323*
X80263Y126948*
X82137Y123823*
X85575Y127261D02*
X86825D01*
X86200D02*
Y123511D01*
X85575Y124135*
X71702Y86741D02*
X59498D01*
Y79655*
X71702*
Y86741*
X74975Y176635D02*
X74663Y176948D01*
X74037Y177261*
X73100*
X72475Y176948*
X72163Y176635*
X71850Y176011*
Y174761*
X72163Y174135*
X72475Y173823*
X73100Y173511*
X74037*
X74663Y173823*
X74975Y174135*
X79350Y177261D02*
X76850D01*
X79037Y175073*
X79350Y174448*
X79037Y173823*
X78413Y173511*
X77475*
X76850Y173823*
X82475Y177261D02*
X83725D01*
X83100D02*
Y173511D01*
X82475Y174135*
X88413Y177261D02*
Y173511D01*
X86850Y176011*
X89350*
X74975Y371635D02*
X74663Y371948D01*
X74037Y372261*
X73100*
X72475Y371948*
X72163Y371635*
X71850Y371011*
Y369761*
X72163Y369135*
X72475Y368823*
X73100Y368511*
X74037*
X74663Y368823*
X74975Y369135*
X77475Y372261D02*
X78725D01*
X78100D02*
Y368511D01*
X77475Y369135*
X82475Y372261D02*
X83725D01*
X83100D02*
Y368511D01*
X82475Y369135*
X89350Y372261D02*
X86850D01*
X89037Y370073*
X89350Y369448*
X89037Y368823*
X88413Y368511*
X87475*
X86850Y368823*
X74350Y364761D02*
Y361011D01*
X76537*
X77163Y361323*
X77475Y361948*
X77163Y362573*
X76537Y362885*
X74350*
X76537D02*
X77475Y364761D01*
X81850D02*
X79350D01*
X81537Y362573*
X81850Y361948*
X81537Y361323*
X80913Y361011*
X79975*
X79350Y361323*
X84663Y364448D02*
X85287Y364761D01*
X85913*
X86537Y364448*
X86850Y363823*
Y361948*
X86537Y361323*
X85913Y361011*
X85287*
X84663Y361323*
X84350Y361948*
Y363823*
X84663Y364448*
X86537Y361323*
X89663Y364448D02*
X90287Y364761D01*
X90913*
X91537Y364448*
X91850Y363823*
X91537Y363198*
X90913Y362885*
X90287*
X90913D02*
X91537Y362573D01*
X91850Y361948*
X91537Y361323*
X90913Y361011*
X90287*
X89663Y361323*
X74850Y208398D02*
Y202998D01*
X68850*
Y208398*
X74850*
X75400Y110158D02*
X80800D01*
Y104158*
X75400*
Y110158*
X78725Y45385D02*
X78413Y45698D01*
X77787Y46011*
X76850*
X76225Y45698*
X75913Y45385*
X75600Y44761*
Y43511*
X75913Y42885*
X76225Y42573*
X76850Y42261*
X77787*
X78413Y42573*
X78725Y42885*
X81225Y46011D02*
X82475D01*
X81850D02*
Y42261D01*
X81225Y42885*
X85913Y45698D02*
X86537Y46011D01*
X87163*
X87787Y45698*
X88100Y45073*
Y43198*
X87787Y42573*
X87163Y42261*
X86537*
X85913Y42573*
X85600Y43198*
Y45073*
X85913Y45698*
X87787Y42573*
X92163Y46011D02*
Y42261D01*
X90600Y44761*
X93100*
X75913Y66948D02*
X74663D01*
X74037Y66635*
X73725Y66323*
X73413Y65698*
Y65073*
X73725Y64448*
X74037Y64135*
X74663Y63823*
X75913*
X76537Y64135*
X76850Y64448*
X77163Y65073*
Y65698*
X76850Y66323*
X76537Y66635*
X75913Y66948*
X76225Y64761D02*
X77163Y63823D01*
Y61323D02*
Y60073D01*
Y60698D02*
X73413D01*
X74037Y61323*
X76850Y56635D02*
X77163Y56011D01*
Y55385*
X76850Y54761*
X76225Y54448*
X74350*
X73725Y54761*
X73413Y55385*
Y56011*
X73725Y56635*
X74350Y56948*
X76225*
X76850Y56635*
X73725Y54761*
X77163Y51323D02*
Y50073D01*
Y50698D02*
X73413D01*
X74037Y51323*
X77163Y88198D02*
X73413D01*
Y86323*
X73725Y85698*
X74037Y85385*
X74663Y85073*
X75913*
X76537Y85385*
X76850Y85698*
X77163Y86323*
Y88198*
Y82573D02*
Y81323D01*
Y81948D02*
X73413D01*
X74037Y82573*
X76850Y77885D02*
X77163Y77261D01*
Y76635*
X76850Y76011*
X76225Y75698*
X74350*
X73725Y76011*
X73413Y76635*
Y77261*
X73725Y77885*
X74350Y78198*
X76225*
X76850Y77885*
X73725Y76011*
X77163Y72573D02*
Y71323D01*
Y71948D02*
X73413D01*
X74037Y72573*
X80600Y159135D02*
X80913Y159448D01*
X81537Y159761*
X82163Y159448*
X82475Y159135*
Y156011*
X83100*
X82475D02*
X81225D01*
X85600Y159761D02*
Y156011D01*
X87163Y157885*
X88725Y156011*
Y159761*
X90600D02*
Y156011D01*
X92787*
X93413Y156323*
X93725Y156948*
X93413Y157573*
X92787Y157885*
X90600*
X96225Y159761D02*
X97475D01*
X96850D02*
Y156011D01*
X96225Y156635*
X100913Y159448D02*
X101537Y159761D01*
X102163*
X102787Y159448*
X103100Y158823*
Y156948*
X102787Y156323*
X102163Y156011*
X101537*
X100913Y156323*
X100600Y156948*
Y158823*
X100913Y159448*
X102787Y156323*
X105600Y159448D02*
X106225Y159761D01*
X107163*
X107787Y159448*
X108100Y158823*
Y158511*
X107787Y157885*
X107163Y157573*
X105600*
Y156011*
X108100*
X81850Y101011D02*
Y97261D01*
X84037*
X84663Y97573*
X84975Y98198*
X84663Y98823*
X84037Y99135*
X81850*
X84037D02*
X84975Y101011D01*
X87475D02*
X88725D01*
X88100D02*
Y97261D01*
X87475Y97885*
X92163Y100698D02*
X92787Y101011D01*
X93413*
X94037Y100698*
X94350Y100073*
Y98198*
X94037Y97573*
X93413Y97261*
X92787*
X92163Y97573*
X91850Y98198*
Y100073*
X92163Y100698*
X94037Y97573*
X96850Y101011D02*
X99350Y97261D01*
X96850*
X80913Y74448D02*
X79663D01*
X79037Y74135*
X78725Y73823*
X78413Y73198*
Y72573*
X78725Y71948*
X79037Y71635*
X79663Y71323*
X80913*
X81537Y71635*
X81850Y71948*
X82163Y72573*
Y73198*
X81850Y73823*
X81537Y74135*
X80913Y74448*
X81225Y72261D02*
X82163Y71323D01*
Y68823D02*
Y67573D01*
Y68198D02*
X78413D01*
X79037Y68823*
X81850Y64135D02*
X82163Y63511D01*
Y62885*
X81850Y62261*
X81225Y61948*
X79350*
X78725Y62261*
X78413Y62885*
Y63511*
X78725Y64135*
X79350Y64448*
X81225*
X81850Y64135*
X78725Y62261*
X81850Y59135D02*
X82163Y58511D01*
Y57885*
X81850Y57261*
X81225Y56948*
X80600Y57261*
X80287Y57885*
Y58511*
Y57885D02*
X79975Y57261D01*
X79350Y56948*
X78725Y57261*
X78413Y57885*
Y58511*
X78725Y59135*
X80913Y93198D02*
X79663D01*
X79037Y92885*
X78725Y92573*
X78413Y91948*
Y91323*
X78725Y90698*
X79037Y90385*
X79663Y90073*
X80913*
X81537Y90385*
X81850Y90698*
X82163Y91323*
Y91948*
X81850Y92573*
X81537Y92885*
X80913Y93198*
X81225Y91011D02*
X82163Y90073D01*
Y87573D02*
Y86323D01*
Y86948D02*
X78413D01*
X79037Y87573*
X81850Y82885D02*
X82163Y82261D01*
Y81635*
X81850Y81011*
X81225Y80698*
X79350*
X78725Y81011*
X78413Y81635*
Y82261*
X78725Y82885*
X79350Y83198*
X81225*
X81850Y82885*
X78725Y81011*
X82163Y75698D02*
Y78198D01*
X79975Y76011*
X79350Y75698*
X78725Y76011*
X78413Y76635*
Y77573*
X78725Y78198*
X86225Y401635D02*
X85913Y401948D01*
X85287Y402261*
X84350*
X83725Y401948*
X83413Y401635*
X83100Y401011*
Y399761*
X83413Y399135*
X83725Y398823*
X84350Y398511*
X85287*
X85913Y398823*
X86225Y399135*
X88725Y402261D02*
X89975D01*
X89350D02*
Y398511D01*
X88725Y399135*
X93725Y402261D02*
X94975D01*
X94350D02*
Y398511D01*
X93725Y399135*
X98413Y401948D02*
X99037Y402261D01*
X99663*
X100287Y401948*
X100600Y401323*
X100287Y400698*
X99663Y400385*
X99037*
X99663D02*
X100287Y400073D01*
X100600Y399448*
X100287Y398823*
X99663Y398511*
X99037*
X98413Y398823*
X83754Y75163D02*
X97446D01*
Y56233*
X83754*
Y75163*
X84399Y111308D02*
Y120088D01*
X71801*
Y111308*
X77313*
Y111702*
X78887*
Y111308*
X84399*
X86850Y183198D02*
X89350D01*
X85913Y198198D02*
X82163D01*
Y196011*
X82475Y195385*
X83100Y195073*
X83725Y195385*
X84037Y196011*
Y198198*
Y196011D02*
X85913Y195073D01*
Y190698D02*
Y193198D01*
X83725Y191011*
X83100Y190698*
X82475Y191011*
X82163Y191635*
Y192573*
X82475Y193198*
X85913Y187573D02*
Y186323D01*
Y186948D02*
X82163D01*
X82787Y187573*
X85913Y181635D02*
X82163D01*
X84663Y183198*
Y180698*
X85913Y235698D02*
X82163D01*
Y233511*
X82475Y232885*
X83100Y232573*
X83725Y232885*
X84037Y233511*
Y235698*
Y233511D02*
X85913Y232573D01*
Y230073D02*
Y228823D01*
Y229448D02*
X82163D01*
X82787Y230073*
X85913Y225073D02*
Y223823D01*
Y224448D02*
X82163D01*
X82787Y225073*
X85913Y220698D02*
X82163Y218198D01*
Y220698*
X88100Y219448D02*
X89350D01*
Y131011D02*
Y127261D01*
X91537*
X92163Y127573*
X92475Y128198*
X92163Y128823*
X91537Y129135*
X89350*
X91537D02*
X92475Y131011D01*
X94975D02*
X96225D01*
X95600D02*
Y127261D01*
X94975Y127885*
X99663Y130698D02*
X100287Y131011D01*
X100913*
X101537Y130698*
X101850Y130073*
Y128198*
X101537Y127573*
X100913Y127261*
X100287*
X99663Y127573*
X99350Y128198*
Y130073*
X99663Y130698*
X101537Y127573*
X104663Y130698D02*
X105287Y131011D01*
X105913*
X106537Y130698*
X106850Y130073*
X106537Y129448*
X105913Y129135*
X105287*
X105913D02*
X106537Y128823D01*
X106850Y128198*
X106537Y127573*
X105913Y127261*
X105287*
X104663Y127573*
X89350Y139135D02*
X89663Y139448D01*
X90287Y139761*
X90913Y139448*
X91225Y139135*
Y136011*
X91850*
X91225D02*
X89975D01*
X94350Y139761D02*
Y136011D01*
X95913Y137885*
X97475Y136011*
Y139761*
X99350D02*
Y136011D01*
X101537*
X102163Y136323*
X102475Y136948*
X102163Y137573*
X101537Y137885*
X99350*
X104975Y139761D02*
X106225D01*
X105600D02*
Y136011D01*
X104975Y136635*
X109663Y139448D02*
X110287Y139761D01*
X110913*
X111537Y139448*
X111850Y138823*
Y136948*
X111537Y136323*
X110913Y136011*
X110287*
X109663Y136323*
X109350Y136948*
Y138823*
X109663Y139448*
X111537Y136323*
X114663Y139448D02*
X115287Y139761D01*
X115913*
X116537Y139448*
X116850Y138823*
X116537Y138198*
X115913Y137885*
X115287*
X115913D02*
X116537Y137573D01*
X116850Y136948*
X116537Y136323*
X115913Y136011*
X115287*
X114663Y136323*
X89350Y166011D02*
Y162261D01*
X91537*
X92163Y162573*
X92475Y163198*
X92163Y163823*
X91537Y164135*
X89350*
X91537D02*
X92475Y166011D01*
X96850D02*
X94350D01*
X96537Y163823*
X96850Y163198*
X96537Y162573*
X95913Y162261*
X94975*
X94350Y162573*
X99975Y166011D02*
X101225D01*
X100600D02*
Y162261D01*
X99975Y162885*
X104663Y165698D02*
X105287Y166011D01*
X105913*
X106537Y165698*
X106850Y165073*
X106537Y164448*
X105913Y164135*
X105287*
X105913D02*
X106537Y163823D01*
X106850Y163198*
X106537Y162573*
X105913Y162261*
X105287*
X104663Y162573*
X92475Y196635D02*
X92163Y196948D01*
X91537Y197261*
X90600*
X89975Y196948*
X89663Y196635*
X89350Y196011*
Y194761*
X89663Y194135*
X89975Y193823*
X90600Y193511*
X91537*
X92163Y193823*
X92475Y194135*
X96850Y197261D02*
X94350D01*
X96537Y195073*
X96850Y194448*
X96537Y193823*
X95913Y193511*
X94975*
X94350Y193823*
X99975Y197261D02*
X101225D01*
X100600D02*
Y193511D01*
X99975Y194135*
X104350Y196948D02*
X104975Y197261D01*
X105913*
X106537Y196948*
X106850Y196323*
Y196011*
X106537Y195385*
X105913Y195073*
X104350*
Y193511*
X106850*
X89350Y208511D02*
Y204761D01*
X91537*
X92163Y205073*
X92475Y205698*
X92163Y206323*
X91537Y206635*
X89350*
X91537D02*
X92475Y208511D01*
X96850D02*
X94350D01*
X96537Y206323*
X96850Y205698*
X96537Y205073*
X95913Y204761*
X94975*
X94350Y205073*
X99663Y208198D02*
X100287Y208511D01*
X100913*
X101537Y208198*
X101850Y207573*
Y205698*
X101537Y205073*
X100913Y204761*
X100287*
X99663Y205073*
X99350Y205698*
Y207573*
X99663Y208198*
X101537Y205073*
X104975Y208511D02*
X106225D01*
X105600D02*
Y204761D01*
X104975Y205385*
X89350Y234761D02*
Y231011D01*
X91537*
X92163Y231323*
X92475Y231948*
X92163Y232573*
X91537Y232885*
X89350*
X91537D02*
X92475Y234761D01*
X94975D02*
X96225D01*
X95600D02*
Y231011D01*
X94975Y231635*
X99975Y234761D02*
X101225D01*
X100600D02*
Y231011D01*
X99975Y231635*
X104350Y233823D02*
X104663Y233198D01*
X105287Y232885*
X105913*
X106537Y233198*
X106850Y233823*
X106537Y234448*
X105913Y234761*
X105287*
X104663Y234448*
X104350Y233823*
Y232885*
X104663Y231948*
X105287Y231323*
X105913Y231011*
X91300Y90698D02*
X89900D01*
Y95698*
X91300*
Y90698*
X92370Y388198D02*
X90970D01*
Y393198*
X92370*
Y388198*
X93300Y47698D02*
X87900D01*
Y53698*
X93300*
Y47698*
X95400Y147498D02*
X100800D01*
Y141498*
X95400*
Y147498*
Y154898D02*
X100800D01*
Y148898*
X95400*
Y154898*
X96702Y86741D02*
X84498D01*
Y79655*
X96702*
Y86741*
X97400Y172698D02*
X98800D01*
Y167698*
X97400*
Y172698*
Y192198D02*
X98800D01*
Y187198*
X97400*
Y192198*
X98800Y105698D02*
X97400D01*
Y110698*
X98800*
Y105698*
Y113198D02*
X97400D01*
Y118198*
X98800*
Y113198*
Y120698D02*
X97400D01*
Y125698*
X98800*
Y120698*
Y174198D02*
X97400D01*
Y179198*
X98800*
Y174198*
Y180698D02*
X97400D01*
Y185698*
X98800*
Y180698*
Y210698D02*
X97400D01*
Y215698*
X98800*
Y210698*
Y217198D02*
X97400D01*
Y222198*
X98800*
Y217198*
Y223698D02*
X97400D01*
Y228698*
X98800*
Y223698*
X100600Y103198D02*
X90600D01*
X89350Y104448*
X104975Y102885D02*
X104663Y103198D01*
X104037Y103511*
X103100*
X102475Y103198*
X102163Y102885*
X101850Y102261*
Y101011*
X102163Y100385*
X102475Y100073*
X103100Y99761*
X104037*
X104663Y100073*
X104975Y100385*
X107475Y103511D02*
X108725D01*
X108100D02*
Y99761D01*
X107475Y100385*
X112163Y103198D02*
X112787Y103511D01*
X113413*
X114037Y103198*
X114350Y102573*
Y100698*
X114037Y100073*
X113413Y99761*
X112787*
X112163Y100073*
X111850Y100698*
Y102573*
X112163Y103198*
X114037Y100073*
X117163Y103198D02*
X117787Y103511D01*
X118413*
X119037Y103198*
X119350Y102573*
X119037Y101948*
X118413Y101635*
X117787*
X118413D02*
X119037Y101323D01*
X119350Y100698*
X119037Y100073*
X118413Y99761*
X117787*
X117163Y100073*
X102370Y360698D02*
X100970D01*
Y365698*
X102370*
Y360698*
Y368198D02*
X100970D01*
Y373198*
X102370*
Y368198*
X103100Y399761D02*
Y396011D01*
X105287*
X105913Y396323*
X106225Y396948*
X105913Y397573*
X105287Y397885*
X103100*
X105287D02*
X106225Y399761D01*
X108725D02*
X109975D01*
X109350D02*
Y396011D01*
X108725Y396635*
X113725Y399761D02*
X114975D01*
X114350D02*
Y396011D01*
X113725Y396635*
X119037Y397885D02*
X119663D01*
X120287Y397573*
X120600Y396948*
X120287Y396323*
X119663Y396011*
X119037*
X118413Y396323*
X118100Y396948*
X118413Y397573*
X119037Y397885*
X118413Y398198*
X118100Y398823*
X118413Y399448*
X119037Y399761*
X119663*
X120287Y399448*
X120600Y398823*
X120287Y398198*
X119663Y397885*
X105600Y88898D02*
Y87498D01*
X100600*
Y88898*
X105600*
X109350Y115698D02*
X106850D01*
X110435Y175915D02*
Y190481D01*
X116340*
Y175915*
X110435*
X110913Y98198D02*
X107163D01*
Y96011*
X107475Y95385*
X108100Y95073*
X108725Y95385*
X109037Y96011*
Y98198*
Y96011D02*
X110913Y95073D01*
Y92573D02*
Y91323D01*
Y91948D02*
X107163D01*
X107787Y92573*
X110600Y87885D02*
X110913Y87261D01*
Y86635*
X110600Y86011*
X109975Y85698*
X108100*
X107475Y86011*
X107163Y86635*
Y87261*
X107475Y87885*
X108100Y88198*
X109975*
X110600Y87885*
X107475Y86011*
X109037Y82261D02*
Y81635D01*
X108725Y81011*
X108100Y80698*
X107475Y81011*
X107163Y81635*
Y82261*
X107475Y82885*
X108100Y83198*
X108725Y82885*
X109037Y82261*
X109350Y82885*
X109975Y83198*
X110600Y82885*
X110913Y82261*
Y81635*
X110600Y81011*
X109975Y80698*
X109350Y81011*
X109037Y81635*
X112370Y388198D02*
X110970D01*
Y393198*
X112370*
Y388198*
X112726Y199005D02*
Y197824D01*
X113907*
X113100Y108198D02*
X109350D01*
X113317Y214950D02*
G75*
G02Y214399J-276D01*
G01*
G75*
G02Y214950J276*
G01*
G36*
G75*
G02Y214399J-276*
G01*
G75*
G02Y214950J276*
G01*
G37*
X113907Y213572D02*
X112726D01*
Y212391*
X113413Y128198D02*
X109663D01*
Y126011*
X109975Y125385*
X110600Y125073*
X111225Y125385*
X111537Y126011*
Y128198*
Y126011D02*
X113413Y125073D01*
Y122573D02*
Y121323D01*
Y121948D02*
X109663D01*
X110287Y122573*
X113100Y117885D02*
X113413Y117261D01*
Y116635*
X113100Y116011*
X112475Y115698*
X110600*
X109975Y116011*
X109663Y116635*
Y117261*
X109975Y117885*
X110600Y118198*
X112475*
X113100Y117885*
X109975Y116011*
X113100Y113198D02*
X113413Y112573D01*
Y111635*
X113100Y111011*
X112475Y110698*
X112163*
X111537Y111011*
X111225Y111635*
Y113198*
X109663*
Y110698*
X114663Y174448D02*
X110913D01*
Y172573*
X111225Y171948*
X111537Y171635*
X112163Y171323*
X113413*
X114037Y171635*
X114350Y171948*
X114663Y172573*
Y174448*
Y166948D02*
Y169448D01*
X112475Y167261*
X111850Y166948*
X111225Y167261*
X110913Y167885*
Y168823*
X111225Y169448*
X114350Y164135D02*
X114663Y163511D01*
Y162885*
X114350Y162261*
X113725Y161948*
X111850*
X111225Y162261*
X110913Y162885*
Y163511*
X111225Y164135*
X111850Y164448*
X113725*
X114350Y164135*
X111225Y162261*
X114350Y159135D02*
X114663Y158511D01*
Y157885*
X114350Y157261*
X113725Y156948*
X113100Y157261*
X112787Y157885*
Y158511*
Y157885D02*
X112475Y157261D01*
X111850Y156948*
X111225Y157261*
X110913Y157885*
Y158511*
X111225Y159135*
X116163Y181446D02*
X110651D01*
X119170Y366398D02*
Y364998D01*
X114170*
Y366398*
X119170*
X118413Y124448D02*
X114663D01*
Y122261*
X114975Y121635*
X115600Y121323*
X116225Y121635*
X116537Y122261*
Y124448*
Y122261D02*
X118413Y121323D01*
Y118823D02*
Y117573D01*
Y118198D02*
X114663D01*
X115287Y118823*
X118100Y114135D02*
X118413Y113511D01*
Y112885*
X118100Y112261*
X117475Y111948*
X115600*
X114975Y112261*
X114663Y112885*
Y113511*
X114975Y114135*
X115600Y114448*
X117475*
X118100Y114135*
X114975Y112261*
X117475Y109448D02*
X116850Y109135D01*
X116537Y108511*
Y107885*
X116850Y107261*
X117475Y106948*
X118100Y107261*
X118413Y107885*
Y108511*
X118100Y109135*
X117475Y109448*
X116537*
X115600Y109135*
X114975Y108511*
X114663Y107885*
X118413Y356948D02*
X114663D01*
Y354761*
X114975Y354135*
X115600Y353823*
X116225Y354135*
X116537Y354761*
Y356948*
Y354761D02*
X118413Y353823D01*
Y349448D02*
Y351948D01*
X116225Y349761*
X115600Y349448*
X114975Y349761*
X114663Y350385*
Y351323*
X114975Y351948*
X118100Y346635D02*
X118413Y346011D01*
Y345385*
X118100Y344761*
X117475Y344448*
X115600*
X114975Y344761*
X114663Y345385*
Y346011*
X114975Y346635*
X115600Y346948*
X117475*
X118100Y346635*
X114975Y344761*
X118413Y340385D02*
X114663D01*
X117163Y341948*
Y339448*
X120600Y117885D02*
X120913Y118198D01*
X121537Y118511*
X122163Y118198*
X122475Y117885*
Y114761*
X123100*
X122475D02*
X121225D01*
X125600Y118511D02*
Y114761D01*
X127163Y116635*
X128725Y114761*
Y118511*
X130600D02*
Y114761D01*
X132787*
X133413Y115073*
X133725Y115698*
X133413Y116323*
X132787Y116635*
X130600*
X136225Y118511D02*
X137475D01*
X136850D02*
Y114761D01*
X136225Y115385*
X140913Y118198D02*
X141537Y118511D01*
X142163*
X142787Y118198*
X143100Y117573*
Y115698*
X142787Y115073*
X142163Y114761*
X141537*
X140913Y115073*
X140600Y115698*
Y117573*
X140913Y118198*
X142787Y115073*
X146225Y118511D02*
X147475D01*
X146850D02*
Y114761D01*
X146225Y115385*
X121850Y102885D02*
X122163Y103198D01*
X122787Y103511*
X123413Y103198*
X123725Y102885*
Y99761*
X124350*
X123725D02*
X122475D01*
X126850Y103511D02*
Y99761D01*
X128413Y101635*
X129975Y99761*
Y103511*
X131850D02*
Y99761D01*
X134037*
X134663Y100073*
X134975Y100698*
X134663Y101323*
X134037Y101635*
X131850*
X137475Y103511D02*
X138725D01*
X138100D02*
Y99761D01*
X137475Y100385*
X142163Y103198D02*
X142787Y103511D01*
X143413*
X144037Y103198*
X144350Y102573*
Y100698*
X144037Y100073*
X143413Y99761*
X142787*
X142163Y100073*
X141850Y100698*
Y102573*
X142163Y103198*
X144037Y100073*
X149350Y103511D02*
X146850D01*
X149037Y101323*
X149350Y100698*
X149037Y100073*
X148413Y99761*
X147475*
X146850Y100073*
X127293Y197824D02*
X128474D01*
Y199005*
Y212391D02*
Y213572D01*
X127293*
X129150Y111198D02*
X134550D01*
Y105198*
X129150*
Y111198*
Y126198D02*
X134550D01*
Y120198*
X129150*
Y126198*
Y143898D02*
X134550D01*
Y137898*
X129150*
Y143898*
Y151198D02*
X134550D01*
Y145198*
X129150*
Y151198*
Y158498D02*
X134550D01*
Y152498*
X129150*
Y158498*
X129375Y167698D02*
X127975D01*
Y172698*
X129375*
Y167698*
Y180499D02*
X127975D01*
Y185499*
X129375*
Y180499*
Y186999D02*
X127975D01*
Y191999*
X129375*
Y186999*
X131850Y203511D02*
Y206323D01*
X132163Y206948*
X132787Y207261*
X134037*
X134663Y206948*
X134975Y206323*
Y203511*
X139350Y207261D02*
X136850D01*
X139037Y205073*
X139350Y204448*
X139037Y203823*
X138413Y203511*
X137475*
X136850Y203823*
X142163Y206948D02*
X142787Y207261D01*
X143413*
X144037Y206948*
X144350Y206323*
Y204448*
X144037Y203823*
X143413Y203511*
X142787*
X142163Y203823*
X141850Y204448*
Y206323*
X142163Y206948*
X144037Y203823*
X147475Y207261D02*
X148725D01*
X148100D02*
Y203511D01*
X147475Y204135*
X132787Y236323D02*
X133100Y236635D01*
X133413Y237261*
Y238198*
X133100Y238823*
X132787Y239135*
X132163Y239448*
X130913*
X130287Y239135*
X129975Y238823*
X129663Y238198*
Y237261*
X129975Y236635*
X130287Y236323*
X133413Y231948D02*
Y234448D01*
X131225Y232261*
X130600Y231948*
X129975Y232261*
X129663Y232885*
Y233823*
X129975Y234448*
X133100Y229135D02*
X133413Y228511D01*
Y227885*
X133100Y227261*
X132475Y226948*
X130600*
X129975Y227261*
X129663Y227885*
Y228511*
X129975Y229135*
X130600Y229448*
X132475*
X133100Y229135*
X129975Y227261*
X133413Y222885D02*
X129663D01*
X132163Y224448*
Y221948*
X138800Y213198D02*
X137400D01*
Y218198*
X138800*
Y213198*
X139170Y366398D02*
Y364998D01*
X134170*
Y366398*
X139170*
X138413Y356948D02*
X134663D01*
Y354761*
X134975Y354135*
X135600Y353823*
X136225Y354135*
X136537Y354761*
Y356948*
Y354761D02*
X138413Y353823D01*
Y349448D02*
Y351948D01*
X136225Y349761*
X135600Y349448*
X134975Y349761*
X134663Y350385*
Y351323*
X134975Y351948*
X138100Y346635D02*
X138413Y346011D01*
Y345385*
X138100Y344761*
X137475Y344448*
X135600*
X134975Y344761*
X134663Y345385*
Y346011*
X134975Y346635*
X135600Y346948*
X137475*
X138100Y346635*
X134975Y344761*
X138100Y341948D02*
X138413Y341323D01*
Y340385*
X138100Y339761*
X137475Y339448*
X137163*
X136537Y339761*
X136225Y340385*
Y341948*
X134663*
Y339448*
X143725Y164135D02*
X143413Y164448D01*
X142787Y164761*
X141850*
X141225Y164448*
X140913Y164135*
X140600Y163511*
Y162261*
X140913Y161635*
X141225Y161323*
X141850Y161011*
X142787*
X143413Y161323*
X143725Y161635*
X146225Y164761D02*
X147475D01*
X146850D02*
Y161011D01*
X146225Y161635*
X150913Y164448D02*
X151537Y164761D01*
X152163*
X152787Y164448*
X153100Y163823*
Y161948*
X152787Y161323*
X152163Y161011*
X151537*
X150913Y161323*
X150600Y161948*
Y163823*
X150913Y164448*
X152787Y161323*
X156537Y162885D02*
X157163D01*
X157787Y162573*
X158100Y161948*
X157787Y161323*
X157163Y161011*
X156537*
X155913Y161323*
X155600Y161948*
X155913Y162573*
X156537Y162885*
X155913Y163198*
X155600Y163823*
X155913Y164448*
X156537Y164761*
X157163*
X157787Y164448*
X158100Y163823*
X157787Y163198*
X157163Y162885*
X140600Y172261D02*
Y168511D01*
X142787*
X143413Y168823*
X143725Y169448*
X143413Y170073*
X142787Y170385*
X140600*
X142787D02*
X143725Y172261D01*
X146225D02*
X147475D01*
X146850D02*
Y168511D01*
X146225Y169135*
X151225Y172261D02*
X152475D01*
X151850D02*
Y168511D01*
X151225Y169135*
X155600Y171948D02*
X156225Y172261D01*
X157163*
X157787Y171948*
X158100Y171323*
Y171011*
X157787Y170385*
X157163Y170073*
X155600*
Y168511*
X158100*
X143725Y184135D02*
X143413Y184448D01*
X142787Y184761*
X141850*
X141225Y184448*
X140913Y184135*
X140600Y183511*
Y182261*
X140913Y181635*
X141225Y181323*
X141850Y181011*
X142787*
X143413Y181323*
X143725Y181635*
X148100Y184761D02*
X145600D01*
X147787Y182573*
X148100Y181948*
X147787Y181323*
X147163Y181011*
X146225*
X145600Y181323*
X150913Y184448D02*
X151537Y184761D01*
X152163*
X152787Y184448*
X153100Y183823*
Y181948*
X152787Y181323*
X152163Y181011*
X151537*
X150913Y181323*
X150600Y181948*
Y183823*
X150913Y184448*
X152787Y181323*
X156225Y184761D02*
X157475D01*
X156850D02*
Y181011D01*
X156225Y181635*
X143725Y191635D02*
X143413Y191948D01*
X142787Y192261*
X141850*
X141225Y191948*
X140913Y191635*
X140600Y191011*
Y189761*
X140913Y189135*
X141225Y188823*
X141850Y188511*
X142787*
X143413Y188823*
X143725Y189135*
X148100Y192261D02*
X145600D01*
X147787Y190073*
X148100Y189448*
X147787Y188823*
X147163Y188511*
X146225*
X145600Y188823*
X150913Y191948D02*
X151537Y192261D01*
X152163*
X152787Y191948*
X153100Y191323*
Y189448*
X152787Y188823*
X152163Y188511*
X151537*
X150913Y188823*
X150600Y189448*
Y191323*
X150913Y191948*
X152787Y188823*
X158100Y192261D02*
X155600D01*
X157787Y190073*
X158100Y189448*
X157787Y188823*
X157163Y188511*
X156225*
X155600Y188823*
X141850Y46011D02*
Y42261D01*
X144037*
X144663Y42573*
X144975Y43198*
X144663Y43823*
X144037Y44135*
X141850*
X144037D02*
X144975Y46011D01*
X147475D02*
X148725D01*
X148100D02*
Y42261D01*
X147475Y42885*
X152163Y45698D02*
X152787Y46011D01*
X153413*
X154037Y45698*
X154350Y45073*
Y43198*
X154037Y42573*
X153413Y42261*
X152787*
X152163Y42573*
X151850Y43198*
Y45073*
X152163Y45698*
X154037Y42573*
X157787Y46011D02*
X158413Y45698D01*
X159037Y45073*
X159350Y44135*
Y43198*
X159037Y42573*
X158413Y42261*
X157787*
X157163Y42573*
X156850Y43198*
X157163Y43823*
X157787Y44135*
X158413*
X159037Y43823*
X159350Y43198*
X141850Y93511D02*
Y92261D01*
X142163Y91635*
X142475Y91323*
X143100Y91011*
X143725*
X144350Y91323*
X144663Y91635*
X144975Y92261*
Y93511*
X144663Y94135*
X144350Y94448*
X143725Y94761*
X143100*
X142475Y94448*
X142163Y94135*
X141850Y93511*
X144037Y93823D02*
X144975Y94761D01*
X147475D02*
X148725D01*
X148100D02*
Y91011D01*
X147475Y91635*
X152163Y94448D02*
X152787Y94761D01*
X153413*
X154037Y94448*
X154350Y93823*
Y91948*
X154037Y91323*
X153413Y91011*
X152787*
X152163Y91323*
X151850Y91948*
Y93823*
X152163Y94448*
X154037Y91323*
X156850Y93823D02*
X157163Y93198D01*
X157787Y92885*
X158413*
X159037Y93198*
X159350Y93823*
X159037Y94448*
X158413Y94761*
X157787*
X157163Y94448*
X156850Y93823*
Y92885*
X157163Y91948*
X157787Y91323*
X158413Y91011*
X141850Y257261D02*
X144975Y253511D01*
X141850D02*
X144975Y257261D01*
X148413D02*
Y253511D01*
X146850D02*
X149975D01*
X151850Y257261D02*
X153413Y253511D01*
X154975Y257261*
X152475Y255698D02*
X154350D01*
X156850Y253511D02*
Y257261D01*
X159975*
X164350D02*
X161850D01*
X164037Y255073*
X164350Y254448*
X164037Y253823*
X163413Y253511*
X162475*
X161850Y253823*
X167163Y256948D02*
X167787Y257261D01*
X168413*
X169037Y256948*
X169350Y256323*
Y254448*
X169037Y253823*
X168413Y253511*
X167787*
X167163Y253823*
X166850Y254448*
Y256323*
X167163Y256948*
X169037Y253823*
X172475Y257261D02*
X173725D01*
X173100D02*
Y253511D01*
X172475Y254135*
X142913Y228898D02*
Y227498D01*
X137913*
Y228898*
X142913*
X143100Y129448D02*
X140600Y126948D01*
X143100Y140698D02*
X148100D01*
X149350Y141948*
X144163Y219950D02*
Y251446D01*
X152037*
Y219950*
X144163*
X146603Y151403D02*
X142950D01*
Y144993*
X147391*
Y150615*
X146603Y151403*
X146850Y155698D02*
X145600D01*
X143100Y153198*
X146850Y214761D02*
Y211011D01*
X149037*
X149663Y211323*
X149975Y211948*
X149663Y212573*
X149037Y212885*
X146850*
X149037D02*
X149975Y214761D01*
X154350D02*
X151850D01*
X154037Y212573*
X154350Y211948*
X154037Y211323*
X153413Y211011*
X152475*
X151850Y211323*
X157163Y214448D02*
X157787Y214761D01*
X158413*
X159037Y214448*
X159350Y213823*
Y211948*
X159037Y211323*
X158413Y211011*
X157787*
X157163Y211323*
X156850Y211948*
Y213823*
X157163Y214448*
X159037Y211323*
X164350Y214761D02*
X161850D01*
X164037Y212573*
X164350Y211948*
X164037Y211323*
X163413Y211011*
X162475*
X161850Y211323*
X151225Y155385D02*
X150913Y155698D01*
X150287Y156011*
X149350*
X148725Y155698*
X148413Y155385*
X148100Y154761*
Y153511*
X148413Y152885*
X148725Y152573*
X149350Y152261*
X150287*
X150913Y152573*
X151225Y152885*
X153725Y156011D02*
X154975D01*
X154350D02*
Y152261D01*
X153725Y152885*
X158725Y156011D02*
X159975D01*
X159350D02*
Y152261D01*
X158725Y152885*
X163413Y155698D02*
X164037Y156011D01*
X164663*
X165287Y155698*
X165600Y155073*
Y153198*
X165287Y152573*
X164663Y152261*
X164037*
X163413Y152573*
X163100Y153198*
Y155073*
X163413Y155698*
X165287Y152573*
X149350Y119448D02*
X150600Y118198D01*
X156850*
X148413Y138198D02*
X144663D01*
Y136011*
X144975Y135385*
X145600Y135073*
X146225Y135385*
X146537Y136011*
Y138198*
Y136011D02*
X148413Y135073D01*
Y132573D02*
Y131323D01*
Y131948D02*
X144663D01*
X145287Y132573*
X148413Y127573D02*
Y126323D01*
Y126948D02*
X144663D01*
X145287Y127573*
X148100Y122885D02*
X148413Y122261D01*
Y121635*
X148100Y121011*
X147475Y120698*
X146850Y121011*
X146537Y121635*
Y122261*
Y121635D02*
X146225Y121011D01*
X145600Y120698*
X144975Y121011*
X144663Y121635*
Y122261*
X144975Y122885*
X149900Y53198D02*
X151300D01*
Y48198*
X149900*
Y53198*
X153725Y145385D02*
X153413Y145698D01*
X152787Y146011*
X151850*
X151225Y145698*
X150913Y145385*
X150600Y144761*
Y143511*
X150913Y142885*
X151225Y142573*
X151850Y142261*
X152787*
X153413Y142573*
X153725Y142885*
X156225Y146011D02*
X157475D01*
X156850D02*
Y142261D01*
X156225Y142885*
X160913Y145698D02*
X161537Y146011D01*
X162163*
X162787Y145698*
X163100Y145073*
Y143198*
X162787Y142573*
X162163Y142261*
X161537*
X160913Y142573*
X160600Y143198*
Y145073*
X160913Y145698*
X162787Y142573*
X166537Y146011D02*
X167163Y145698D01*
X167787Y145073*
X168100Y144135*
Y143198*
X167787Y142573*
X167163Y142261*
X166537*
X165913Y142573*
X165600Y143198*
X165913Y143823*
X166537Y144135*
X167163*
X167787Y143823*
X168100Y143198*
X150600Y147261D02*
Y150073D01*
X150913Y150698*
X151537Y151011*
X152787*
X153413Y150698*
X153725Y150073*
Y147261*
X156225Y151011D02*
X157475D01*
X156850D02*
Y147261D01*
X156225Y147885*
X160913Y150698D02*
X161537Y151011D01*
X162163*
X162787Y150698*
X163100Y150073*
Y148198*
X162787Y147573*
X162163Y147261*
X161537*
X160913Y147573*
X160600Y148198*
Y150073*
X160913Y150698*
X162787Y147573*
X165913Y150698D02*
X166537Y151011D01*
X167163*
X167787Y150698*
X168100Y150073*
X167787Y149448*
X167163Y149135*
X166537*
X167163D02*
X167787Y148823D01*
X168100Y148198*
X167787Y147573*
X167163Y147261*
X166537*
X165913Y147573*
X154350Y123198D02*
X156850D01*
X153413Y138198D02*
X149663D01*
Y136011*
X149975Y135385*
X150600Y135073*
X151225Y135385*
X151537Y136011*
Y138198*
Y136011D02*
X153413Y135073D01*
Y132573D02*
Y131323D01*
Y131948D02*
X149663D01*
X150287Y132573*
X153413Y127573D02*
Y126323D01*
Y126948D02*
X149663D01*
X150287Y127573*
X153413Y121635D02*
X149663D01*
X152163Y123198*
Y120698*
X155600Y103511D02*
Y99761D01*
X157787*
X158413Y100073*
X158725Y100698*
X158413Y101323*
X157787Y101635*
X155600*
X157787D02*
X158725Y103511D01*
X161225D02*
X162475D01*
X161850D02*
Y99761D01*
X161225Y100385*
X166225Y103511D02*
X167475D01*
X166850D02*
Y99761D01*
X166225Y100385*
X173100Y103511D02*
X170600D01*
X172787Y101323*
X173100Y100698*
X172787Y100073*
X172163Y99761*
X171225*
X170600Y100073*
X155931Y89513D02*
X145269D01*
Y76883*
X155931*
Y82706*
X155439*
Y83690*
X155931*
Y89513*
X157446Y56233D02*
X143754D01*
Y75163*
X157446*
Y56233*
X158287Y228898D02*
Y227498D01*
X153287*
Y228898*
X158287*
X159350Y61011D02*
Y59761D01*
X159663Y59135*
X159975Y58823*
X160600Y58511*
X161225*
X161850Y58823*
X162163Y59135*
X162475Y59761*
Y61011*
X162163Y61635*
X161850Y61948*
X161225Y62261*
X160600*
X159975Y61948*
X159663Y61635*
X159350Y61011*
X161537Y61323D02*
X162475Y62261D01*
X164975D02*
X166225D01*
X165600D02*
Y58511D01*
X164975Y59135*
X169663Y61948D02*
X170287Y62261D01*
X170913*
X171537Y61948*
X171850Y61323*
Y59448*
X171537Y58823*
X170913Y58511*
X170287*
X169663Y58823*
X169350Y59448*
Y61323*
X169663Y61948*
X171537Y58823*
X174350Y61948D02*
X174975Y62261D01*
X175913*
X176537Y61948*
X176850Y61323*
Y61011*
X176537Y60385*
X175913Y60073*
X174350*
Y58511*
X176850*
X160600Y72261D02*
Y68511D01*
X162787*
X163413Y68823*
X163725Y69448*
X163413Y70073*
X162787Y70385*
X160600*
X162787D02*
X163725Y72261D01*
X168100D02*
X165600D01*
X167787Y70073*
X168100Y69448*
X167787Y68823*
X167163Y68511*
X166225*
X165600Y68823*
X171225Y72261D02*
X172475D01*
X171850D02*
Y68511D01*
X171225Y69135*
X178100Y72261D02*
X175600D01*
X177787Y70073*
X178100Y69448*
X177787Y68823*
X177163Y68511*
X176225*
X175600Y68823*
X160600Y92261D02*
Y95073D01*
X160913Y95698*
X161537Y96011*
X162787*
X163413Y95698*
X163725Y95073*
Y92261*
X168100Y96011D02*
X165600D01*
X167787Y93823*
X168100Y93198*
X167787Y92573*
X167163Y92261*
X166225*
X165600Y92573*
X170913Y95698D02*
X171537Y96011D01*
X172163*
X172787Y95698*
X173100Y95073*
Y93198*
X172787Y92573*
X172163Y92261*
X171537*
X170913Y92573*
X170600Y93198*
Y95073*
X170913Y95698*
X172787Y92573*
X175913Y95698D02*
X176537Y96011D01*
X177163*
X177787Y95698*
X178100Y95073*
X177787Y94448*
X177163Y94135*
X176537*
X177163D02*
X177787Y93823D01*
X178100Y93198*
X177787Y92573*
X177163Y92261*
X176537*
X175913Y92573*
X162824Y87430D02*
Y78966D01*
X168376*
Y87430*
X166584*
Y86446*
X164616*
Y87430*
X162824*
X164900Y118198D02*
X166300D01*
Y113198*
X164900*
Y118198*
X165050Y77548D02*
Y73848D01*
X166150*
Y77548*
X165050*
X165400Y136198D02*
X170800D01*
Y130198*
X165400*
Y136198*
X166300Y105698D02*
X164900D01*
Y110698*
X166300*
Y105698*
Y120698D02*
X164900D01*
Y125698*
X166300*
Y120698*
X165287Y236323D02*
X165600Y236635D01*
X165913Y237261*
Y238198*
X165600Y238823*
X165287Y239135*
X164663Y239448*
X163413*
X162787Y239135*
X162475Y238823*
X162163Y238198*
Y237261*
X162475Y236635*
X162787Y236323*
X165913Y231948D02*
Y234448D01*
X163725Y232261*
X163100Y231948*
X162475Y232261*
X162163Y232885*
Y233823*
X162475Y234448*
X165600Y229135D02*
X165913Y228511D01*
Y227885*
X165600Y227261*
X164975Y226948*
X163100*
X162475Y227261*
X162163Y227885*
Y228511*
X162475Y229135*
X163100Y229448*
X164975*
X165600Y229135*
X162475Y227261*
X165600Y224135D02*
X165913Y223511D01*
Y222885*
X165600Y222261*
X164975Y221948*
X164350Y222261*
X164037Y222885*
Y223511*
Y222885D02*
X163725Y222261D01*
X163100Y221948*
X162475Y222261*
X162163Y222885*
Y223511*
X162475Y224135*
X173100Y204761D02*
Y201011D01*
X174975*
X175600Y201323*
X175913Y201635*
X176225Y202261*
Y203511*
X175913Y204135*
X175600Y204448*
X174975Y204761*
X173100*
X180600D02*
X178100D01*
X180287Y202573*
X180600Y201948*
X180287Y201323*
X179663Y201011*
X178725*
X178100Y201323*
X183413Y204448D02*
X184037Y204761D01*
X184663*
X185287Y204448*
X185600Y203823*
Y201948*
X185287Y201323*
X184663Y201011*
X184037*
X183413Y201323*
X183100Y201948*
Y203823*
X183413Y204448*
X185287Y201323*
X188725Y204761D02*
X189975D01*
X189350D02*
Y201011D01*
X188725Y201635*
X173100Y231311D02*
Y227561D01*
X174975*
X175600Y227873*
X175913Y228185*
X176225Y228811*
Y230061*
X175913Y230685*
X175600Y230998*
X174975Y231311*
X173100*
X180600D02*
X178100D01*
X180287Y229123*
X180600Y228498*
X180287Y227873*
X179663Y227561*
X178725*
X178100Y227873*
X183413Y230998D02*
X184037Y231311D01*
X184663*
X185287Y230998*
X185600Y230373*
Y228498*
X185287Y227873*
X184663Y227561*
X184037*
X183413Y227873*
X183100Y228498*
Y230373*
X183413Y230998*
X185287Y227873*
X190600Y231311D02*
X188100D01*
X190287Y229123*
X190600Y228498*
X190287Y227873*
X189663Y227561*
X188725*
X188100Y227873*
X174498Y110678D02*
X186702D01*
Y120718*
X174498*
Y116682*
X175482*
Y114714*
X174498*
Y110678*
X175287Y152573D02*
X175600Y152885D01*
X175913Y153511*
Y154448*
X175600Y155073*
X175287Y155385*
X174663Y155698*
X173413*
X172787Y155385*
X172475Y155073*
X172163Y154448*
Y153511*
X172475Y152885*
X172787Y152573*
X175913Y150073D02*
Y148823D01*
Y149448D02*
X172163D01*
X172787Y150073*
X175600Y145385D02*
X175913Y144761D01*
Y144135*
X175600Y143511*
X174975Y143198*
X173100*
X172475Y143511*
X172163Y144135*
Y144761*
X172475Y145385*
X173100Y145698*
X174975*
X175600Y145385*
X172475Y143511*
X175913Y140698D02*
X172163Y138198D01*
Y140698*
X177496Y83898D02*
Y82498D01*
X172496*
Y83898*
X177496*
X180600Y352261D02*
Y348511D01*
X182787*
X183413Y348823*
X183725Y349448*
X183413Y350073*
X182787Y350385*
X180600*
X182787D02*
X183725Y352261D01*
X188100D02*
X185600D01*
X187787Y350073*
X188100Y349448*
X187787Y348823*
X187163Y348511*
X186225*
X185600Y348823*
X190913Y351948D02*
X191537Y352261D01*
X192163*
X192787Y351948*
X193100Y351323*
Y349448*
X192787Y348823*
X192163Y348511*
X191537*
X190913Y348823*
X190600Y349448*
Y351323*
X190913Y351948*
X192787Y348823*
X196537Y350385D02*
X197163D01*
X197787Y350073*
X198100Y349448*
X197787Y348823*
X197163Y348511*
X196537*
X195913Y348823*
X195600Y349448*
X195913Y350073*
X196537Y350385*
X195913Y350698*
X195600Y351323*
X195913Y351948*
X196537Y352261*
X197163*
X197787Y351948*
X198100Y351323*
X197787Y350698*
X197163Y350385*
X182352Y212224D02*
Y206712D01*
Y225974D02*
Y220462D01*
X182163Y373198D02*
X178413D01*
Y371011*
X178725Y370385*
X179350Y370073*
X179975Y370385*
X180287Y371011*
Y373198*
Y371011D02*
X182163Y370073D01*
Y365698D02*
Y368198D01*
X179975Y366011*
X179350Y365698*
X178725Y366011*
X178413Y366635*
Y367573*
X178725Y368198*
X181850Y362885D02*
X182163Y362261D01*
Y361635*
X181850Y361011*
X181225Y360698*
X179350*
X178725Y361011*
X178413Y361635*
Y362261*
X178725Y362885*
X179350Y363198*
X181225*
X181850Y362885*
X178725Y361011*
X182163Y357261D02*
X181850Y356635D01*
X181225Y356011*
X180287Y355698*
X179350*
X178725Y356011*
X178413Y356635*
Y357261*
X178725Y357885*
X179350Y358198*
X179975Y357885*
X180287Y357261*
Y356635*
X179975Y356011*
X179350Y355698*
X187475Y141635D02*
X187163Y141948D01*
X186537Y142261*
X185600*
X184975Y141948*
X184663Y141635*
X184350Y141011*
Y139761*
X184663Y139135*
X184975Y138823*
X185600Y138511*
X186537*
X187163Y138823*
X187475Y139135*
X189975Y142261D02*
X191225D01*
X190600D02*
Y138511D01*
X189975Y139135*
X194663Y141948D02*
X195287Y142261D01*
X195913*
X196537Y141948*
X196850Y141323*
Y139448*
X196537Y138823*
X195913Y138511*
X195287*
X194663Y138823*
X194350Y139448*
Y141323*
X194663Y141948*
X196537Y138823*
X199350Y141948D02*
X199975Y142261D01*
X200913*
X201537Y141948*
X201850Y141323*
Y141011*
X201537Y140385*
X200913Y140073*
X199350*
Y138511*
X201850*
X184037Y89473D02*
X184350Y89785D01*
X184663Y90411*
Y91348*
X184350Y91973*
X184037Y92285*
X183413Y92598*
X182163*
X181537Y92285*
X181225Y91973*
X180913Y91348*
Y90411*
X181225Y89785*
X181537Y89473*
X184663Y85098D02*
Y87598D01*
X182475Y85411*
X181850Y85098*
X181225Y85411*
X180913Y86035*
Y86973*
X181225Y87598*
X184663Y81973D02*
Y80723D01*
Y81348D02*
X180913D01*
X181537Y81973*
X184350Y77285D02*
X184663Y76661D01*
Y76035*
X184350Y75411*
X183725Y75098*
X183100Y75411*
X182787Y76035*
Y76661*
Y76035D02*
X182475Y75411D01*
X181850Y75098*
X181225Y75411*
X180913Y76035*
Y76661*
X181225Y77285*
X187883Y206495D02*
X173317D01*
Y212401*
X187883*
Y206495*
Y220245D02*
X173317D01*
Y226151*
X187883*
Y220245*
X188100Y117261D02*
Y120073D01*
X188413Y120698*
X189037Y121011*
X190287*
X190913Y120698*
X191225Y120073*
Y117261*
X193725Y121011D02*
X194975D01*
X194350D02*
Y117261D01*
X193725Y117885*
X198413Y120698D02*
X199037Y121011D01*
X199663*
X200287Y120698*
X200600Y120073*
Y118198*
X200287Y117573*
X199663Y117261*
X199037*
X198413Y117573*
X198100Y118198*
Y120073*
X198413Y120698*
X200287Y117573*
X205600Y121011D02*
X203100D01*
X205287Y118823*
X205600Y118198*
X205287Y117573*
X204663Y117261*
X203725*
X203100Y117573*
X188202Y106337D02*
Y107737D01*
X193202*
Y106337*
X188202*
X189170Y366398D02*
Y364998D01*
X184170*
Y366398*
X189170*
X190913Y324448D02*
X187163D01*
Y322261*
X187475Y321635*
X188100Y321323*
X188725Y321635*
X189037Y322261*
Y324448*
Y322261D02*
X190913Y321323D01*
Y316948D02*
Y319448D01*
X188725Y317261*
X188100Y316948*
X187475Y317261*
X187163Y317885*
Y318823*
X187475Y319448*
X190913Y313823D02*
Y312573D01*
Y313198D02*
X187163D01*
X187787Y313823*
X190600Y309135D02*
X190913Y308511D01*
Y307885*
X190600Y307261*
X189975Y306948*
X188100*
X187475Y307261*
X187163Y307885*
Y308511*
X187475Y309135*
X188100Y309448*
X189975*
X190600Y309135*
X187475Y307261*
X190913Y344448D02*
X187163D01*
Y342261*
X187475Y341635*
X188100Y341323*
X188725Y341635*
X189037Y342261*
Y344448*
Y342261D02*
X190913Y341323D01*
Y336948D02*
Y339448D01*
X188725Y337261*
X188100Y336948*
X187475Y337261*
X187163Y337885*
Y338823*
X187475Y339448*
X190913Y333823D02*
Y332573D01*
Y333198D02*
X187163D01*
X187787Y333823*
X190913Y328823D02*
Y327573D01*
Y328198D02*
X187163D01*
X187787Y328823*
X193100Y315498D02*
Y316898D01*
X198100*
Y315498*
X193100*
X193300Y130198D02*
X187900D01*
Y136198*
X193300*
Y130198*
X196850Y353198D02*
Y356948D01*
X198100Y336898D02*
Y335498D01*
X193100*
Y336898*
X198100*
X199170Y366398D02*
Y364998D01*
X194170*
Y366398*
X199170*
X197787Y112573D02*
X198100Y112885D01*
X198413Y113511*
Y114448*
X198100Y115073*
X197787Y115385*
X197163Y115698*
X195913*
X195287Y115385*
X194975Y115073*
X194663Y114448*
Y113511*
X194975Y112885*
X195287Y112573*
X198413Y110073D02*
Y108823D01*
Y109448D02*
X194663D01*
X195287Y110073*
X198100Y105385D02*
X198413Y104761D01*
Y104135*
X198100Y103511*
X197475Y103198*
X195600*
X194975Y103511*
X194663Y104135*
Y104761*
X194975Y105385*
X195600Y105698*
X197475*
X198100Y105385*
X194975Y103511*
X197475Y100698D02*
X196850Y100385D01*
X196537Y99761*
Y99135*
X196850Y98511*
X197475Y98198*
X198100Y98511*
X198413Y99135*
Y99761*
X198100Y100385*
X197475Y100698*
X196537*
X195600Y100385*
X194975Y99761*
X194663Y99135*
X209170Y366398D02*
Y364998D01*
X204170*
Y366398*
X209170*
X213100Y326898D02*
Y325498D01*
X208100*
Y326898*
X213100*
X212163Y356948D02*
X208413D01*
Y354761*
X208725Y354135*
X209350Y353823*
X209975Y354135*
X210287Y354761*
Y356948*
Y354761D02*
X212163Y353823D01*
Y349448D02*
Y351948D01*
X209975Y349761*
X209350Y349448*
X208725Y349761*
X208413Y350385*
Y351323*
X208725Y351948*
X211850Y346635D02*
X212163Y346011D01*
Y345385*
X211850Y344761*
X211225Y344448*
X209350*
X208725Y344761*
X208413Y345385*
Y346011*
X208725Y346635*
X209350Y346948*
X211225*
X211850Y346635*
X208725Y344761*
X212163Y341948D02*
X208413Y339448D01*
Y341948*
X219170Y366398D02*
Y364998D01*
X214170*
Y366398*
X219170*
X218413Y356948D02*
X214663D01*
Y354761*
X214975Y354135*
X215600Y353823*
X216225Y354135*
X216537Y354761*
Y356948*
Y354761D02*
X218413Y353823D01*
Y349448D02*
Y351948D01*
X216225Y349761*
X215600Y349448*
X214975Y349761*
X214663Y350385*
Y351323*
X214975Y351948*
X218100Y346635D02*
X218413Y346011D01*
Y345385*
X218100Y344761*
X217475Y344448*
X215600*
X214975Y344761*
X214663Y345385*
Y346011*
X214975Y346635*
X215600Y346948*
X217475*
X218100Y346635*
X214975Y344761*
X217475Y341948D02*
X216850Y341635D01*
X216537Y341011*
Y340385*
X216850Y339761*
X217475Y339448*
X218100Y339761*
X218413Y340385*
Y341011*
X218100Y341635*
X217475Y341948*
X216537*
X215600Y341635*
X214975Y341011*
X214663Y340385*
X222150Y352261D02*
Y348511D01*
X224337*
X224963Y348823*
X225275Y349448*
X224963Y350073*
X224337Y350385*
X222150*
X224337D02*
X225275Y352261D01*
X227775D02*
X229025D01*
X228400D02*
Y348511D01*
X227775Y349135*
X232775Y352261D02*
X234025D01*
X233400D02*
Y348511D01*
X232775Y349135*
X238087Y352261D02*
X238713Y351948D01*
X239337Y351323*
X239650Y350385*
Y349448*
X239337Y348823*
X238713Y348511*
X238087*
X237463Y348823*
X237150Y349448*
X237463Y350073*
X238087Y350385*
X238713*
X239337Y350073*
X239650Y349448*
X221537Y331323D02*
X221850Y331635D01*
X222163Y332261*
Y333198*
X221850Y333823*
X221537Y334135*
X220913Y334448*
X219663*
X219037Y334135*
X218725Y333823*
X218413Y333198*
Y332261*
X218725Y331635*
X219037Y331323*
X222163Y326948D02*
Y329448D01*
X219975Y327261*
X219350Y326948*
X218725Y327261*
X218413Y327885*
Y328823*
X218725Y329448*
X221850Y324135D02*
X222163Y323511D01*
Y322885*
X221850Y322261*
X221225Y321948*
X219350*
X218725Y322261*
X218413Y322885*
Y323511*
X218725Y324135*
X219350Y324448*
X221225*
X221850Y324135*
X218725Y322261*
X221850Y319448D02*
X222163Y318823D01*
Y317885*
X221850Y317261*
X221225Y316948*
X220913*
X220287Y317261*
X219975Y317885*
Y319448*
X218413*
Y316948*
X230970Y393198D02*
X232370D01*
Y388198*
X230970*
Y393198*
X232370Y355698D02*
X230970D01*
Y360698*
X232370*
Y355698*
X238725Y397885D02*
X238413Y398198D01*
X237787Y398511*
X236850*
X236225Y398198*
X235913Y397885*
X235600Y397261*
Y396011*
X235913Y395385*
X236225Y395073*
X236850Y394761*
X237787*
X238413Y395073*
X238725Y395385*
X241225Y398511D02*
X242475D01*
X241850D02*
Y394761D01*
X241225Y395385*
X246225Y398511D02*
X247475D01*
X246850D02*
Y394761D01*
X246225Y395385*
X252163Y398511D02*
Y394761D01*
X250600Y397261*
X253100*
X237985Y362867D02*
Y373529D01*
X225355*
Y362867*
X231178*
Y363359*
X232162*
Y362867*
X237985*
X239350Y368511D02*
Y367261D01*
X239663Y366635*
X239975Y366323*
X240600Y366011*
X241225*
X241850Y366323*
X242163Y366635*
X242475Y367261*
Y368511*
X242163Y369135*
X241850Y369448*
X241225Y369761*
X240600*
X239975Y369448*
X239663Y369135*
X239350Y368511*
X241537Y368823D02*
X242475Y369761D01*
X244975D02*
X246225D01*
X245600D02*
Y366011D01*
X244975Y366635*
X249663Y369448D02*
X250287Y369761D01*
X250913*
X251537Y369448*
X251850Y368823*
Y366948*
X251537Y366323*
X250913Y366011*
X250287*
X249663Y366323*
X249350Y366948*
Y368823*
X249663Y369448*
X251537Y366323*
X254350Y369761D02*
X256850Y366011D01*
X254350*
X246225Y205385D02*
X245913Y205698D01*
X245287Y206011*
X244350*
X243725Y205698*
X243413Y205385*
X243100Y204761*
Y203511*
X243413Y202885*
X243725Y202573*
X244350Y202261*
X245287*
X245913Y202573*
X246225Y202885*
X250600Y206011D02*
X248100D01*
X250287Y203823*
X250600Y203198*
X250287Y202573*
X249663Y202261*
X248725*
X248100Y202573*
X253413Y205698D02*
X254037Y206011D01*
X254663*
X255287Y205698*
X255600Y205073*
Y203198*
X255287Y202573*
X254663Y202261*
X254037*
X253413Y202573*
X253100Y203198*
Y205073*
X253413Y205698*
X255287Y202573*
X258100Y205073D02*
X258413Y204448D01*
X259037Y204135*
X259663*
X260287Y204448*
X260600Y205073*
X260287Y205698*
X259663Y206011*
X259037*
X258413Y205698*
X258100Y205073*
Y204135*
X258413Y203198*
X259037Y202573*
X259663Y202261*
X242787Y186948D02*
X243100Y186635D01*
X243413Y186011*
X243100Y185385*
X242787Y185073*
X239663*
Y184448*
Y185073D02*
Y186323D01*
X243413Y181948D02*
X239663D01*
X241537Y180385*
X239663Y178823*
X243413*
Y176948D02*
X239663D01*
Y174761*
X239975Y174135*
X240600Y173823*
X241225Y174135*
X241537Y174761*
Y176948*
X243413Y171323D02*
Y170073D01*
Y170698D02*
X239663D01*
X240287Y171323*
X243100Y166635D02*
X243413Y166011D01*
Y165385*
X243100Y164761*
X242475Y164448*
X240600*
X239975Y164761*
X239663Y165385*
Y166011*
X239975Y166635*
X240600Y166948*
X242475*
X243100Y166635*
X239975Y164761*
X243413Y161948D02*
X239663Y159448D01*
Y161948*
X251100Y180898D02*
Y175498D01*
X245100*
Y180898*
X251100*
X251150Y196948D02*
X252550D01*
Y191948*
X251150*
Y196948*
X258600Y180898D02*
Y175498D01*
X252600*
Y180898*
X258600*
X264037Y186948D02*
X264350Y186635D01*
X264663Y186011*
X264350Y185385*
X264037Y185073*
X260913*
Y184448*
Y185073D02*
Y186323D01*
X264663Y181948D02*
X260913D01*
X262787Y180385*
X260913Y178823*
X264663*
Y176948D02*
X260913D01*
Y174761*
X261225Y174135*
X261850Y173823*
X262475Y174135*
X262787Y174761*
Y176948*
X264663Y171323D02*
Y170073D01*
Y170698D02*
X260913D01*
X261537Y171323*
X264350Y166635D02*
X264663Y166011D01*
Y165385*
X264350Y164761*
X263725Y164448*
X261850*
X261225Y164761*
X260913Y165385*
Y166011*
X261225Y166635*
X261850Y166948*
X263725*
X264350Y166635*
X261225Y164761*
X262787Y161011D02*
Y160385D01*
X262475Y159761*
X261850Y159448*
X261225Y159761*
X260913Y160385*
Y161011*
X261225Y161635*
X261850Y161948*
X262475Y161635*
X262787Y161011*
X263100Y161635*
X263725Y161948*
X264350Y161635*
X264663Y161011*
Y160385*
X264350Y159761*
X263725Y159448*
X263100Y159761*
X262787Y160385*
X265287Y205073D02*
X265600Y205385D01*
X265913Y206011*
Y206948*
X265600Y207573*
X265287Y207885*
X264663Y208198*
X263413*
X262787Y207885*
X262475Y207573*
X262163Y206948*
Y206011*
X262475Y205385*
X262787Y205073*
X265913Y200698D02*
Y203198D01*
X263725Y201011*
X263100Y200698*
X262475Y201011*
X262163Y201635*
Y202573*
X262475Y203198*
X265600Y197885D02*
X265913Y197261D01*
Y196635*
X265600Y196011*
X264975Y195698*
X263100*
X262475Y196011*
X262163Y196635*
Y197261*
X262475Y197885*
X263100Y198198*
X264975*
X265600Y197885*
X262475Y196011*
X265913Y192261D02*
X265600Y191635D01*
X264975Y191011*
X264037Y190698*
X263100*
X262475Y191011*
X262163Y191635*
Y192261*
X262475Y192885*
X263100Y193198*
X263725Y192885*
X264037Y192261*
Y191635*
X263725Y191011*
X263100Y190698*
X273725Y212885D02*
X273413Y213198D01*
X272787Y213511*
X271850*
X271225Y213198*
X270913Y212885*
X270600Y212261*
Y211011*
X270913Y210385*
X271225Y210073*
X271850Y209761*
X272787*
X273413Y210073*
X273725Y210385*
X278100Y213511D02*
X275600D01*
X277787Y211323*
X278100Y210698*
X277787Y210073*
X277163Y209761*
X276225*
X275600Y210073*
X281225Y213511D02*
X282475D01*
X281850D02*
Y209761D01*
X281225Y210385*
X286225Y213511D02*
X287475D01*
X286850D02*
Y209761D01*
X286225Y210385*
X275600Y178198D02*
Y181948D01*
X278100Y184448*
X274037Y178823D02*
X274350Y179135D01*
X274663Y179761*
Y180698*
X274350Y181323*
X274037Y181635*
X273413Y181948*
X272163*
X271537Y181635*
X271225Y181323*
X270913Y180698*
Y179761*
X271225Y179135*
X271537Y178823*
X274663Y174448D02*
Y176948D01*
X272475Y174761*
X271850Y174448*
X271225Y174761*
X270913Y175385*
Y176323*
X271225Y176948*
X274350Y171635D02*
X274663Y171011D01*
Y170385*
X274350Y169761*
X273725Y169448*
X271850*
X271225Y169761*
X270913Y170385*
Y171011*
X271225Y171635*
X271850Y171948*
X273725*
X274350Y171635*
X271225Y169761*
X274663Y166948D02*
X270913Y164448D01*
Y166948*
X278160Y197998D02*
X283560D01*
Y191998*
X278160*
Y197998*
Y205298D02*
X283560D01*
Y199298*
X278160*
Y205298*
X279350Y167261D02*
Y170073D01*
X279663Y170698*
X280287Y171011*
X281537*
X282163Y170698*
X282475Y170073*
Y167261*
X286850Y171011D02*
X284350D01*
X286537Y168823*
X286850Y168198*
X286537Y167573*
X285913Y167261*
X284975*
X284350Y167573*
X289663Y170698D02*
X290287Y171011D01*
X290913*
X291537Y170698*
X291850Y170073*
Y168198*
X291537Y167573*
X290913Y167261*
X290287*
X289663Y167573*
X289350Y168198*
Y170073*
X289663Y170698*
X291537Y167573*
X296850Y171011D02*
X294350D01*
X296537Y168823*
X296850Y168198*
X296537Y167573*
X295913Y167261*
X294975*
X294350Y167573*
X281635Y184198D02*
Y175190D01*
X293084*
Y184198*
X287860*
Y183698*
X286860*
Y184198*
X281635*
X282400Y190698D02*
X283800D01*
Y185698*
X282400*
Y190698*
X299800Y185698D02*
X298400D01*
Y190698*
X299800*
Y185698*
X303725Y182885D02*
X303413Y183198D01*
X302787Y183511*
X301850*
X301225Y183198*
X300913Y182885*
X300600Y182261*
Y181011*
X300913Y180385*
X301225Y180073*
X301850Y179761*
X302787*
X303413Y180073*
X303725Y180385*
X308100Y183511D02*
X305600D01*
X307787Y181323*
X308100Y180698*
X307787Y180073*
X307163Y179761*
X306225*
X305600Y180073*
X310913Y183198D02*
X311537Y183511D01*
X312163*
X312787Y183198*
X313100Y182573*
Y180698*
X312787Y180073*
X312163Y179761*
X311537*
X310913Y180073*
X310600Y180698*
Y182573*
X310913Y183198*
X312787Y180073*
X316537Y181635D02*
X317163D01*
X317787Y181323*
X318100Y180698*
X317787Y180073*
X317163Y179761*
X316537*
X315913Y180073*
X315600Y180698*
X315913Y181323*
X316537Y181635*
X315913Y181948*
X315600Y182573*
X315913Y183198*
X316537Y183511*
X317163*
X317787Y183198*
X318100Y182573*
X317787Y181948*
X317163Y181635*
X304260Y191998D02*
X298860D01*
Y197998*
X304260*
Y191998*
Y199298D02*
X298860D01*
Y205298*
X304260*
Y199298*
X319975Y196635D02*
X319663Y196948D01*
X319037Y197261*
X318100*
X317475Y196948*
X317163Y196635*
X316850Y196011*
Y194761*
X317163Y194135*
X317475Y193823*
X318100Y193511*
X319037*
X319663Y193823*
X319975Y194135*
X324350Y197261D02*
X321850D01*
X324037Y195073*
X324350Y194448*
X324037Y193823*
X323413Y193511*
X322475*
X321850Y193823*
X327475Y197261D02*
X328725D01*
X328100D02*
Y193511D01*
X327475Y194135*
X332163Y196948D02*
X332787Y197261D01*
X333413*
X334037Y196948*
X334350Y196323*
Y194448*
X334037Y193823*
X333413Y193511*
X332787*
X332163Y193823*
X331850Y194448*
Y196323*
X332163Y196948*
X334037Y193823*
X319975Y204135D02*
X319663Y204448D01*
X319037Y204761*
X318100*
X317475Y204448*
X317163Y204135*
X316850Y203511*
Y202261*
X317163Y201635*
X317475Y201323*
X318100Y201011*
X319037*
X319663Y201323*
X319975Y201635*
X324350Y204761D02*
X321850D01*
X324037Y202573*
X324350Y201948*
X324037Y201323*
X323413Y201011*
X322475*
X321850Y201323*
X327475Y204761D02*
X328725D01*
X328100D02*
Y201011D01*
X327475Y201635*
X334350Y204761D02*
X331850D01*
X334037Y202573*
X334350Y201948*
X334037Y201323*
X333413Y201011*
X332475*
X331850Y201323*
D02*
D13*
X418710Y123434D02*
Y160835D01*
G75*
G02X424616Y166741I5906*
G01*
Y346899*
G75*
G02X391820Y379694J32795*
G01*
Y423198*
X33395*
X33395Y379694*
G75*
G02X600Y346898I-32795*
G01*
Y166741*
G75*
G02X6506Y160836J-5906*
G01*
Y123434*
G75*
G02X600Y117529I-5906*
G01*
Y79497*
G75*
G02X33395Y46702J-32795*
G01*
Y3198*
X391820*
Y46702*
G75*
G02X424616Y79497I32795*
G01*
Y117529*
G75*
G02X418710Y123434J5905*
G01*
X0Y0D02*
M02*
