G04 EasyPC Gerber Version 21.0.3 Build 4286 *
G04 #@! TF.Part,Single*
G04 #@! TF.FileFunction,Soldermask,Bot *
G04 #@! TF.FilePolarity,Negative *
%FSLAX35Y35*%
%MOIN*%
G04 #@! TA.AperFunction,ComponentPad*
%ADD84O,0.06899X0.10049*%
G04 #@! TA.AperFunction,SMDPad*
%ADD160R,0.01387X0.03750*%
G04 #@! TA.AperFunction,ComponentPad*
%ADD85O,0.11600X0.06600*%
G04 #@! TA.AperFunction,SMDPad*
%ADD159R,0.03750X0.01387*%
%ADD150R,0.03356X0.01506*%
%ADD152R,0.02254X0.03356*%
%ADD153R,0.02254X0.04537*%
%ADD156R,0.02372X0.06309*%
%ADD162R,0.02962X0.05324*%
%ADD157R,0.03750X0.04143*%
%ADD164R,0.04143X0.04143*%
%ADD151R,0.04143X0.06506*%
%ADD165R,0.02569X0.01702*%
%ADD167R,0.02962X0.02175*%
%ADD155R,0.04143X0.03750*%
%ADD163R,0.04143X0.04143*%
%ADD166R,0.04143X0.06899*%
%ADD168R,0.04891X0.04537*%
%ADD122R,0.06100X0.06600*%
%ADD123R,0.06600X0.06100*%
%ADD154R,0.09931X0.07883*%
G04 #@! TA.AperFunction,ComponentPad*
%ADD87R,0.06899X0.06899*%
%ADD86R,0.06900X0.06900*%
%ADD83R,0.07400X0.07400*%
G04 #@! TA.AperFunction,SMDPad*
%ADD161R,0.09852X0.09852*%
G04 #@! TD.AperFunction*
%ADD13C,0.00001*%
G04 #@! TA.AperFunction,SMDPad*
%ADD158C,0.01584*%
G04 #@! TA.AperFunction,ComponentPad*
%ADD82C,0.16348*%
G04 #@! TA.AperFunction,WasherPad*
%ADD81C,0.21600*%
%ADD80C,0.28200*%
X0Y0D02*
D02*
D13*
X418710Y123434D02*
Y160835D01*
G75*
G02X424616Y166741I5906*
G01*
Y346899*
G75*
G02X391820Y379694J32795*
G01*
Y423198*
X33395*
X33395Y379694*
G75*
G02X600Y346898I-32795*
G01*
Y166741*
G75*
G02X6506Y160836J-5906*
G01*
Y123434*
G75*
G02X600Y117529I-5906*
G01*
Y79497*
G75*
G02X33395Y46702J-32795*
G01*
Y3198*
X391820*
Y46702*
G75*
G02X424616Y79497I32795*
G01*
Y117529*
G75*
G02X418710Y123434J5905*
G01*
D02*
D80*
X19694Y102962D03*
Y213198D03*
Y323434D03*
X64970Y283434D03*
Y405481D03*
X209445Y158080D03*
Y197450D03*
Y236820D03*
X360246Y283434D03*
Y405481D03*
X405521Y102962D03*
Y213198D03*
Y323434D03*
D02*
D81*
X212608Y16348D03*
Y410048D03*
D02*
D82*
X110600Y71210D03*
Y260186D03*
X120600Y41210D03*
Y290186D03*
X130600Y71210D03*
Y260186D03*
D02*
D83*
X53100Y49332D03*
X63100D03*
X369466Y190698D03*
Y200698D03*
D02*
D84*
X86670Y380698D03*
X96670D03*
X106670D03*
X116670D03*
X126670D03*
X136670D03*
X146670D03*
X156670D03*
X166670D03*
X176670D03*
X186670D03*
X196670D03*
X206670D03*
X216670D03*
X226670D03*
X236670D03*
D02*
D85*
X38100Y250698D03*
Y260698D03*
Y270698D03*
Y280698D03*
Y290698D03*
Y300698D03*
D02*
D86*
X48100Y205698D03*
Y228198D03*
X58100Y205698D03*
Y228198D03*
X60825Y144498D03*
Y151898D03*
X71400Y107158D03*
X71850Y198998D03*
Y212398D03*
X74225Y144498D03*
Y151898D03*
X83900Y50698D03*
X84800Y107158D03*
X91400Y144498D03*
Y151898D03*
X97300Y50698D03*
X104800Y144498D03*
Y151898D03*
X125150Y108198D03*
Y123198D03*
Y140898D03*
Y148198D03*
Y155498D03*
X138550Y108198D03*
Y123198D03*
Y140898D03*
Y148198D03*
Y155498D03*
X161400Y133198D03*
X174800D03*
X183900D03*
X197300D03*
X248100Y171498D03*
Y184898D03*
X255600Y171498D03*
Y184898D03*
X274160Y194998D03*
Y202298D03*
X287560Y194998D03*
Y202298D03*
X294860Y194998D03*
Y202298D03*
X308260Y194998D03*
Y202298D03*
D02*
D87*
X203100Y311198D03*
Y321198D03*
Y331198D03*
Y341198D03*
D02*
D122*
X28100Y281198D03*
Y290198D03*
X53100Y61198D03*
Y70198D03*
Y83698D03*
Y92698D03*
X103100Y83698D03*
Y92698D03*
X116670Y361198D03*
Y370198D03*
X136670Y361198D03*
Y370198D03*
X140413Y223698D03*
Y232698D03*
X155787Y223698D03*
Y232698D03*
X174996Y78698D03*
Y87698D03*
X186670Y361198D03*
Y370198D03*
X190702Y102537D03*
Y111537D03*
X195600Y311698D03*
Y320698D03*
Y331698D03*
Y340698D03*
X196670Y361198D03*
Y370198D03*
X206670Y361198D03*
Y370198D03*
X210600Y321698D03*
Y330698D03*
X216670Y361198D03*
Y370198D03*
D02*
D123*
X53600Y108198D03*
Y115698D03*
Y123198D03*
X61100Y93198D03*
X62600Y108198D03*
Y115698D03*
Y123198D03*
X63025Y183198D03*
Y189698D03*
X70100Y93198D03*
X72025Y183198D03*
Y189698D03*
X86100Y93198D03*
X87170Y390698D03*
X93600Y108198D03*
Y115698D03*
Y123198D03*
Y170198D03*
Y176698D03*
Y183198D03*
Y189698D03*
Y213198D03*
Y219698D03*
Y226198D03*
X95100Y93198D03*
X96170Y390698D03*
X97170Y363198D03*
Y370698D03*
X102600Y108198D03*
Y115698D03*
Y123198D03*
Y170198D03*
Y176698D03*
Y183198D03*
Y189698D03*
Y213198D03*
Y219698D03*
Y226198D03*
X106170Y363198D03*
Y370698D03*
X107170Y390698D03*
X116170D03*
X124175Y170198D03*
Y182999D03*
Y189499D03*
X133175Y170198D03*
Y182999D03*
Y189499D03*
X133600Y215698D03*
X142600D03*
X146100Y50698D03*
X155100D03*
X161100Y108198D03*
Y115698D03*
Y123198D03*
X170100Y108198D03*
Y115698D03*
Y123198D03*
X227170Y358198D03*
Y390698D03*
X236170Y358198D03*
Y390698D03*
X247350Y194448D03*
X256350D03*
X278600Y188198D03*
X287600D03*
X294600D03*
X303600D03*
D02*
D150*
X73966Y112548D03*
Y114123D03*
Y115698D03*
Y117273D03*
Y118848D03*
X82234Y112548D03*
Y114123D03*
Y115698D03*
Y117273D03*
Y118848D03*
D02*
D151*
X78100Y115698D03*
D02*
D152*
X61761Y71604D03*
X64320D03*
X66880D03*
X69439D03*
X86761D03*
X89320D03*
X91880D03*
X94439D03*
X146761Y59793D03*
X149320D03*
X151880D03*
X154439D03*
D02*
D153*
X61761Y60383D03*
X64320D03*
X66880D03*
X69439D03*
X86761D03*
X89320D03*
X91880D03*
X94439D03*
X146761Y71013D03*
X149320D03*
X151880D03*
X154439D03*
D02*
D154*
X65600Y63631D03*
X90600D03*
X150600Y67765D03*
D02*
D155*
X148041Y79458D03*
X150600Y86938D03*
X153159Y79458D03*
D02*
D156*
X176761Y107037D03*
Y124359D03*
X179320Y107037D03*
Y124359D03*
X181880Y107037D03*
Y124359D03*
X184439Y107037D03*
Y124359D03*
D02*
D157*
X61860Y79261D03*
X65600Y87135D03*
X69340Y79261D03*
X86860D03*
X90600Y87135D03*
X94340Y79261D03*
X227930Y365639D03*
Y370757D03*
X235410Y368198D03*
D02*
D158*
X144186Y146230D03*
Y148198D03*
Y150167D03*
X146154Y146230D03*
Y148198D03*
Y150167D03*
D02*
D159*
X112726Y200974D03*
Y202548D03*
Y204123D03*
Y205698D03*
Y207273D03*
Y208848D03*
Y210422D03*
X128474Y200974D03*
Y202548D03*
Y204123D03*
Y205698D03*
Y207273D03*
Y208848D03*
Y210422D03*
D02*
D160*
X115876Y197824D03*
Y213572D03*
X117450Y197824D03*
Y213572D03*
X119025Y197824D03*
Y213572D03*
X120600Y197824D03*
Y213572D03*
X122175Y197824D03*
Y213572D03*
X123750Y197824D03*
Y213572D03*
X125324Y197824D03*
Y213572D03*
D02*
D161*
X120600Y205698D03*
D02*
D162*
X146328Y223296D03*
Y248100D03*
X149872Y223296D03*
Y248100D03*
D02*
D163*
X113387Y178474D03*
Y187922D03*
D02*
D164*
X175876Y209448D03*
Y223198D03*
X185324Y209448D03*
Y223198D03*
D02*
D165*
X283620Y176741D03*
Y178710D03*
Y180678D03*
Y182647D03*
X291100Y176741D03*
Y178710D03*
Y180678D03*
Y182647D03*
D02*
D166*
X287360Y179694D03*
D02*
D167*
X161663Y80639D03*
Y83198D03*
Y85757D03*
X169537Y80639D03*
Y83198D03*
Y85757D03*
D02*
D168*
X162100Y75698D03*
X169100D03*
X0Y0D02*
M02*
