G04 EasyPC Gerber Version 21.0.3 Build 4286 *
G04 #@! TF.Part,Single*
G04 #@! TF.FileFunction,Soldermask,Top *
G04 #@! TF.FilePolarity,Negative *
%FSLAX35Y35*%
%MOIN*%
G04 #@! TA.AperFunction,ComponentPad*
%ADD19O,0.06899X0.10049*%
%ADD20R,0.06899X0.06899*%
%ADD71R,0.06900X0.06900*%
%ADD18R,0.07400X0.07400*%
G04 #@! TD.AperFunction*
%ADD10C,0.01200*%
G04 #@! TA.AperFunction,ComponentPad*
%ADD17C,0.16348*%
G04 #@! TA.AperFunction,WasherPad*
%ADD16C,0.21600*%
%ADD15C,0.28200*%
G04 #@! TA.AperFunction,ComponentPad*
%ADD70O,0.11600X0.06600*%
X0Y0D02*
D02*
D10*
X418710Y123434D02*
Y160835D01*
G75*
G02X424616Y166741I5906*
G01*
Y346899*
G75*
G02X391820Y379694J32795*
G01*
Y423198*
X33395*
X33395Y379694*
G75*
G02X600Y346898I-32795*
G01*
Y166741*
G75*
G02X6506Y160836J-5906*
G01*
Y123434*
G75*
G02X600Y117529I-5906*
G01*
Y79497*
G75*
G02X33395Y46702J-32795*
G01*
Y3198*
X391820*
Y46702*
G75*
G02X424616Y79497I32795*
G01*
Y117529*
G75*
G02X418710Y123434J5905*
G01*
D02*
D15*
X19694Y102962D03*
Y213198D03*
Y323434D03*
X64970Y283434D03*
Y405481D03*
X209445Y158080D03*
Y197450D03*
Y236820D03*
X360246Y283434D03*
Y405481D03*
X405521Y102962D03*
Y213198D03*
Y323434D03*
D02*
D16*
X212608Y16348D03*
Y410048D03*
D02*
D17*
X110600Y71210D03*
Y260186D03*
X120600Y41210D03*
Y290186D03*
X130600Y71210D03*
Y260186D03*
D02*
D18*
X53100Y49332D03*
X63100D03*
X369466Y190698D03*
Y200698D03*
D02*
D19*
X86670Y380698D03*
X96670D03*
X106670D03*
X116670D03*
X126670D03*
X136670D03*
X146670D03*
X156670D03*
X166670D03*
X176670D03*
X186670D03*
X196670D03*
X206670D03*
X216670D03*
X226670D03*
X236670D03*
D02*
D70*
X38100Y250698D03*
Y260698D03*
Y270698D03*
Y280698D03*
Y290698D03*
Y300698D03*
D02*
D71*
X48100Y205698D03*
Y228198D03*
X58100Y205698D03*
Y228198D03*
D02*
D20*
X203100Y311198D03*
Y321198D03*
Y331198D03*
Y341198D03*
X0Y0D02*
M02*
