G04 EasyPC Gerber Version 21.0.3 Build 4286 *
G04 #@! TF.Part,Single*
G04 #@! TF.FileFunction,Copper,L1,Top *
G04 #@! TF.FilePolarity,Positive *
%FSLAX35Y35*%
%MOIN*%
G04 #@! TA.AperFunction,ComponentPad*
%ADD92O,0.06299X0.09449*%
%ADD93O,0.11000X0.06000*%
%ADD95R,0.06299X0.06299*%
%ADD94R,0.06300X0.06300*%
%ADD91R,0.06800X0.06800*%
G04 #@! TD.AperFunction*
%ADD13C,0.00001*%
%ADD10C,0.00500*%
%ADD97C,0.00800*%
%ADD11C,0.01200*%
G04 #@! TA.AperFunction,ViaPad*
%ADD96C,0.02800*%
G04 #@! TA.AperFunction,ComponentPad*
%ADD90C,0.15748*%
G04 #@! TA.AperFunction,WasherPad*
%ADD89C,0.21000*%
%ADD88C,0.27600*%
X0Y0D02*
D02*
D10*
X55600Y49898D02*
X58100D01*
Y48848*
X55600*
Y49898*
G36*
X58100*
Y48848*
X55600*
Y49898*
G37*
X57550Y43198D02*
Y55698D01*
X58600*
Y43198*
X57550*
G36*
Y55698*
X58600*
Y43198*
X57550*
G37*
X363100Y196198D02*
X375600D01*
Y195148*
X363100*
Y196198*
G36*
X375600*
Y195148*
X363100*
Y196198*
G37*
D02*
D11*
X3800Y114909D02*
Y85698D01*
X38100*
Y120698*
X9285*
G75*
G02X3800Y114909I-8685J2736*
G01*
G36*
Y85698*
X38100*
Y120698*
X9285*
G75*
G02X3800Y114909I-8685J2736*
G01*
G37*
Y230698D02*
Y195698D01*
X38100*
Y230698*
X3800*
G36*
Y195698*
X38100*
Y230698*
X3800*
G37*
Y340698D02*
Y305698D01*
X38100*
Y340698*
X3800*
G36*
Y305698*
X38100*
Y340698*
X3800*
G37*
X33200Y280698D02*
X31002D01*
X35561Y278159D02*
X33848Y276446D01*
X35561Y283237D02*
X33848Y284950D01*
X38100Y278298D02*
Y276100D01*
Y283098D02*
Y285296D01*
X40639Y278159D02*
X42352Y276446D01*
X40639Y283237D02*
X42352Y284950D01*
X43000Y280698D02*
X45198D01*
X45374Y202972D02*
X43350Y200948D01*
X45374Y208424D02*
X43350Y210448D01*
X45374Y225472D02*
X43350Y223448D01*
X45374Y230924D02*
X43350Y232948D01*
X45550Y205698D02*
X43350D01*
X45550Y228198D02*
X43350D01*
X48100Y203148D02*
Y200948D01*
Y208248D02*
Y210448D01*
Y225648D02*
Y223448D01*
Y230748D02*
Y232948D01*
Y300698D02*
Y265698D01*
X83100*
Y300698*
X48100*
G36*
Y265698*
X83100*
Y300698*
X48100*
G37*
Y419998D02*
Y388198D01*
X83100*
Y419998*
X48100*
G36*
Y388198*
X83100*
Y419998*
X48100*
G37*
X50124Y46356D02*
X48100Y44332D01*
X50124Y52307D02*
X48100Y54332D01*
X50300Y49332D02*
X48100D01*
X50650Y205698D02*
X52850D01*
X50650Y228198D02*
X52850D01*
X50826Y202972D02*
X52850Y200948D01*
X50826Y208424D02*
X52850Y210448D01*
X50826Y225472D02*
X52850Y223448D01*
X50826Y230924D02*
X52850Y232948D01*
X51770Y405481D02*
X49570D01*
X53100Y46532D02*
Y44332D01*
Y52132D02*
Y54332D01*
X55636Y396147D02*
X54081Y394592D01*
X55636Y414815D02*
X54081Y416370D01*
X64970Y392281D02*
Y390081D01*
X74304Y396147D02*
X75859Y394592D01*
X74304Y414815D02*
X75859Y416370D01*
X78170Y405481D02*
X80370D01*
X84120Y380698D02*
X81919D01*
X84224Y378252D02*
X82617Y376645D01*
X84224Y383144D02*
X82617Y384752D01*
X86670Y376574D02*
Y374373D01*
Y384822D02*
Y387023D01*
X89117Y378252D02*
X90722Y376646D01*
X89117Y383144D02*
X90722Y384750D01*
X89220Y380698D02*
X91419D01*
X103326Y260186D02*
X101126D01*
X105457Y255043D02*
X103901Y253487D01*
X105457Y265330D02*
X103901Y266885D01*
X110600Y252912D02*
Y250712D01*
Y267460D02*
Y269660D01*
X113326Y290186D02*
X111126D01*
X115457Y285043D02*
X113901Y283487D01*
X115457Y295330D02*
X113901Y296885D01*
X115743Y255043D02*
X117299Y253487D01*
X115743Y265330D02*
X117299Y266885D01*
X117874Y260186D02*
X120074D01*
X120600Y282912D02*
Y280712D01*
Y297460D02*
Y299660D01*
X123326Y260186D02*
X121126D01*
X124120Y380698D02*
X121919D01*
X124224Y378252D02*
X122617Y376645D01*
X124224Y383144D02*
X122617Y384752D01*
X125457Y255043D02*
X123901Y253487D01*
X125457Y265330D02*
X123901Y266885D01*
X125743Y285043D02*
X127299Y283487D01*
X125743Y295330D02*
X127299Y296885D01*
X126670Y376574D02*
Y374373D01*
Y384822D02*
Y387023D01*
X127874Y290186D02*
X130074D01*
X129117Y378252D02*
X130722Y376646D01*
X129117Y383144D02*
X130722Y384750D01*
X129220Y380698D02*
X131419D01*
X130600Y252912D02*
Y250712D01*
Y267460D02*
Y269660D01*
X135743Y255043D02*
X137299Y253487D01*
X135743Y265330D02*
X137299Y266885D01*
X137874Y260186D02*
X140074D01*
X144120Y380698D02*
X141919D01*
X144224Y378252D02*
X142617Y376645D01*
X144224Y383144D02*
X142617Y384752D01*
X146670Y376574D02*
Y374373D01*
Y384822D02*
Y387023D01*
X149117Y378252D02*
X150722Y376646D01*
X149117Y383144D02*
X150722Y384750D01*
X149220Y380698D02*
X151419D01*
X154120D02*
X151919D01*
X154224Y378252D02*
X152617Y376645D01*
X154224Y383144D02*
X152617Y384752D01*
X156670Y376574D02*
Y374373D01*
Y384822D02*
Y387023D01*
X159117Y378252D02*
X160722Y376646D01*
X159117Y383144D02*
X160722Y384750D01*
X159220Y380698D02*
X161419D01*
X164120D02*
X161919D01*
X164224Y378252D02*
X162617Y376645D01*
X164224Y383144D02*
X162617Y384752D01*
X166670Y376574D02*
Y374373D01*
Y384822D02*
Y387023D01*
X169117Y378252D02*
X170722Y376646D01*
X169117Y383144D02*
X170722Y384750D01*
X169220Y380698D02*
X171419D01*
X174120D02*
X171919D01*
X174224Y378252D02*
X172617Y376645D01*
X174224Y383144D02*
X172617Y384752D01*
X176670Y376574D02*
Y374373D01*
Y384822D02*
Y387023D01*
X179117Y378252D02*
X180722Y376646D01*
X179117Y383144D02*
X180722Y384750D01*
X179220Y380698D02*
X181419D01*
X190600Y255698D02*
Y140698D01*
X228100*
Y255698*
X190600*
G36*
Y140698*
X228100*
Y255698*
X190600*
G37*
X195600Y38198D02*
Y6398D01*
X230600*
Y38198*
X195600*
G36*
Y6398*
X230600*
Y38198*
X195600*
G37*
Y419998D02*
Y388198D01*
X230600*
Y419998*
X195600*
G36*
Y388198*
X230600*
Y419998*
X195600*
G37*
X200375Y328473D02*
X198352Y326450D01*
X200375Y333923D02*
X198352Y335946D01*
X200550Y331198D02*
X198352D01*
X202708Y16348D02*
X200508D01*
X202708Y410048D02*
X200508D01*
X203100Y328648D02*
Y326450D01*
Y333748D02*
Y335946D01*
X205607Y9348D02*
X204052Y7792D01*
X205607Y23348D02*
X204052Y24904D01*
X205607Y403048D02*
X204052Y401492D01*
X205607Y417048D02*
X204052Y418604D01*
X205650Y331198D02*
X207848D01*
X205825Y328473D02*
X207848Y326450D01*
X205825Y333923D02*
X207848Y335946D01*
X212608Y26248D02*
Y28448D01*
Y400148D02*
Y397948D01*
X219608Y9348D02*
X221164Y7792D01*
X219608Y23348D02*
X221164Y24904D01*
X219608Y403048D02*
X221164Y401492D01*
X219608Y417048D02*
X221164Y418604D01*
X222508Y16348D02*
X224708D01*
X222508Y410048D02*
X224708D01*
X343100Y300698D02*
Y265698D01*
X378100*
Y300698*
X343100*
G36*
Y265698*
X378100*
Y300698*
X343100*
G37*
Y419998D02*
Y388198D01*
X378100*
Y419998*
X343100*
G36*
Y388198*
X378100*
Y419998*
X343100*
G37*
X347046Y405481D02*
X344846D01*
X350912Y396147D02*
X349357Y394592D01*
X350912Y414815D02*
X349357Y416370D01*
X360246Y392281D02*
Y390081D01*
X369580Y396147D02*
X371135Y394592D01*
X369580Y414815D02*
X371135Y416370D01*
X373446Y405481D02*
X375646D01*
X388100Y120698D02*
Y85698D01*
X421416*
Y114909*
G75*
G02X415931Y120698I3200J8525*
G01*
X388100*
G36*
Y85698*
X421416*
Y114909*
G75*
G02X415931Y120698I3200J8525*
G01*
X388100*
G37*
Y230698D02*
Y195698D01*
X421416*
Y230698*
X388100*
G36*
Y195698*
X421416*
Y230698*
X388100*
G37*
Y340698D02*
Y305698D01*
X421416*
Y340698*
X388100*
G36*
Y305698*
X421416*
Y340698*
X388100*
G37*
X421416Y343841D02*
G75*
G02X388620Y379694I3201J35854D01*
G01*
Y419998*
X365386*
G75*
G02X375646Y405481I-5140J-14517*
G01*
G75*
G02X344846I-15400*
G01*
G75*
G02X355106Y419998I15400J0*
G01*
X219493*
G75*
G02X224708Y410048I-6885J-9950*
G01*
G75*
G02X200508I-12100*
G01*
G75*
G02X205722Y419998I12100*
G01*
X70110*
G75*
G02X80370Y405481I-5140J-14517*
G01*
G75*
G02X49570I-15400*
G01*
G75*
G02X59830Y419998I15400J0*
G01*
X36595*
Y379694*
G75*
G02X3800Y343841I-35996J0*
G01*
Y340698*
X38100*
Y305698*
X3800*
Y230698*
X38100*
Y195698*
X3800*
Y169361*
G75*
G02X9706Y160836I-3200J-8525*
G01*
Y123434*
G75*
G02X9285Y120698I-9106J0*
G01*
X38100*
Y85698*
X3800*
Y82555*
G75*
G02X36595Y46702I-3200J-35853*
G01*
Y6398*
X205722*
G75*
G02X200508Y16348I6885J9950*
G01*
G75*
G02X224708I12100*
G01*
G75*
G02X219493Y6398I-12100*
G01*
X388620*
Y46702*
G75*
G02X421416Y82554I35996J0*
G01*
Y85698*
X388100*
Y120698*
X415931*
G75*
G02X415510Y123433I8685J2736*
G01*
Y160835*
G75*
G02X421416Y169360I9106*
G01*
Y195698*
X388100*
Y230698*
X421416*
Y305698*
X388100*
Y340698*
X421416*
Y343841*
X231919Y382273D02*
G75*
G02X241419I4750D01*
G01*
Y379123*
G75*
G02X231919I-4750*
G01*
Y382273*
X343100Y300698D02*
X378100D01*
Y265698*
X343100*
Y300698*
X375600Y196448D02*
G75*
G02X375850Y196198J-250D01*
G01*
Y195147*
G75*
G02X375600Y194897I-250*
G01*
X374466*
Y185698*
X364466*
Y194897*
X363100*
G75*
G02X362850Y195147J250*
G01*
Y196198*
G75*
G02X363100Y196448I250*
G01*
X364466*
Y205698*
X374466*
Y196448*
X375600*
X201919Y382273D02*
G75*
G02X211419I4750D01*
G01*
Y379123*
G75*
G02X201919I-4750*
G01*
Y382273*
X211919D02*
G75*
G02X221419I4750D01*
G01*
Y379123*
G75*
G02X211919I-4750*
G01*
Y382273*
X221919D02*
G75*
G02X231419I4750D01*
G01*
Y379123*
G75*
G02X221919I-4750*
G01*
Y382273*
X81919D02*
G75*
G02X91419I4750D01*
G01*
Y379123*
G75*
G02X81919I-4750*
G01*
Y382273*
X91919D02*
G75*
G02X101419I4750D01*
G01*
Y379123*
G75*
G02X91919I-4750*
G01*
Y382273*
X101126Y71210D02*
G75*
G02X120074I9474D01*
G01*
G75*
G02X101126I-9474*
G01*
X111126Y41210D02*
G75*
G02X130074I9474D01*
G01*
G75*
G02X111126I-9474*
G01*
X101126Y260186D02*
G75*
G02X120074I9474D01*
G01*
G75*
G02X101126I-9474*
G01*
X101919Y382273D02*
G75*
G02X111419I4750D01*
G01*
Y379123*
G75*
G02X101919I-4750*
G01*
Y382273*
X111126Y290186D02*
G75*
G02X130074I9474D01*
G01*
G75*
G02X111126I-9474*
G01*
X121126Y71210D02*
G75*
G02X140074I9474D01*
G01*
G75*
G02X121126I-9474*
G01*
Y260186D02*
G75*
G02X140074I9474D01*
G01*
G75*
G02X121126I-9474*
G01*
X138364Y135198D02*
G75*
G02X143600Y133198I2236J-2000D01*
G01*
G75*
G02X138364Y131198I-3000*
G01*
X137836*
G75*
G02X132600Y133198I-2236J2000*
G01*
G75*
G02X137836Y135198I3000*
G01*
X138364*
X111919Y382273D02*
G75*
G02X121419I4750D01*
G01*
Y379123*
G75*
G02X111919I-4750*
G01*
Y382273*
X121919D02*
G75*
G02X131419I4750D01*
G01*
Y379123*
G75*
G02X121919I-4750*
G01*
Y382273*
X131919D02*
G75*
G02X141419I4750D01*
G01*
Y379123*
G75*
G02X131919I-4750*
G01*
Y382273*
X141919D02*
G75*
G02X151419I4750D01*
G01*
Y379123*
G75*
G02X141919I-4750*
G01*
Y382273*
X151919D02*
G75*
G02X161419I4750D01*
G01*
Y379123*
G75*
G02X151919I-4750*
G01*
Y382273*
X161919D02*
G75*
G02X171419I4750D01*
G01*
Y379123*
G75*
G02X161919I-4750*
G01*
Y382273*
X171919D02*
G75*
G02X181419I4750D01*
G01*
Y379123*
G75*
G02X171919I-4750*
G01*
Y382273*
X181919D02*
G75*
G02X191419I4750D01*
G01*
Y379123*
G75*
G02X181919I-4750*
G01*
Y382273*
X190600Y255698D02*
X228100D01*
Y140698*
X190600*
Y255698*
X191919Y382273D02*
G75*
G02X201419I4750D01*
G01*
Y379123*
G75*
G02X191919I-4750*
G01*
Y382273*
X198352Y315946D02*
X207848D01*
Y306450*
X198352*
Y315946*
Y325946D02*
X207848D01*
Y316450*
X198352*
Y325946*
Y335946D02*
X207848D01*
Y326450*
X198352*
Y335946*
Y345946D02*
X207848D01*
Y336450*
X198352*
Y345946*
X48100Y300698D02*
X83100D01*
Y265698*
X48100*
Y300698*
X53350Y210448D02*
X62850D01*
Y200948*
X53350*
Y210448*
Y232948D02*
X62850D01*
Y223448*
X53350*
Y232948*
X40600Y255296D02*
G75*
G02Y246100J-4598D01*
G01*
X35600*
G75*
G02Y255296J4598*
G01*
X40600*
X43350Y210448D02*
X52850D01*
Y200948*
X43350*
Y210448*
X58850Y54332D02*
X68100D01*
Y44332*
X58850*
Y43198*
G75*
G02X58600Y42948I-250*
G01*
X57549*
G75*
G02X57299Y43198J250*
G01*
Y44332*
X48100*
Y54332*
X57299*
Y55698*
G75*
G02X57549Y55948I250*
G01*
X58600*
G75*
G02X58850Y55698J-250*
G01*
Y54332*
X43350Y232948D02*
X52850D01*
Y223448*
X43350*
Y232948*
X40600Y265296D02*
G75*
G02Y256100J-4598D01*
G01*
X35600*
G75*
G02Y265296J4598*
G01*
X40600*
Y275296D02*
G75*
G02Y266100J-4598D01*
G01*
X35600*
G75*
G02Y275296J4598*
G01*
X40600*
Y285296D02*
G75*
G02Y276100J-4598D01*
G01*
X35600*
G75*
G02Y285296J4598*
G01*
X40600*
Y295296D02*
G75*
G02Y286100J-4598D01*
G01*
X35600*
G75*
G02Y295296J4598*
G01*
X40600*
Y305296D02*
G75*
G02Y296100J-4598D01*
G01*
X35600*
G75*
G02Y305296J4598*
G01*
X40600*
X388620Y41210D02*
G36*
X130074D01*
G75*
G02X111126I-9474*
G01*
X36595*
Y6998*
X204928*
G75*
G02X200508Y16348I7681J9350*
G01*
G75*
G02X224708I12100*
G01*
G75*
G02X220288Y6998I-12102J1*
G01*
X388620*
Y41210*
G37*
X111126D02*
G36*
G75*
G02X115921Y49448I9474D01*
G01*
X68100*
Y44332*
X58850*
Y43198*
G75*
G02X58600Y42948I-250*
G01*
X57549*
G75*
G02X57299Y43198J250*
G01*
Y44332*
X48100*
Y49448*
X36490*
G75*
G02X36595Y46702I-35893J-2749*
G01*
Y41210*
X111126*
G37*
X388726Y49448D02*
G36*
X125279D01*
G75*
G02X130074Y41210I-4679J-8238*
G01*
X388620*
Y46702*
G75*
G02X388726Y49448I36003J-3*
G01*
G37*
X398253Y71210D02*
G36*
X140074D01*
G75*
G02X121126I-9474*
G01*
X120074*
G75*
G02X101126I-9474*
G01*
X26963*
G75*
G02X36490Y49448I-26364J-24508*
G01*
X48100*
Y54332*
X57299*
Y55698*
G75*
G02X57549Y55948I250*
G01*
X58600*
G75*
G02X58850Y55698J-250*
G01*
Y54332*
X68100*
Y49448*
X115921*
G75*
G02X125279I4679J-8239*
G01*
X388726*
G75*
G02X398253Y71210I35891J-2747*
G01*
G37*
X415510Y133198D02*
G36*
X143600D01*
G75*
G02X138364Y131198I-3000J0*
G01*
X137836*
G75*
G02X132600Y133198I-2236J2000*
G01*
Y133198*
X9706*
Y123434*
G75*
G02X9285Y120698I-9111J1*
G01*
X38100*
Y85698*
X4400*
Y82496*
G75*
G02X26963Y71210I-3801J-35795*
G01*
X101126*
G75*
G02X120074I9474*
G01*
X121126*
G75*
G02X140074I9474*
G01*
X398253*
G75*
G02X420816Y82496I26363J-24509*
G01*
Y85698*
X388100*
Y120698*
X415931*
G75*
G02X415510Y123433I8685J2736*
G01*
Y133198*
G37*
X420816Y195698D02*
G36*
X388100D01*
X375850*
Y195147*
G75*
G02X375600Y194897I-250*
G01*
X374466*
Y185698*
X364466*
Y194897*
X363100*
G75*
G02X362850Y195147J250*
G01*
Y195698*
X228100*
Y140698*
X190600*
Y195698*
X38100*
X4400*
Y169111*
G75*
G02X9706Y160837I-3799J-8274*
G01*
G75*
G02Y160836I-11279J0*
G01*
Y133198*
X132600*
G75*
G02X137836Y135198I3000J0*
G01*
X138364*
G75*
G02X143600Y133198I2236J-2000*
G01*
Y133198*
X415510*
Y160835*
G75*
G02Y160836I11279J0*
G01*
G75*
G02X420816Y169110I9105*
G01*
Y195698*
G37*
X190600Y205698D02*
G36*
X62850D01*
Y200948*
X53350*
Y205698*
X52850*
Y200948*
X43350*
Y205698*
X38100*
Y195698*
X190600*
Y205698*
G37*
X362850Y195698D02*
G36*
Y196198D01*
G75*
G02X363100Y196448I250*
G01*
X364466*
Y205698*
X228100*
Y195698*
X362850*
G37*
X388100Y205698D02*
G36*
X374466D01*
Y196448*
X375600*
G75*
G02X375850Y196198J-250*
G01*
Y195698*
X388100*
Y205698*
G37*
X190600Y228198D02*
G36*
X62850D01*
Y223448*
X53350*
Y228198*
X52850*
Y223448*
X43350*
Y228198*
X38100*
Y205698*
X43350*
Y210448*
X52850*
Y205698*
X53350*
Y210448*
X62850*
Y205698*
X190600*
Y228198*
G37*
X388100D02*
G36*
X228100D01*
Y205698*
X364466*
X374466*
X388100*
Y228198*
G37*
X190600Y250698D02*
G36*
X45198D01*
G75*
G02X40600Y246100I-4598*
G01*
X35600*
G75*
G02X31002Y250698J4598*
G01*
X4400*
Y230698*
X38100*
Y228198*
X43350*
Y232948*
X52850*
Y228198*
X53350*
Y232948*
X62850*
Y228198*
X190600*
Y250698*
G37*
X420816Y230698D02*
G36*
Y250698D01*
X228100*
Y228198*
X388100*
Y230698*
X420816*
G37*
X45170Y260186D02*
G36*
G75*
G02X40600Y256100I-4570J512D01*
G01*
X35600*
G75*
G02X31030Y260186J4598*
G01*
X4400*
Y250698*
X31002*
G75*
G02X35600Y255296I4598*
G01*
X40600*
G75*
G02X45198Y250698J-4598*
G01*
X190600*
Y255698*
X228100*
Y250698*
X420816*
Y260186*
X140074*
G75*
G02X121126I-9474*
G01*
X120074*
G75*
G02X101126I-9474*
G01*
X45170*
G37*
X378100Y270698D02*
G36*
Y265698D01*
X343100*
Y270698*
X83100*
Y265698*
X48100*
Y270698*
X45198*
G75*
G02X40600Y266100I-4598*
G01*
X35600*
G75*
G02X31002Y270698J4598*
G01*
X4400*
Y260186*
X31030*
G75*
G02X31002Y260698I4570J513*
G01*
G75*
G02X35600Y265296I4598*
G01*
X40600*
G75*
G02X45198Y260698J-4598*
G01*
G75*
G02X45170Y260186I-4599J2*
G01*
X101126*
G75*
G02X120074I9474*
G01*
X121126*
G75*
G02X140074I9474*
G01*
X420816*
Y270698*
X378100*
G37*
X48100Y283198D02*
G36*
X44459D01*
G75*
G02X45198Y280698I-3859J-2500*
G01*
G75*
G02X40600Y276100I-4598*
G01*
X35600*
G75*
G02X31002Y280698J4598*
G01*
G75*
G02X31741Y283198I4598*
G01*
X4400*
Y270698*
X31002*
G75*
G02X35600Y275296I4598*
G01*
X40600*
G75*
G02X45198Y270698J-4598*
G01*
X48100*
Y283198*
G37*
X343100D02*
G36*
X126997D01*
G75*
G02X114203I-6397J6988*
G01*
X83100*
Y270698*
X343100*
Y283198*
G37*
X378100D02*
G36*
Y270698D01*
X420816*
Y283198*
X378100*
G37*
X48100Y290698D02*
G36*
X45198D01*
G75*
G02X40600Y286100I-4598*
G01*
X35600*
G75*
G02X31002Y290698J4598*
G01*
X4400*
Y283198*
X31741*
G75*
G02X35600Y285296I3859J-2500*
G01*
X40600*
G75*
G02X44459Y283198J-4598*
G01*
X48100*
Y290698*
G37*
X111140D02*
G36*
X83100D01*
Y283198*
X114203*
G75*
G02X111126Y290186I6397J6989*
G01*
G75*
G02X111140Y290698I9476J1*
G01*
G37*
X343100D02*
G36*
X130060D01*
G75*
G02X130074Y290186I-9463J-511*
G01*
G75*
G02X126997Y283198I-9474J0*
G01*
X343100*
Y290698*
G37*
X378100D02*
G36*
Y283198D01*
X420816*
Y290698*
X378100*
G37*
X48100Y300698D02*
G36*
X45198D01*
G75*
G02X40600Y296100I-4598*
G01*
X35600*
G75*
G02X31002Y300698J4598*
G01*
X4400*
Y290698*
X31002*
G75*
G02X35600Y295296I4598*
G01*
X40600*
G75*
G02X45198Y290698J-4598*
G01*
X48100*
Y300698*
G37*
X343100D02*
G36*
X83100D01*
Y290698*
X111140*
G75*
G02X130060I9460J-512*
G01*
X343100*
Y300698*
G37*
X378100D02*
G36*
Y290698D01*
X420816*
Y300698*
X378100*
G37*
X388100Y311198D02*
G36*
X207848D01*
Y306450*
X198352*
Y311198*
X38100*
Y305698*
X4400*
Y300698*
X31002*
G75*
G02X35600Y305296I4598*
G01*
X40600*
G75*
G02X45198Y300698J-4598*
G01*
X48100*
X83100*
X343100*
X378100*
X420816*
Y305698*
X388100*
Y311198*
G37*
Y321198D02*
G36*
X207848D01*
Y316450*
X198352*
Y321198*
X38100*
Y311198*
X198352*
Y315946*
X207848*
Y311198*
X388100*
Y321198*
G37*
Y331198D02*
G36*
X207848D01*
Y326450*
X198352*
Y331198*
X38100*
Y321198*
X198352*
Y325946*
X207848*
Y321198*
X388100*
Y331198*
G37*
X420816Y340698D02*
G36*
Y341198D01*
X207848*
Y336450*
X198352*
Y341198*
X4400*
Y340698*
X38100*
Y331198*
X198352*
Y335946*
X207848*
Y331198*
X388100*
Y340698*
X420816*
G37*
X388620Y380698D02*
G36*
X241419D01*
Y379123*
G75*
G02X231919I-4750*
G01*
Y380698*
X231419*
Y379123*
G75*
G02X221919I-4750*
G01*
Y380698*
X221419*
Y379123*
G75*
G02X211919I-4750*
G01*
Y380698*
X211419*
Y379123*
G75*
G02X201919I-4750*
G01*
Y380698*
X201419*
Y379123*
G75*
G02X191919I-4750*
G01*
Y380698*
X191419*
Y379123*
G75*
G02X181919I-4750*
G01*
Y380698*
X181419*
Y379123*
G75*
G02X171919I-4750*
G01*
Y380698*
X171419*
Y379123*
G75*
G02X161919I-4750*
G01*
Y380698*
X161419*
Y379123*
G75*
G02X151919I-4750*
G01*
Y380698*
X151419*
Y379123*
G75*
G02X141919I-4750*
G01*
Y380698*
X141419*
Y379123*
G75*
G02X131919I-4750*
G01*
Y380698*
X131419*
Y379123*
G75*
G02X121919I-4750*
G01*
Y380698*
X121419*
Y379123*
G75*
G02X111919I-4750*
G01*
Y380698*
X111419*
Y379123*
G75*
G02X101919I-4750*
G01*
Y380698*
X101419*
Y379123*
G75*
G02X91919I-4750*
G01*
Y380698*
X91419*
Y379123*
G75*
G02X81919I-4750*
G01*
Y380698*
X36595*
Y379694*
G75*
G02X4400Y343900I-35997J1*
G01*
Y341198*
X198352*
Y345946*
X207848*
Y341198*
X420816*
Y343900*
G75*
G02X388620Y379694I3801J35795*
G01*
Y380698*
G37*
Y419398D02*
G36*
X366840D01*
G75*
G02X375646Y405481I-6594J-13917*
G01*
G75*
G02X344846I-15400*
G01*
G75*
G02X353652Y419398I15400J0*
G01*
X220288*
G75*
G02X224708Y410048I-7681J-9350*
G01*
G75*
G02X200508I-12100*
G01*
G75*
G02X204928Y419398I12102J-1*
G01*
X71564*
G75*
G02X80370Y405481I-6594J-13917*
G01*
G75*
G02X49570I-15400*
G01*
G75*
G02X58376Y419398I15400J0*
G01*
X36595*
Y380698*
X81919*
Y382273*
G75*
G02X91419I4750*
G01*
Y380698*
X91919*
Y382273*
G75*
G02X101419I4750*
G01*
Y380698*
X101919*
Y382273*
G75*
G02X111419I4750*
G01*
Y380698*
X111919*
Y382273*
G75*
G02X121419I4750*
G01*
Y380698*
X121919*
Y382273*
G75*
G02X131419I4750*
G01*
Y380698*
X131919*
Y382273*
G75*
G02X141419I4750*
G01*
Y380698*
X141919*
Y382273*
G75*
G02X151419I4750*
G01*
Y380698*
X151919*
Y382273*
G75*
G02X161419I4750*
G01*
Y380698*
X161919*
Y382273*
G75*
G02X171419I4750*
G01*
Y380698*
X171919*
Y382273*
G75*
G02X181419I4750*
G01*
Y380698*
X181919*
Y382273*
G75*
G02X191419I4750*
G01*
Y380698*
X191919*
Y382273*
G75*
G02X201419I4750*
G01*
Y380698*
X201919*
Y382273*
G75*
G02X211419I4750*
G01*
Y380698*
X211919*
Y382273*
G75*
G02X221419I4750*
G01*
Y380698*
X221919*
Y382273*
G75*
G02X231419I4750*
G01*
Y380698*
X231919*
Y382273*
G75*
G02X241419I4750*
G01*
Y380698*
X388620*
Y419398*
G37*
D02*
D13*
X418710Y123434D02*
Y160835D01*
G75*
G02X424616Y166741I5906*
G01*
Y346899*
G75*
G02X391820Y379694J32795*
G01*
Y423198*
X33395*
X33395Y379694*
G75*
G02X600Y346898I-32795*
G01*
Y166741*
G75*
G02X6506Y160836J-5906*
G01*
Y123434*
G75*
G02X600Y117529I-5906*
G01*
Y79497*
G75*
G02X33395Y46702J-32795*
G01*
Y3198*
X391820*
Y46702*
G75*
G02X424616Y79497I32795*
G01*
Y117529*
G75*
G02X418710Y123434J5905*
G01*
D02*
D88*
X19694Y102962D03*
Y213198D03*
Y323434D03*
X64970Y283434D03*
Y405481D03*
X209445Y158080D03*
Y197450D03*
Y236820D03*
X360246Y283434D03*
Y405481D03*
X405521Y102962D03*
Y213198D03*
Y323434D03*
D02*
D89*
X212608Y16348D03*
Y410048D03*
D02*
D90*
X110600Y71210D03*
Y260186D03*
X120600Y41210D03*
Y290186D03*
X130600Y71210D03*
Y260186D03*
D02*
D91*
X53100Y49332D03*
X63100D03*
X369466Y190698D03*
Y200698D03*
D02*
D92*
X86670Y380698D03*
X96670D03*
X106670D03*
X116670D03*
X126670D03*
X136670D03*
X146670D03*
X156670D03*
X166670D03*
X176670D03*
X186670D03*
X196670D03*
X206670D03*
X216670D03*
X226670D03*
X236670D03*
D02*
D93*
X38100Y250698D03*
Y260698D03*
Y270698D03*
Y280698D03*
Y290698D03*
Y300698D03*
D02*
D94*
X48100Y205698D03*
Y228198D03*
X58100Y205698D03*
Y228198D03*
D02*
D95*
X203100Y311198D03*
Y321198D03*
Y331198D03*
Y341198D03*
D02*
D96*
X28100Y276198D03*
X32300Y285598D03*
X48350Y59098D03*
Y63598D03*
X48600Y108198D03*
Y115651D03*
Y123198D03*
X53100Y56198D03*
Y103448D03*
X61100Y88448D03*
X61860Y83033D03*
X69250Y102008D03*
X70488Y115698D03*
X73550Y102008D03*
X77150Y107158D03*
X78100Y120651D03*
X79300Y110745D03*
X83285Y79261D03*
X86860Y83033D03*
X88600Y187598D03*
Y191098D03*
X90600Y385989D03*
Y395407D03*
X92150Y50698D03*
X92170Y370698D03*
X97300Y45548D03*
Y55848D03*
X101250Y375198D03*
X102450Y50698D03*
X107600Y108198D03*
Y123198D03*
Y174598D03*
Y178698D03*
X118100Y203198D03*
Y208198D03*
X120000Y145698D03*
Y150073D03*
Y154448D03*
X122175Y217798D03*
X123100Y203198D03*
Y208198D03*
X124250Y194249D03*
X129850Y159948D03*
X130600Y138498D03*
Y143198D03*
X134350Y178249D03*
X135600Y133198D03*
X135663Y230698D03*
X138100Y170198D03*
X138175Y181948D03*
Y187598D03*
Y191548D03*
X140413Y237698D03*
X140600Y133198D03*
X143147Y248198D03*
X145163Y230698D03*
X146154Y143737D03*
X146328Y243737D03*
X148100Y83033D03*
X148646Y146229D03*
X149872Y243737D03*
X151037Y230698D03*
X153053Y248198D03*
X155787Y237698D03*
X156100Y115698D03*
X156250Y133198D03*
X160537Y230698D03*
X160600Y138348D03*
X165950Y88848D03*
X166350Y84448D03*
X166550Y135698D03*
X170246Y89448D03*
X179300Y83398D03*
X184439Y119505D03*
X187324Y124359D03*
X192150Y135698D03*
X196850Y128048D03*
X202450Y133198D03*
X210600Y335698D03*
X215350Y328198D03*
X224355Y369648D03*
X231505Y371848D03*
X232250Y386098D03*
Y395298D03*
X236170Y353448D03*
X241170Y358198D03*
Y390698D03*
X242350Y194448D03*
X247350Y199198D03*
X251850D03*
X269010Y192194D03*
Y197194D03*
Y202194D03*
X273600Y185698D03*
Y189694D03*
X274160Y207448D03*
X287360Y174544D03*
X291100Y174190D03*
X294084Y176241D03*
X308260Y207448D03*
X308600Y185698D03*
Y189694D03*
X313410Y192194D03*
Y197194D03*
Y202194D03*
D02*
D97*
X135600Y133198D02*
X140600D01*
X0Y0D02*
M02*
