G04 EasyPC Gerber Version 21.0.3 Build 4286 *
G04 #@! TF.Part,Single*
G04 #@! TF.FileFunction,Legend,Top *
G04 #@! TF.FilePolarity,Positive *
%FSLAX35Y35*%
%MOIN*%
%ADD13C,0.00500*%
%ADD11C,0.00600*%
%ADD14C,0.01000*%
%ADD10C,0.01200*%
%ADD12C,0.02000*%
X0Y0D02*
D02*
D10*
X20600Y305698D02*
X25600Y300698D01*
X20600Y295698*
Y305698*
G36*
X25600Y300698*
X20600Y295698*
Y305698*
G37*
X48100Y308198D02*
X41029D01*
Y315269*
X48100Y308198*
G36*
X41029*
Y315269*
X48100Y308198*
G37*
X418710Y123434D02*
Y160835D01*
G75*
G02X424616Y166741I5906*
G01*
Y346899*
G75*
G02X391820Y379694J32795*
G01*
Y423198*
X33395*
X33395Y379694*
G75*
G02X600Y346898I-32795*
G01*
Y166741*
G75*
G02X6506Y160836J-5906*
G01*
Y123434*
G75*
G02X600Y117529I-5906*
G01*
Y79497*
G75*
G02X33395Y46702J-32795*
G01*
Y3198*
X391820*
Y46702*
G75*
G02X424616Y79497I32795*
G01*
Y117529*
G75*
G02X418710Y123434J5905*
G01*
D02*
D11*
X38100Y7885D02*
Y11635D01*
X40287*
X40913Y11323*
X41225Y10698*
X40913Y10073*
X40287Y9761*
X38100*
X45600Y8198D02*
X45287Y7885D01*
X44663*
X44037*
X43413Y8198*
X43100Y8823*
Y9761*
X43413Y10073*
X44037Y10385*
X44663*
X45287Y10073*
X45600Y9761*
Y9448*
X45287Y9135*
X44663Y8823*
X44037*
X43413Y9135*
X43100Y9448*
X48725Y10385D02*
X49975D01*
X49350Y11011D02*
Y8198D01*
X49663Y7885*
X49975*
X50287Y8198*
X55600D02*
X55287Y7885D01*
X54663*
X54037*
X53413Y8198*
X53100Y8823*
Y9761*
X53413Y10073*
X54037Y10385*
X54663*
X55287Y10073*
X55600Y9761*
Y9448*
X55287Y9135*
X54663Y8823*
X54037*
X53413Y9135*
X53100Y9448*
X63100Y7885D02*
Y11635D01*
X65287*
X65913Y11323*
X66225Y10698*
X65913Y10073*
X65287Y9761*
X63100*
X65287D02*
X66225Y7885D01*
X70600Y8198D02*
X70287Y7885D01*
X69663*
X69037*
X68413Y8198*
X68100Y8823*
Y9761*
X68413Y10073*
X69037Y10385*
X69663*
X70287Y10073*
X70600Y9761*
Y9448*
X70287Y9135*
X69663Y8823*
X69037*
X68413Y9135*
X68100Y9448*
X73100Y8198D02*
X73725Y7885D01*
X74975*
X75600Y8198*
Y8823*
X74975Y9135*
X73725*
X73100Y9448*
Y10073*
X73725Y10385*
X74975*
X75600Y10073*
X78725Y10385D02*
X79975D01*
X79350Y11011D02*
Y8198D01*
X79663Y7885*
X79975*
X80287Y8198*
X83100Y10073D02*
X83725Y10385D01*
X84663*
X85287Y10073*
X85600Y9448*
Y8511*
X85287Y8198*
X84663Y7885*
X84037*
X83413Y8198*
X83100Y8511*
Y8823*
X83413Y9135*
X84037Y9448*
X84663*
X85287Y9135*
X85600Y8823*
Y8511D02*
Y7885D01*
X89663D02*
X89350D01*
Y11635*
X94663Y7885D02*
X94350D01*
Y11635*
X106225Y7885D02*
X104663Y9448D01*
X106225Y11011*
X108100Y10385D02*
Y6948D01*
Y8823D02*
X108413Y8198D01*
X109037Y7885*
X109663*
X110287Y8198*
X110600Y8823*
Y9448*
X110287Y10073*
X109663Y10385*
X109037*
X108413Y10073*
X108100Y9448*
Y8823*
X115600Y8198D02*
X115287Y7885D01*
X114663*
X114037*
X113413Y8198*
X113100Y8823*
Y9761*
X113413Y10073*
X114037Y10385*
X114663*
X115287Y10073*
X115600Y9761*
Y9448*
X115287Y9135*
X114663Y8823*
X114037*
X113413Y9135*
X113100Y9448*
X118725Y10385D02*
X119975D01*
X119350Y11011D02*
Y8198D01*
X119663Y7885*
X119975*
X120287Y8198*
X125600D02*
X125287Y7885D01*
X124663*
X124037*
X123413Y8198*
X123100Y8823*
Y9761*
X123413Y10073*
X124037Y10385*
X124663*
X125287Y10073*
X125600Y9761*
Y9448*
X125287Y9135*
X124663Y8823*
X124037*
X123413Y9135*
X123100Y9448*
X130913Y8198D02*
X130287Y7885D01*
X129037*
X128413Y8198*
X128100Y8823*
Y10698*
X128413Y11323*
X129037Y11635*
X129975*
X130600Y11323*
X130913Y10698*
Y9135*
X130600Y8823*
X130287Y9135*
Y10385*
X129975Y10698*
X129037*
X128725Y10385*
Y9135*
X129037Y8823*
X129975*
X130287Y9135*
X133100Y7885D02*
Y10385D01*
Y9448D02*
X133413Y10073D01*
X134037Y10385*
X134663*
X135287Y10073*
X140600Y8198D02*
X140287Y7885D01*
X139663*
X139037*
X138413Y8198*
X138100Y8823*
Y9761*
X138413Y10073*
X139037Y10385*
X139663*
X140287Y10073*
X140600Y9761*
Y9448*
X140287Y9135*
X139663Y8823*
X139037*
X138413Y9135*
X138100Y9448*
X143100Y8198D02*
X143725Y7885D01*
X144975*
X145600Y8198*
Y8823*
X144975Y9135*
X143725*
X143100Y9448*
Y10073*
X143725Y10385*
X144975*
X145600Y10073*
X148725Y10385D02*
X149975D01*
X149350Y11011D02*
Y8198D01*
X149663Y7885*
X149975*
X150287Y8198*
X153100Y10073D02*
X153725Y10385D01*
X154663*
X155287Y10073*
X155600Y9448*
Y8511*
X155287Y8198*
X154663Y7885*
X154037*
X153413Y8198*
X153100Y8511*
Y8823*
X153413Y9135*
X154037Y9448*
X154663*
X155287Y9135*
X155600Y8823*
Y8511D02*
Y7885D01*
X159663D02*
X159350D01*
Y11635*
X164663Y7885D02*
X164350D01*
Y11635*
X168413Y7885D02*
X168725Y8198D01*
X168413Y8511*
X168100Y8198*
X168413Y7885*
X173100D02*
Y10385D01*
Y9448D02*
X173413Y10073D01*
X174037Y10385*
X174663*
X175287Y10073*
X175600Y9448*
Y7885*
X180600Y8198D02*
X180287Y7885D01*
X179663*
X179037*
X178413Y8198*
X178100Y8823*
Y9761*
X178413Y10073*
X179037Y10385*
X179663*
X180287Y10073*
X180600Y9761*
Y9448*
X180287Y9135*
X179663Y8823*
X179037*
X178413Y9135*
X178100Y9448*
X183725Y10385D02*
X184975D01*
X184350Y11011D02*
Y8198D01*
X184663Y7885*
X184975*
X185287Y8198*
X189663Y7885D02*
X191225Y9448D01*
X189663Y11011*
X41225Y14761D02*
X40913Y14448D01*
X40287Y14135*
X39350*
X38725Y14448*
X38413Y14761*
X38100Y15385*
Y16635*
X38413Y17261*
X38725Y17573*
X39350Y17885*
X40287*
X40913Y17573*
X41225Y17261*
X44663Y14135D02*
X44350D01*
Y17885*
X48100Y16635D02*
Y15073D01*
X48413Y14448*
X49037Y14135*
X49663*
X50287Y14448*
X50600Y15073*
Y16635D02*
Y14135D01*
X55600Y16323D02*
X54975Y16635D01*
X54037*
X53413Y16323*
X53100Y15698*
Y15073*
X53413Y14448*
X54037Y14135*
X54975*
X55600Y14448*
X58100Y14135D02*
Y17885D01*
Y15385D02*
X59037D01*
X60600Y16635*
X59037Y15385D02*
X60600Y14135D01*
X68100Y15073D02*
X68413Y14448D01*
X69037Y14135*
X70287*
X70913Y14448*
X71225Y15073*
X70913Y15698*
X70287Y16011*
X69037*
X68413Y16323*
X68100Y16948*
X68413Y17573*
X69037Y17885*
X70287*
X70913Y17573*
X71225Y16948*
X75600Y14448D02*
X75287Y14135D01*
X74663*
X74037*
X73413Y14448*
X73100Y15073*
Y16011*
X73413Y16323*
X74037Y16635*
X74663*
X75287Y16323*
X75600Y16011*
Y15698*
X75287Y15385*
X74663Y15073*
X74037*
X73413Y15385*
X73100Y15698*
X78100Y14448D02*
X78725Y14135D01*
X79975*
X80600Y14448*
Y15073*
X79975Y15385*
X78725*
X78100Y15698*
Y16323*
X78725Y16635*
X79975*
X80600Y16323*
X83100D02*
X83725Y16635D01*
X84663*
X85287Y16323*
X85600Y15698*
Y14761*
X85287Y14448*
X84663Y14135*
X84037*
X83413Y14448*
X83100Y14761*
Y15073*
X83413Y15385*
X84037Y15698*
X84663*
X85287Y15385*
X85600Y15073*
Y14761D02*
Y14135D01*
X88100D02*
Y16635D01*
Y16323D02*
X88413Y16635D01*
X89037*
X89350Y16323*
Y15385*
Y16323D02*
X89663Y16635D01*
X90287*
X90600Y16323*
Y14135*
X95600Y14448D02*
X95287Y14135D01*
X94663*
X94037*
X93413Y14448*
X93100Y15073*
Y16011*
X93413Y16323*
X94037Y16635*
X94663*
X95287Y16323*
X95600Y16011*
Y15698*
X95287Y15385*
X94663Y15073*
X94037*
X93413Y15385*
X93100Y15698*
X40600Y187885D02*
Y191635D01*
X42787*
X43413Y191323*
X43725Y190698*
X43413Y190073*
X42787Y189761*
X40600*
X42787D02*
X43725Y187885D01*
X46537D02*
X47787D01*
X47163D02*
Y191635D01*
X46537D02*
X47787D01*
X52787Y189448D02*
X53725D01*
Y189135*
X53413Y188511*
X53100Y188198*
X52475Y187885*
X51850*
X51225Y188198*
X50913Y188511*
X50600Y189135*
Y190385*
X50913Y191011*
X51225Y191323*
X51850Y191635*
X52475*
X53100Y191323*
X53413Y191011*
X53725Y190385*
X55600Y187885D02*
Y191635D01*
Y189761D02*
X58725D01*
Y187885D02*
Y191635D01*
X62163Y187885D02*
Y191635D01*
X60600D02*
X63725D01*
X44350Y240385D02*
Y236635D01*
X47475*
X49350D02*
Y240385D01*
X52475*
X51850Y238511D02*
X49350D01*
Y236635D02*
X52475D01*
X54350D02*
Y240385D01*
X57475*
X56850Y238511D02*
X54350D01*
X60913Y236635D02*
Y240385D01*
X59350D02*
X62475D01*
X44350Y46635D02*
Y47573D01*
X44663*
X45287Y47261*
X45600Y46948*
X45913Y46323*
Y45698*
X45600Y45073*
X45287Y44761*
X44663Y44448*
X43413*
X42787Y44761*
X42475Y45073*
X42163Y45698*
Y46323*
X42475Y46948*
X42787Y47261*
X43413Y47573*
X45913Y49448D02*
X42163D01*
X45913Y52573*
X42163*
X45913Y54448D02*
X42163D01*
Y56323*
X42475Y56948*
X42787Y57261*
X43413Y57573*
X44663*
X45287Y57261*
X45600Y56948*
X45913Y56323*
Y54448*
X62163Y16948D02*
X62787Y16635D01*
X63413*
X64037Y16948*
X64350Y17573*
X64037Y18198*
X63413Y18511*
X62787*
X63413D02*
X64037Y18823D01*
X64350Y19448*
X64037Y20073*
X63413Y20385*
X62787*
X62163Y20073*
X64350Y384135D02*
Y380385D01*
X67475*
X72475Y381011D02*
X72163Y380698D01*
X71537Y380385*
X70600*
X69975Y380698*
X69663Y381011*
X69350Y381635*
Y382885*
X69663Y383511*
X69975Y383823*
X70600Y384135*
X71537*
X72163Y383823*
X72475Y383511*
X74350Y380385D02*
Y384135D01*
X76225*
X76850Y383823*
X77163Y383511*
X77475Y382885*
Y381635*
X77163Y381011*
X76850Y380698*
X76225Y380385*
X74350*
X73413Y38198D02*
Y40698D01*
X74663Y39448D02*
X72163D01*
X74350Y43198D02*
X74663Y43823D01*
Y44761*
X74350Y45385*
X73725Y45698*
X73413*
X72787Y45385*
X72475Y44761*
Y43198*
X70913*
Y45698*
Y48198D02*
X74663Y49761D01*
X70913Y51323*
X73100Y55698D02*
X72475Y55385D01*
X72163Y54761*
Y54135*
X72475Y53511*
X73100Y53198*
X73725*
X74350Y53511*
X74663Y54135*
Y54761*
X74350Y55385*
X73725Y55698*
X74663D02*
X70913D01*
X72475Y60698D02*
X72163Y60073D01*
Y59135*
X72475Y58511*
X73100Y58198*
X73725*
X74350Y58511*
X74663Y59135*
Y60073*
X74350Y60698*
X96850Y158511D02*
X97163Y159135D01*
Y159761*
X96850Y160385*
X96225Y160698*
X95600Y160385*
X95287Y159761*
Y159135*
Y159761D02*
X94975Y160385D01*
X94350Y160698*
X93725Y160385*
X93413Y159761*
Y159135*
X93725Y158511*
X97163Y163511D02*
X96850Y163823D01*
X96537Y163511*
X96850Y163198*
X97163Y163511*
Y168198D02*
X93413Y170698D01*
Y168198*
Y173198D02*
X97163Y174761D01*
X93413Y176323*
X97163Y185698D02*
Y183198D01*
X94975Y185385*
X94350Y185698*
X93725Y185385*
X93413Y184761*
Y183823*
X93725Y183198*
X96850Y188511D02*
X97163Y189135D01*
Y189761*
X96850Y190385*
X96225Y190698*
X94350*
X93725Y190385*
X93413Y189761*
Y189135*
X93725Y188511*
X94350Y188198*
X96225*
X96850Y188511*
X93725Y190385*
X96850Y193511D02*
X97163Y194135D01*
Y194761*
X96850Y195385*
X96225Y195698*
X94350*
X93725Y195385*
X93413Y194761*
Y194135*
X93725Y193511*
X94350Y193198*
X96225*
X96850Y193511*
X93725Y195385*
X96850Y198511D02*
X97163Y199135D01*
Y199761*
X96850Y200385*
X96225Y200698*
X94350*
X93725Y200385*
X93413Y199761*
Y199135*
X93725Y198511*
X94350Y198198*
X96225*
X96850Y198511*
X93725Y200385*
X97163Y203198D02*
X94663D01*
X94975D02*
X94663Y203511D01*
Y204135*
X94975Y204448*
X95913*
X94975D02*
X94663Y204761D01*
Y205385*
X94975Y205698*
X97163*
Y208198D02*
X93413Y209761D01*
X97163Y211323*
X95600Y208823D02*
Y210698D01*
X97163Y213198D02*
X93413D01*
X95600D02*
X94975Y213511D01*
X94663Y214135*
Y214761*
X94975Y215385*
X95600Y215698*
X97163*
X99413Y158198D02*
X103163D01*
Y161323*
Y164448D02*
X100663D01*
X99725D02*
X101913Y168198*
Y170698D01*
X103163Y174135D02*
Y175385D01*
Y174761D02*
X99413D01*
Y174135D02*
Y175385D01*
X102225Y178198D02*
X102850Y178511D01*
X103163Y179135*
Y179761*
X102850Y180385*
X102225Y180698*
X101600*
X100975Y180385*
X100663Y179761*
Y179135*
X100975Y178511*
X101600Y178198*
X102225*
X103163Y183198D02*
X100663D01*
X101600D02*
X100975Y183511D01*
X100663Y184135*
Y184761*
X100975Y185385*
X101600Y185698*
X103163*
Y193823D02*
Y195073D01*
Y194448D02*
X99413D01*
X100037Y193823*
X101287Y199135D02*
Y199761D01*
X100975Y200385*
X100350Y200698*
X99725Y200385*
X99413Y199761*
Y199135*
X99725Y198511*
X100350Y198198*
X100975Y198511*
X101287Y199135*
X101600Y198511*
X102225Y198198*
X102850Y198511*
X103163Y199135*
Y199761*
X102850Y200385*
X102225Y200698*
X101600Y200385*
X101287Y199761*
X102225Y203198D02*
X101600Y203511D01*
X101287Y204135*
Y204761*
X101600Y205385*
X102225Y205698*
X102850Y205385*
X103163Y204761*
Y204135*
X102850Y203511*
X102225Y203198*
X101287*
X100350Y203511*
X99725Y204135*
X99413Y204761*
X102850Y208198D02*
X103163Y208823D01*
Y209761*
X102850Y210385*
X102225Y210698*
X101913*
X101287Y210385*
X100975Y209761*
Y208198*
X99413*
Y210698*
X102850Y213511D02*
X103163Y214135D01*
Y214761*
X102850Y215385*
X102225Y215698*
X100350*
X99725Y215385*
X99413Y214761*
Y214135*
X99725Y213511*
X100350Y213198*
X102225*
X102850Y213511*
X99725Y215385*
X186850Y292885D02*
Y296635D01*
X189975*
X189350Y294761D02*
X186850D01*
Y292885D02*
X189975D01*
X191850D02*
Y296635D01*
X194975Y292885*
Y296635*
X199975Y293511D02*
X199663Y293198D01*
X199037Y292885*
X198100*
X197475Y293198*
X197163Y293511*
X196850Y294135*
Y295385*
X197163Y296011*
X197475Y296323*
X198100Y296635*
X199037*
X199663Y296323*
X199975Y296011*
X201850Y294135D02*
Y295385D01*
X202163Y296011*
X202475Y296323*
X203100Y296635*
X203725*
X204350Y296323*
X204663Y296011*
X204975Y295385*
Y294135*
X204663Y293511*
X204350Y293198*
X203725Y292885*
X203100*
X202475Y293198*
X202163Y293511*
X201850Y294135*
X206850Y292885D02*
Y296635D01*
X208725*
X209350Y296323*
X209663Y296011*
X209975Y295385*
Y294135*
X209663Y293511*
X209350Y293198*
X208725Y292885*
X206850*
X211850D02*
Y296635D01*
X214975*
X214350Y294761D02*
X211850D01*
Y292885D02*
X214975D01*
X216850D02*
Y296635D01*
X219037*
X219663Y296323*
X219975Y295698*
X219663Y295073*
X219037Y294761*
X216850*
X219037D02*
X219975Y292885D01*
X213413Y309135D02*
Y311011D01*
X211850Y312885*
X213413Y311011D02*
X214975Y312885D01*
X216850Y309135D02*
Y312885D01*
X219975*
X219350Y311011D02*
X216850D01*
Y309135D02*
X219975D01*
X221850Y312885D02*
Y309135D01*
X224975*
X226850Y312885D02*
Y309135D01*
X229975*
X231850Y310385D02*
Y311635D01*
X232163Y312261*
X232475Y312573*
X233100Y312885*
X233725*
X234350Y312573*
X234663Y312261*
X234975Y311635*
Y310385*
X234663Y309761*
X234350Y309448*
X233725Y309135*
X233100*
X232475Y309448*
X232163Y309761*
X231850Y310385*
X236850Y312885D02*
X237163Y309135D01*
X238413Y311011*
X239663Y309135*
X239975Y312885*
X214037Y321011D02*
X214663Y320698D01*
X214975Y320073*
X214663Y319448*
X214037Y319135*
X211850*
Y322885*
X214037*
X214663Y322573*
X214975Y321948*
X214663Y321323*
X214037Y321011*
X211850*
X216850Y322885D02*
Y319135D01*
X219975*
X221850Y322885D02*
Y320073D01*
X222163Y319448*
X222787Y319135*
X224037*
X224663Y319448*
X224975Y320073*
Y322885*
X226850Y319135D02*
Y322885D01*
X229975*
X229350Y321011D02*
X226850D01*
Y319135D02*
X229975D01*
X214037Y331011D02*
X214663Y330698D01*
X214975Y330073*
X214663Y329448*
X214037Y329135*
X211850*
Y332885*
X214037*
X214663Y332573*
X214975Y331948*
X214663Y331323*
X214037Y331011*
X211850*
X216850Y332885D02*
Y329135D01*
X219975*
X221850D02*
X223413Y332885D01*
X224975Y329135*
X222475Y330698D02*
X224350D01*
X229975Y329761D02*
X229663Y329448D01*
X229037Y329135*
X228100*
X227475Y329448*
X227163Y329761*
X226850Y330385*
Y331635*
X227163Y332261*
X227475Y332573*
X228100Y332885*
X229037*
X229663Y332573*
X229975Y332261*
X231850Y329135D02*
Y332885D01*
Y331011D02*
X232787D01*
X234975Y332885*
X232787Y331011D02*
X234975Y329135D01*
X214037Y340698D02*
X214975D01*
Y340385*
X214663Y339761*
X214350Y339448*
X213725Y339135*
X213100*
X212475Y339448*
X212163Y339761*
X211850Y340385*
Y341635*
X212163Y342261*
X212475Y342573*
X213100Y342885*
X213725*
X214350Y342573*
X214663Y342261*
X214975Y341635*
X216850Y339135D02*
Y342885D01*
X219037*
X219663Y342573*
X219975Y341948*
X219663Y341323*
X219037Y341011*
X216850*
X219037D02*
X219975Y339135D01*
X221850D02*
Y342885D01*
X224975*
X224350Y341011D02*
X221850D01*
Y339135D02*
X224975D01*
X226850D02*
Y342885D01*
X229975*
X229350Y341011D02*
X226850D01*
Y339135D02*
X229975D01*
X231850D02*
Y342885D01*
X234975Y339135*
Y342885*
X346850Y14135D02*
Y17885D01*
X349037*
X349663Y17573*
X349975Y16948*
X349663Y16323*
X349037Y16011*
X346850*
X349037D02*
X349975Y14135D01*
X354350Y14448D02*
X354037Y14135D01*
X353413*
X352787*
X352163Y14448*
X351850Y15073*
Y16011*
X352163Y16323*
X352787Y16635*
X353413*
X354037Y16323*
X354350Y16011*
Y15698*
X354037Y15385*
X353413Y15073*
X352787*
X352163Y15385*
X351850Y15698*
X356850Y16635D02*
X358100Y14135D01*
X359350Y16635*
X367475Y14135D02*
X368725D01*
X368100D02*
Y17885D01*
X367475Y17261*
X372163Y14135D02*
X372475Y14448D01*
X372163Y14761*
X371850Y14448*
X372163Y14135*
X377163Y14448D02*
X377787Y14135D01*
X378413*
X379037Y14448*
X379350Y15073*
Y16948*
X379037Y17573*
X378413Y17885*
X377787*
X377163Y17573*
X376850Y16948*
Y15073*
X377163Y14448*
X379037Y17573*
X348100Y53198D02*
X348106Y53188D01*
X348124Y53158*
X348153Y53110*
X348193Y53044*
X348243Y52963*
X348302Y52867*
X348371Y52758*
X348448Y52636*
X348533Y52503*
X348625Y52360*
X348724Y52209*
X348829Y52050*
X348940Y51885*
X349056Y51715*
X349176Y51541*
X349300Y51364*
X349428Y51186*
X349558Y51008*
X349691Y50831*
X349825Y50657*
X349960Y50486*
X350096Y50319*
X350232Y50159*
X350368Y50006*
X350502Y49861*
X350635Y49725*
X350765Y49600*
X350893Y49488*
X351017Y49389*
X351137Y49304*
X351253Y49234*
X351147Y49070*
X351039Y48893*
X350928Y48702*
X350816Y48499*
X350703Y48285*
X350588Y48062*
X350474Y47829*
X350359Y47587*
X350244Y47338*
X350130Y47082*
X350017Y46821*
X349905Y46555*
X349795Y46284*
X349687Y46011*
X349581Y45736*
X349479Y45459*
X349380Y45182*
X349285Y44905*
X349193Y44630*
X349106Y44357*
X349024Y44087*
X348947Y43821*
X348876Y43560*
X348810Y43305*
X348751Y43057*
X348698Y42816*
X348653Y42584*
X348615Y42361*
X348585Y42148*
X348563Y41947*
X348550Y41757*
X348583Y41598*
X348630Y41415*
X348689Y41212*
X348759Y40989*
X348841Y40749*
X348932Y40493*
X349033Y40222*
X349143Y39939*
X349260Y39645*
X349385Y39342*
X349516Y39031*
X349652Y38713*
X349793Y38392*
X349938Y38068*
X350086Y37743*
X350236Y37418*
X350388Y37095*
X350541Y36777*
X350693Y36464*
X350845Y36158*
X350996Y35861*
X351144Y35574*
X351289Y35300*
X351430Y35039*
X351567Y34794*
X351698Y34567*
X351822Y34357*
X351940Y34168*
X352050Y34001*
X352152Y33858*
X352244Y33740*
X352331Y33639*
X352417Y33545*
X352502Y33458*
X352587Y33378*
X352671Y33304*
X352754Y33236*
X352835Y33174*
X352915Y33117*
X352994Y33066*
X353072Y33020*
X353148Y32980*
X353223Y32943*
X353296Y32912*
X353368Y32884*
X353437Y32861*
X353505Y32841*
X353570Y32825*
X353634Y32812*
X353695Y32803*
X353754Y32796*
X353811Y32791*
X353865Y32789*
X353916Y32790*
X353965Y32792*
X354011Y32796*
X354054Y32801*
X354095Y32807*
X354132Y32814*
X354167Y32822*
X354198Y32831*
X354226Y32839*
X354302Y32803*
X354392Y32764*
X354493Y32723*
X354606Y32680*
X354728Y32635*
X354859Y32589*
X354998Y32541*
X355144Y32492*
X355295Y32443*
X355451Y32393*
X355610Y32342*
X355772Y32292*
X355935Y32241*
X356099Y32192*
X356261Y32143*
X356423Y32095*
X356581Y32048*
X356736Y32003*
X356886Y31960*
X357030Y31918*
X357166Y31879*
X357295Y31843*
X357415Y31809*
X357524Y31778*
X357623Y31750*
X357709Y31726*
X357782Y31706*
X357840Y31690*
X357883Y31678*
X357910Y31671*
X357919Y31669*
X357921Y31657*
X357927Y31626*
X357937Y31575*
X357950Y31506*
X357965Y31419*
X357983Y31316*
X358002Y31198*
X358023Y31067*
X358044Y30923*
X358065Y30768*
X358087Y30603*
X358107Y30429*
X358126Y30247*
X358144Y30058*
X358160Y29864*
X358173Y29666*
X358183Y29465*
X358189Y29261*
X358192Y29057*
X358190Y28854*
X358183Y28652*
X358171Y28453*
X358152Y28258*
X358128Y28068*
X358096Y27885*
X358058Y27709*
X358011Y27542*
X357957Y27385*
X357894Y27238*
X357821Y27104*
X357739Y26984*
X357626Y26924*
X357498Y26867*
X357356Y26813*
X357202Y26761*
X357035Y26711*
X356857Y26664*
X356669Y26619*
X356473Y26575*
X356269Y26533*
X356059Y26493*
X355843Y26455*
X355622Y26418*
X355399Y26382*
X355174Y26347*
X354947Y26314*
X354720Y26281*
X354495Y26249*
X354272Y26218*
X354052Y26187*
X353836Y26157*
X353626Y26127*
X353422Y26096*
X353226Y26067*
X353039Y26037*
X352861Y26006*
X352695Y25976*
X352540Y25945*
X352399Y25913*
X352271Y25881*
X352159Y25847*
X352064Y25813*
X351979Y25777*
X351899Y25738*
X351824Y25696*
X351755Y25653*
X351689Y25607*
X351629Y25559*
X351573Y25510*
X351522Y25459*
X351475Y25407*
X351433Y25354*
X351395Y25300*
X351361Y25244*
X351331Y25189*
X351306Y25132*
X351285Y25076*
X351267Y25019*
X351254Y24962*
X351244Y24906*
X351238Y24850*
X351236Y24795*
X351237Y24741*
X351242Y24687*
X351250Y24635*
X351262Y24584*
X351277Y24535*
X351295Y24487*
X351317Y24442*
X351341Y24398*
X351369Y24357*
X351400Y24318*
X351433Y24281*
X351475Y24247*
X351531Y24214*
X351599Y24182*
X351679Y24151*
X351769Y24121*
X351869Y24093*
X351977Y24065*
X352093Y24039*
X352216Y24013*
X352344Y23989*
X352476Y23966*
X352612Y23944*
X352750Y23923*
X352890Y23904*
X353030Y23885*
X353169Y23868*
X353307Y23851*
X353442Y23836*
X353574Y23822*
X353700Y23809*
X353822Y23797*
X353936Y23787*
X354043Y23777*
X354141Y23769*
X354229Y23761*
X354306Y23755*
X354372Y23750*
X354424Y23746*
X354463Y23743*
X354488Y23742*
X354496Y23741*
X354494Y23739*
X354487Y23731*
X354477Y23719*
X354463Y23703*
X354447Y23682*
X354427Y23658*
X354406Y23630*
X354381Y23598*
X354356Y23563*
X354328Y23524*
X354300Y23483*
X354271Y23439*
X354242Y23393*
X354213Y23344*
X354183Y23294*
X354155Y23242*
X354128Y23188*
X354102Y23133*
X354078Y23076*
X354056Y23019*
X354036Y22961*
X354019Y22902*
X354005Y22844*
X353994Y22785*
X353987Y22726*
X353985Y22668*
X353987Y22610*
X353993Y22553*
X354005Y22498*
X354022Y22443*
X354045Y22390*
X354072Y22338*
X354099Y22287*
X354126Y22238*
X354155Y22190*
X354183Y22143*
X354213Y22098*
X354243Y22054*
X354274Y22012*
X354306Y21971*
X354338Y21932*
X354371Y21894*
X354405Y21859*
X354440Y21825*
X354475Y21793*
X354511Y21763*
X354548Y21734*
X354586Y21708*
X354625Y21683*
X354665Y21661*
X354705Y21641*
X354747Y21624*
X354789Y21608*
X354833Y21595*
X354877Y21584*
X354922Y21576*
X354969Y21570*
X355016Y21566*
X355065Y21565*
X355114Y21567*
X355165Y21572*
X355217Y21579*
X355270Y21590*
X355328Y21606*
X355388Y21627*
X355451Y21652*
X355517Y21681*
X355586Y21714*
X355657Y21751*
X355731Y21791*
X355806Y21834*
X355884Y21880*
X355964Y21929*
X356045Y21980*
X356128Y22034*
X356213Y22089*
X356299Y22146*
X356386Y22206*
X356474Y22266*
X356564Y22327*
X356654Y22389*
X356744Y22451*
X356835Y22514*
X357018Y22640*
X357109Y22703*
X357201Y22765*
X357292Y22826*
X357383Y22886*
X357473Y22944*
X357563Y23002*
X357651Y23057*
X357739Y23111*
X357828Y23163*
X357922Y23217*
X358020Y23272*
X358121Y23326*
X358227Y23381*
X358336Y23437*
X358448Y23492*
X358563Y23546*
X358681Y23600*
X358802Y23654*
X358926Y23706*
X359052Y23756*
X359179Y23806*
X359309Y23854*
X359441Y23899*
X359573Y23943*
X359707Y23984*
X359843Y24022*
X359979Y24058*
X360116Y24091*
X360254Y24121*
X360391Y24147*
X360530Y24170*
X360667Y24188*
X360805Y24203*
X360942Y24213*
X361078Y24219*
X361213Y24219*
X361348Y24215*
X361481Y24206*
X361612Y24191*
X361744Y24175*
X361879Y24159*
X362015Y24145*
X362153Y24133*
X362292Y24122*
X362431Y24114*
X362570Y24108*
X362710Y24105*
X362848Y24104*
X362985Y24107*
X363120Y24112*
X363253Y24121*
X363384Y24133*
X363511Y24149*
X363635Y24169*
X363755Y24193*
X363870Y24221*
X363981Y24254*
X364086Y24291*
X364185Y24334*
X364278Y24381*
X364365Y24434*
X364444Y24493*
X364515Y24557*
X364579Y24627*
X364634Y24703*
X364680Y24785*
X364717Y24874*
X364743Y24970*
X364760Y25072*
X364765Y25182*
X364725Y25275*
X364674Y25362*
X364613Y25443*
X364542Y25519*
X364462Y25590*
X364374Y25656*
X364279Y25717*
X364176Y25773*
X364067Y25826*
X363951Y25874*
X363830Y25919*
X363704Y25961*
X363574Y25999*
X363440Y26035*
X363303Y26068*
X363164Y26098*
X363022Y26126*
X362880Y26153*
X362736Y26178*
X362592Y26202*
X362449Y26224*
X362306Y26246*
X362165Y26267*
X362026Y26287*
X361890Y26308*
X361757Y26328*
X361628Y26350*
X361504Y26372*
X361384Y26394*
X361270Y26418*
X361162Y26443*
X361102Y26470*
X361043Y26499*
X360987Y26529*
X360931Y26560*
X360878Y26592*
X360827Y26625*
X360777Y26659*
X360729Y26693*
X360683Y26727*
X360639Y26762*
X360597Y26797*
X360556Y26832*
X360518Y26866*
X360481Y26900*
X360446Y26934*
X360414Y26967*
X360383Y26998*
X360354Y27029*
X360328Y27058*
X360303Y27086*
X360281Y27113*
X360260Y27137*
X360241Y27160*
X360225Y27181*
X360211Y27199*
X360199Y27215*
X360189Y27229*
X360181Y27240*
X360176Y27248*
X360172Y27252*
X360171Y27254*
Y27263*
X360172Y27290*
X360174Y27333*
X360176Y27391*
X360178Y27463*
X360182Y27549*
X360186Y27646*
X360191Y27755*
X360196Y27874*
X360202Y28001*
X360209Y28135*
X360217Y28277*
X360225Y28424*
X360235Y28575*
X360244Y28730*
X360256Y28887*
X360267Y29045*
X360280Y29203*
X360293Y29360*
X360308Y29515*
X360323Y29667*
X360339Y29814*
X360357Y29956*
X360375Y30091*
X360394Y30219*
X360414Y30339*
X360435Y30448*
X360458Y30547*
X360481Y30634*
X360506Y30708*
X360531Y30767*
X360672Y30742*
X360833Y30716*
X361011Y30692*
X361206Y30668*
X361415Y30645*
X361638Y30623*
X361874Y30602*
X362120Y30582*
X362375Y30564*
X362637Y30546*
X362907Y30530*
X363181Y30515*
X363458Y30502*
X363738Y30489*
X364017Y30479*
X364296Y30470*
X364573Y30463*
X364846Y30458*
X365113Y30455*
X365373Y30454*
X365626Y30454*
X365869Y30457*
X366100Y30462*
X366319Y30469*
X366524Y30478*
X366713Y30490*
X366886Y30504*
X367040Y30521*
X367174Y30541*
X367287Y30562*
X367378Y30587*
X367466Y30488*
X367555Y30381*
X367645Y30270*
X367737Y30152*
X367829Y30030*
X367920Y29904*
X368013Y29775*
X368104Y29643*
X368195Y29509*
X368285Y29374*
X368374Y29239*
X368462Y29104*
X368547Y28969*
X368631Y28835*
X368712Y28704*
X368790Y28575*
X368866Y28450*
X368938Y28329*
X369007Y28213*
X369072Y28102*
X369132Y27997*
X369189Y27900*
X369241Y27809*
X369287Y27727*
X369328Y27653*
X369364Y27589*
X369394Y27535*
X369418Y27492*
X369435Y27460*
X369446Y27441*
X369450Y27434*
X369448Y27431*
X369444Y27420*
X369437Y27404*
X369428Y27380*
X369417Y27352*
X369403Y27319*
X369387Y27280*
X369369Y27237*
X369349Y27191*
X369327Y27141*
X369304Y27089*
X369278Y27033*
X369252Y26976*
X369224Y26917*
X369194Y26857*
X369164Y26796*
X369132Y26734*
X369100Y26673*
X369067Y26612*
X369032Y26553*
X368998Y26494*
X368962Y26438*
X368926Y26383*
X368891Y26332*
X368854Y26283*
X368818Y26239*
X368781Y26198*
X368745Y26161*
X368709Y26130*
X368674Y26104*
X368639Y26083*
X368558Y26072*
X368457Y26059*
X368336Y26041*
X368198Y26020*
X368044Y25994*
X367876Y25965*
X367696Y25932*
X367505Y25894*
X367305Y25852*
X367098Y25806*
X366885Y25755*
X366668Y25699*
X366449Y25638*
X366230Y25572*
X366011Y25501*
X365795Y25425*
X365584Y25343*
X365379Y25256*
X365182Y25163*
X364994Y25065*
X364818Y24960*
X364654Y24849*
X364506Y24732*
X364373Y24609*
X364259Y24480*
X364164Y24344*
X364091Y24201*
X364040Y24052*
X364015Y23895*
X364015Y23731*
X364044Y23561*
X364122Y23477*
X364199Y23400*
X364275Y23331*
X364350Y23268*
X364423Y23211*
X364496Y23160*
X364567Y23115*
X364638Y23076*
X364707Y23041*
X364776Y23012*
X364844Y22988*
X364910Y22968*
X364976Y22952*
X365041Y22941*
X365105Y22933*
X365168Y22928*
X365231Y22927*
X365292Y22929*
X365353Y22934*
X365413Y22941*
X365472Y22950*
X365531Y22961*
X365588Y22974*
X365645Y22989*
X365702Y23005*
X365757Y23021*
X365813Y23039*
X365867Y23057*
X365920Y23075*
X365974Y23093*
X366026Y23110*
X366083Y23129*
X366148Y23152*
X366221Y23176*
X366302Y23204*
X366389Y23233*
X366483Y23264*
X366583Y23296*
X366688Y23330*
X366798Y23364*
X366912Y23399*
X367030Y23434*
X367150Y23469*
X367274Y23502*
X367400Y23535*
X367528Y23568*
X367656Y23598*
X367785Y23627*
X367914Y23653*
X368043Y23677*
X368171Y23698*
X368297Y23717*
X368421Y23731*
X368543Y23742*
X368661Y23748*
X368776Y23750*
X368887Y23748*
X368993Y23740*
X369093Y23726*
X369189Y23707*
X369277Y23682*
X369359Y23651*
X369401Y23573*
X369440Y23496*
X369476Y23420*
X369509Y23346*
X369539Y23273*
X369567Y23201*
X369592Y23130*
X369616Y23061*
X369637Y22993*
X369657Y22925*
X369675Y22860*
X369692Y22795*
X369707Y22732*
X369722Y22671*
X369735Y22611*
X369749Y22552*
X369761Y22494*
X369774Y22438*
X369786Y22384*
X369798Y22331*
X369811Y22279*
X369824Y22229*
X369837Y22180*
X369852Y22133*
X369867Y22088*
X369883Y22044*
X369901Y22002*
X369921Y21961*
X369942Y21922*
X369965Y21885*
X369990Y21849*
X370017Y21814*
X370044Y21778*
X370074Y21743*
X370104Y21707*
X370135Y21671*
X370168Y21635*
X370202Y21600*
X370237Y21565*
X370273Y21530*
X370311Y21496*
X370350Y21464*
X370390Y21432*
X370431Y21402*
X370474Y21372*
X370519Y21344*
X370565Y21319*
X370612Y21294*
X370661Y21271*
X370711Y21251*
X370762Y21233*
X370815Y21217*
X370870Y21204*
X370926Y21193*
X370983Y21185*
X371043Y21180*
X371103Y21178*
X371166Y21179*
X371230Y21183*
X371295Y21191*
X371362Y21203*
X371431Y21219*
X371491Y21290*
X371547Y21363*
X371600Y21439*
X371650Y21517*
X371697Y21598*
X371742Y21679*
X371784Y21762*
X371824Y21846*
X371861Y21931*
X371897Y22017*
X371931Y22104*
X371962Y22190*
X371993Y22276*
X372021Y22363*
X372048Y22448*
X372075Y22533*
X372100Y22617*
X372124Y22700*
X372148Y22781*
X372170Y22861*
X372193Y22939*
X372215Y23015*
X372237Y23088*
X372258Y23159*
X372280Y23227*
X372302Y23291*
X372325Y23353*
X372348Y23411*
X372372Y23465*
X372396Y23515*
X372422Y23561*
X372499Y23612*
X372572Y23661*
X372643Y23707*
X372711Y23752*
X372776Y23795*
X372838Y23835*
X372898Y23874*
X372956Y23910*
X373011Y23945*
X373065Y23977*
X373117Y24008*
X373168Y24037*
X373217Y24064*
X373265Y24089*
X373311Y24113*
X373357Y24134*
X373402Y24154*
X373446Y24173*
X373491Y24190*
X373534Y24205*
X373578Y24219*
X373621Y24231*
X373665Y24242*
X373709Y24252*
X373754Y24260*
X373800Y24267*
X373846Y24272*
X373894Y24276*
X373942Y24279*
X373992Y24281*
X374044Y24281*
X374099Y24280*
X374159Y24275*
X374224Y24267*
X374294Y24257*
X374369Y24245*
X374448Y24230*
X374530Y24214*
X374616Y24196*
X374705Y24178*
X374796Y24158*
X374891Y24137*
X374987Y24117*
X375086Y24096*
X375186Y24075*
X375287Y24055*
X375390Y24035*
X375493Y24017*
X375596Y23999*
X375700Y23983*
X375804Y23969*
X375906Y23957*
X376008Y23948*
X376109Y23941*
X376208Y23936*
X376306Y23935*
X376401Y23938*
X376494Y23944*
X376585Y23954*
X376672Y23969*
X376756Y23987*
X376836Y24011*
X376914Y24039*
X376989Y24072*
X377063Y24109*
X377133Y24149*
X377201Y24193*
X377266Y24239*
X377326Y24289*
X377383Y24341*
X377437Y24396*
X377485Y24452*
X377529Y24511*
X377567Y24570*
X377601Y24631*
X377628Y24694*
X377650Y24756*
X377665Y24820*
X377674Y24883*
X377676Y24946*
X377670Y25009*
X377657Y25071*
X377636Y25132*
X377607Y25192*
X377569Y25251*
X377523Y25307*
X377467Y25362*
X377402Y25415*
X377328Y25465*
X377243Y25511*
X377148Y25555*
X377043Y25596*
X376926Y25633*
X376802Y25667*
X376671Y25702*
X376536Y25736*
X376396Y25770*
X376252Y25806*
X376103Y25841*
X375950Y25878*
X375793Y25917*
X375633Y25957*
X375470Y25998*
X375304Y26043*
X375135Y26089*
X374964Y26138*
X374791Y26190*
X374616Y26245*
X374439Y26304*
X374262Y26367*
X374083Y26433*
X373904Y26505*
X373723Y26580*
X373543Y26661*
X373363Y26746*
X373183Y26838*
X373004Y26935*
X372826Y27037*
X372649Y27146*
X372474Y27262*
X372300Y27384*
X372128Y27513*
X371959Y27650*
X371792Y27794*
X371706Y27956*
X371624Y28107*
X371544Y28252*
X371468Y28388*
X371394Y28518*
X371323Y28642*
X371254Y28760*
X371187Y28874*
X371122Y28984*
X371058Y29091*
X370996Y29195*
X370936Y29298*
X370877Y29399*
X370819Y29500*
X370761Y29602*
X370705Y29704*
X370649Y29808*
X370593Y29915*
X370537Y30025*
X370481Y30139*
X370425Y30257*
X370369Y30380*
X370311Y30510*
X370253Y30646*
X370194Y30790*
X370134Y30942*
X370073Y31103*
X370010Y31273*
X369945Y31454*
X369878Y31645*
X369810Y31848*
X369912Y31927*
X370028Y32009*
X370156Y32095*
X370296Y32187*
X370450Y32288*
X370617Y32398*
X370796Y32521*
X370988Y32658*
X371192Y32811*
X371409Y32981*
X371639Y33172*
X371881Y33384*
X372136Y33620*
X372404Y33881*
X372683Y34170*
X372975Y34489*
X373280Y34838*
X373596Y35221*
X373925Y35639*
X374267Y36094*
X374620Y36588*
X374985Y37123*
X375363Y37701*
X375753Y38324*
X376155Y38994*
X376569Y39712*
X376995Y40480*
X377433Y41302*
X377883Y42177*
X378344Y43109*
X378818Y44099*
X378776Y44211*
X378735Y44318*
X378697Y44422*
X378661Y44521*
X378627Y44617*
X378595Y44709*
X378565Y44797*
X378537Y44881*
X378510Y44962*
X378485Y45039*
X378463Y45112*
X378441Y45181*
X378422Y45246*
X378403Y45308*
X378387Y45367*
X378371Y45421*
X378357Y45472*
X378345Y45519*
X378333Y45563*
X378324Y45603*
X378315Y45639*
X378307Y45672*
X378300Y45701*
X378294Y45727*
X378289Y45750*
X378286Y45768*
X378283Y45783*
X378280Y45796*
X378279Y45804*
X378278Y45809*
X378278Y45811*
X378272Y45815*
X378255Y45828*
X378227Y45850*
X378190Y45881*
X378143Y45922*
X378089Y45972*
X378026Y46033*
X377955Y46104*
X377878Y46185*
X377796Y46278*
X377708Y46381*
X377615Y46496*
X377519Y46623*
X377419Y46762*
X377316Y46913*
X377211Y47076*
X377106Y47253*
X376999Y47442*
X376892Y47645*
X376786Y47861*
X376681Y48091*
X376578Y48335*
X376478Y48594*
X376381Y48868*
X376287Y49156*
X376199Y49459*
X376115Y49779*
X376037Y50114*
X375966Y50465*
X375902Y50832*
X375845Y51216*
X375739Y51313*
X375629Y51411*
X375516Y51510*
X375400Y51609*
X375283Y51710*
X375164Y51810*
X375044Y51911*
X374923Y52011*
X374802Y52110*
X374681Y52208*
X374561Y52304*
X374443Y52399*
X374325Y52492*
X374211Y52583*
X374098Y52670*
X373990Y52756*
X373884Y52837*
X373783Y52915*
X373686Y52990*
X373594Y53060*
X373508Y53126*
X373428Y53187*
X373354Y53242*
X373287Y53293*
X373228Y53337*
X373176Y53376*
X373133Y53408*
X373099Y53434*
X373073Y53452*
X373058Y53464*
X373053Y53468*
X373053Y53472*
X373054Y53482*
X373056Y53500*
X373058Y53524*
X373062Y53554*
X373067Y53590*
X373073Y53631*
X373080Y53679*
X373089Y53731*
X373099Y53788*
X373111Y53850*
X373124Y53916*
X373140Y53986*
X373157Y54060*
X373177Y54137*
X373199Y54218*
X373223Y54302*
X373250Y54388*
X373279Y54476*
X373310Y54567*
X373345Y54660*
X373382Y54754*
X373422Y54850*
X373465Y54947*
X373512Y55044*
X373562Y55142*
X373615Y55240*
X373671Y55339*
X373732Y55436*
X373796Y55533*
X373863Y55630*
X373762Y55736*
X373650Y55847*
X373530Y55963*
X373400Y56084*
X373263Y56213*
X373119Y56348*
X372970Y56493*
X372815Y56646*
X372657Y56809*
X372496Y56984*
X372333Y57170*
X372169Y57369*
X372005Y57581*
X371842Y57807*
X371680Y58048*
X371521Y58306*
X371365Y58579*
X371215Y58871*
X371069Y59181*
X370930Y59510*
X370798Y59859*
X370674Y60229*
X370559Y60621*
X370454Y61035*
X370361Y61473*
X370279Y61935*
X370209Y62422*
X370154Y62935*
X370114Y63475*
X370089Y64043*
X370080Y64638*
X369909Y64746*
X369728Y64858*
X369538Y64975*
X369339Y65097*
X369132Y65222*
X368917Y65352*
X368696Y65483*
X368469Y65618*
X368236Y65755*
X367998Y65893*
X367756Y66033*
X367511Y66173*
X367263Y66314*
X367013Y66455*
X366761Y66595*
X366508Y66735*
X366255Y66873*
X366002Y67009*
X365751Y67143*
X365501Y67275*
X365254Y67403*
X365009Y67528*
X364769Y67649*
X364532Y67765*
X364300Y67877*
X364075Y67983*
X363856Y68084*
X363643Y68179*
X363438Y68267*
X363241Y68348*
X363054Y68422*
X362947Y68395*
X362835Y68366*
X362720Y68336*
X362600Y68305*
X362476Y68273*
X362347Y68240*
X362214Y68207*
X362077Y68172*
X361937Y68138*
X361791Y68103*
X361643Y68068*
X361490Y68033*
X361333Y67999*
X361173Y67965*
X361009Y67931*
X360841Y67899*
X360670Y67867*
X360494Y67836*
X360316Y67807*
X360134Y67779*
X359948Y67752*
X359760Y67728*
X359568Y67705*
X359372Y67684*
X359174Y67666*
X358972Y67650*
X358768Y67636*
X358560Y67625*
X358349Y67617*
X358135Y67613*
X357919Y67611*
X357704Y67606*
X357494Y67594*
X357291Y67573*
X357093Y67545*
X356901Y67511*
X356716Y67470*
X356536Y67424*
X356363Y67372*
X356196Y67317*
X356036Y67258*
X355882Y67195*
X355735Y67130*
X355594Y67063*
X355460Y66994*
X355333Y66925*
X355214Y66856*
X355101Y66786*
X354995Y66717*
X354897Y66650*
X354806Y66585*
X354722Y66523*
X354646Y66463*
X354578Y66408*
X354517Y66357*
X354464Y66311*
X354419Y66270*
X354382Y66235*
X354353Y66207*
X354320Y66174*
X354316Y66170*
X354306Y66136*
X354232Y65877*
X354169Y65660*
X354089Y65390*
X353993Y65071*
X353881Y64708*
X353754Y64304*
X353613Y63864*
X353459Y63391*
X353291Y62890*
X353110Y62365*
X352918Y61819*
X352714Y61257*
X352500Y60683*
X352275Y60102*
X352041Y59516*
X351798Y58931*
X351546Y58350*
X351287Y57777*
X351021Y57217*
X350748Y56673*
X350469Y56150*
X350185Y55652*
X349896Y55182*
X349603Y54746*
X349307Y54346*
X349007Y53987*
X348706Y53674*
X348402Y53409*
X348097Y53198*
X348100Y53198*
X354870Y55720D02*
X354875Y55722D01*
X354889Y55729*
X354912Y55740*
X354946Y55755*
X354990Y55773*
X355045Y55794*
X355112Y55818*
X355190Y55843*
X355280Y55869*
X355383Y55897*
X355499Y55925*
X355628Y55954*
X355771Y55981*
X355929Y56008*
X356100Y56034*
X356287Y56058*
X356489Y56080*
X356707Y56099*
X356941Y56115*
X357192Y56127*
X357460Y56135*
X357745Y56139*
X358048Y56139*
X358369Y56132*
X358709Y56120*
X359068Y56102*
X359446Y56077*
X359844Y56044*
X360263Y56004*
X360702Y55956*
X361162Y55900*
X361104Y55815*
X361035Y55719*
X360957Y55613*
X360869Y55496*
X360773Y55371*
X360669Y55238*
X360557Y55098*
X360439Y54952*
X360315Y54800*
X360185Y54644*
X360051Y54485*
X359912Y54323*
X359770Y54160*
X359626Y53995*
X359479Y53831*
X359331Y53667*
X359182Y53506*
X359033Y53347*
X358884Y53192*
X358737Y53041*
X358591Y52896*
X358448Y52757*
X358308Y52625*
X358172Y52502*
X358040Y52387*
X357913Y52282*
X357792Y52187*
X357677Y52105*
X357570Y52035*
X357470Y51978*
X357378Y51936*
X357299Y52009*
X357219Y52087*
X357137Y52170*
X357054Y52258*
X356969Y52351*
X356884Y52448*
X356798Y52550*
X356712Y52656*
X356625Y52765*
X356537Y52879*
X356450Y52996*
X356362Y53116*
X356275Y53239*
X356187Y53365*
X356100Y53493*
X356014Y53624*
X355928Y53757*
X355843Y53891*
X355759Y54028*
X355676Y54166*
X355594Y54305*
X355513Y54446*
X355434Y54587*
X355357Y54728*
X355281Y54871*
X355207Y55013*
X355135Y55156*
X355065Y55297*
X354998Y55439*
X354933Y55580*
X354870Y55720*
X355600Y172885D02*
Y176635D01*
X357163Y174761*
X358725Y176635*
Y172885*
X360600Y174135D02*
Y175385D01*
X360913Y176011*
X361225Y176323*
X361850Y176635*
X362475*
X363100Y176323*
X363413Y176011*
X363725Y175385*
Y174135*
X363413Y173511*
X363100Y173198*
X362475Y172885*
X361850*
X361225Y173198*
X360913Y173511*
X360600Y174135*
X367163Y172885D02*
Y176635D01*
X365600D02*
X368725D01*
X370600Y174135D02*
Y175385D01*
X370913Y176011*
X371225Y176323*
X371850Y176635*
X372475*
X373100Y176323*
X373413Y176011*
X373725Y175385*
Y174135*
X373413Y173511*
X373100Y173198*
X372475Y172885*
X371850*
X371225Y173198*
X370913Y173511*
X370600Y174135*
X375600Y172885D02*
Y176635D01*
X377787*
X378413Y176323*
X378725Y175698*
X378413Y175073*
X377787Y174761*
X375600*
X377787D02*
X378725Y172885D01*
X356928Y60089D02*
X356928Y60019D01*
X356925Y59951*
X356920Y59883*
X356914Y59817*
X356906Y59752*
X356896Y59688*
X356885Y59626*
X356872Y59565*
X356857Y59506*
X356842Y59448*
X356824Y59392*
X356806Y59338*
X356786Y59286*
X356765Y59236*
X356742Y59188*
X356719Y59142*
X356694Y59099*
X356668Y59058*
X356641Y59019*
X356613Y58983*
X356584Y58950*
X356554Y58919*
X356524Y58891*
X356492Y58867*
X356460Y58845*
X356427Y58826*
X356393Y58811*
X356359Y58798*
X356324Y58789*
X356289Y58784*
X356253Y58782*
X356217Y58784*
X356181Y58789*
X356146Y58798*
X356112Y58811*
X356079Y58826*
X356046Y58845*
X356013Y58867*
X355982Y58891*
X355951Y58919*
X355922Y58950*
X355893Y58983*
X355865Y59019*
X355838Y59058*
X355812Y59099*
X355787Y59142*
X355763Y59188*
X355741Y59236*
X355720Y59286*
X355700Y59338*
X355681Y59392*
X355664Y59448*
X355648Y59506*
X355633Y59565*
X355621Y59626*
X355609Y59688*
X355600Y59752*
X355592Y59817*
X355585Y59883*
X355581Y59951*
X355578Y60019*
X355577Y60089*
X355578Y60158*
X355581Y60226*
X355585Y60294*
X355592Y60360*
X355600Y60425*
X355609Y60489*
X355621Y60551*
X355633Y60612*
X355648Y60671*
X355664Y60729*
X355681Y60785*
X355700Y60839*
X355720Y60891*
X355741Y60941*
X355763Y60989*
X355787Y61035*
X355812Y61078*
X355838Y61119*
X355865Y61158*
X355893Y61194*
X355922Y61227*
X355951Y61258*
X355982Y61285*
X356013Y61310*
X356046Y61332*
X356079Y61351*
X356112Y61367*
X356146Y61379*
X356181Y61387*
X356217Y61393*
X356253Y61395*
X356289Y61393*
X356324Y61387*
X356359Y61379*
X356393Y61367*
X356427Y61351*
X356460Y61332*
X356492Y61310*
X356524Y61285*
X356554Y61258*
X356584Y61227*
X356613Y61194*
X356641Y61158*
X356668Y61119*
X356694Y61078*
X356719Y61035*
X356742Y60989*
X356765Y60941*
X356786Y60891*
X356806Y60839*
X356824Y60785*
X356842Y60729*
X356857Y60671*
X356872Y60612*
X356885Y60551*
X356896Y60489*
X356906Y60425*
X356914Y60360*
X356920Y60294*
X356925Y60226*
X356928Y60158*
X356928Y60089*
X362783D02*
X362782Y60019D01*
X362780Y59951*
X362774Y59883*
X362768Y59817*
X362759Y59752*
X362749Y59688*
X362737Y59626*
X362723Y59565*
X362708Y59506*
X362691Y59448*
X362672Y59392*
X362653Y59338*
X362631Y59286*
X362609Y59236*
X362585Y59188*
X362559Y59142*
X362533Y59099*
X362506Y59058*
X362477Y59019*
X362447Y58983*
X362416Y58950*
X362384Y58919*
X362352Y58891*
X362318Y58867*
X362283Y58845*
X362248Y58826*
X362213Y58811*
X362176Y58798*
X362139Y58789*
X362101Y58784*
X362063Y58782*
X362044Y58783*
X362026Y58784*
X362007Y58786*
X361989Y58789*
X361971Y58793*
X361953Y58798*
X361935Y58803*
X361917Y58809*
X361899Y58817*
X361881Y58824*
X361864Y58833*
X361846Y58843*
X361830Y58853*
X361812Y58864*
X361795Y58876*
X361779Y58888*
X361762Y58902*
X361746Y58916*
X361730Y58930*
X361713Y58946*
X361698Y58962*
X361682Y58980*
X361667Y58997*
X361652Y59016*
X361637Y59035*
X361622Y59055*
X361608Y59076*
X361594Y59097*
X361580Y59119*
X361567Y59141*
X361553Y59165*
X361540Y59189*
X361528Y59213*
X361504Y59264*
X361493Y59290*
X361481Y59317*
X361471Y59343*
X361461Y59371*
X361451Y59398*
X361441Y59427*
X361432Y59456*
X361424Y59484*
X361408Y59543*
X361400Y59574*
X361393Y59604*
X361387Y59635*
X361381Y59666*
X361375Y59697*
X361370Y59728*
X361365Y59760*
X361361Y59792*
X361357Y59824*
X361354Y59857*
X361350Y59889*
X361348Y59922*
X361346Y59955*
X361344Y59989*
X361343Y60022*
X361342Y60055*
Y60089*
X361343Y60158*
X361346Y60226*
X361351Y60294*
X361357Y60360*
X361366Y60425*
X361376Y60489*
X361389Y60551*
X361402Y60612*
X361418Y60671*
X361435Y60729*
X361453Y60785*
X361473Y60839*
X361494Y60891*
X361517Y60941*
X361541Y60989*
X361566Y61035*
X361593Y61078*
X361620Y61119*
X361649Y61158*
X361679Y61194*
X361709Y61227*
X361741Y61258*
X361774Y61285*
X361807Y61310*
X361842Y61332*
X361877Y61351*
X361913Y61367*
X361950Y61379*
X361987Y61387*
X362024Y61393*
X362063Y61395*
X362101Y61393*
X362139Y61387*
X362176Y61379*
X362213Y61367*
X362248Y61351*
X362283Y61332*
X362318Y61310*
X362352Y61285*
X362384Y61258*
X362416Y61227*
X362447Y61194*
X362477Y61158*
X362506Y61119*
X362533Y61078*
X362559Y61035*
X362585Y60989*
X362609Y60941*
X362631Y60891*
X362653Y60839*
X362672Y60785*
X362691Y60729*
X362708Y60671*
X362723Y60612*
X362737Y60551*
X362749Y60489*
X362759Y60425*
X362768Y60360*
X362774Y60294*
X362780Y60226*
X362782Y60158*
X362783Y60089*
X369000Y44189D02*
X373954Y48874*
X373960Y48869D01*
X373969Y48863*
X373980Y48854*
X373994Y48841*
X374012Y48826*
X374032Y48807*
X374056Y48785*
X374081Y48758*
X374110Y48728*
X374142Y48693*
X374176Y48654*
X374212Y48611*
X374251Y48562*
X374293Y48508*
X374336Y48449*
X374382Y48385*
X374430Y48315*
X374480Y48239*
X374532Y48157*
X374586Y48070*
X374642Y47975*
X374699Y47874*
X374758Y47766*
X374819Y47651*
X374882Y47529*
X374946Y47399*
X375011Y47261*
X375078Y47116*
X375146Y46963*
X375215Y46802*
X375283Y46633*
X375348Y46460*
X375409Y46282*
X375468Y46100*
X375523Y45916*
X375575Y45728*
X375624Y45539*
X375671Y45348*
X375715Y45156*
X375756Y44964*
X375794Y44772*
X375830Y44581*
X375863Y44392*
X375894Y44206*
X375922Y44021*
X375948Y43840*
X375972Y43663*
X375994Y43491*
X376014Y43324*
X376031Y43162*
X376047Y43007*
X376061Y42859*
X376074Y42719*
X376084Y42586*
X376093Y42462*
X376100Y42348*
X376106Y42243*
X376110Y42150*
X376113Y42067*
X376115Y41996*
X376116Y41937*
X376115Y41885*
X376114Y41834*
X376112Y41783*
X376109Y41733*
X376105Y41685*
X376099Y41637*
X376091Y41590*
X376082Y41544*
X376071Y41500*
X376057Y41457*
X376041Y41416*
X376023Y41376*
X376002Y41338*
X375978Y41302*
X375950Y41267*
X375920Y41234*
X375886Y41204*
X375848Y41175*
X375807Y41148*
X375761Y41124*
X375712Y41103*
X375657Y41083*
X375599Y41067*
X375536Y41053*
X375467Y41041*
X375394Y41033*
X375315Y41028*
X375231Y41025*
X375142Y41026*
X375046Y41029*
X374944Y41036*
X374841Y41044*
X374740Y41051*
X374640Y41058*
X374540Y41066*
X374440Y41074*
X374338Y41085*
X374235Y41098*
X374128Y41115*
X374018Y41137*
X373903Y41163*
X373783Y41195*
X373657Y41233*
X373524Y41279*
X373383Y41333*
X373233Y41395*
X373074Y41467*
X372904Y41550*
X372724Y41643*
X372532Y41747*
X372327Y41865*
X372108Y41995*
X371876Y42139*
X371628Y42298*
X371363Y42473*
X371083Y42664*
X370784Y42871*
X370467Y43096*
X370131Y43340*
X369776Y43603*
X369398Y43886*
X369000Y44189*
X381850Y192885D02*
X382163Y189135D01*
X383413Y191011*
X384663Y189135*
X384975Y192885*
X386850Y189135D02*
Y192885D01*
Y191011D02*
X389975D01*
Y189135D02*
Y192885D01*
X392787Y189135D02*
X394037D01*
X393413D02*
Y192885D01*
X392787D02*
X394037D01*
X398413Y189135D02*
Y192885D01*
X396850D02*
X399975D01*
X401850Y189135D02*
Y192885D01*
X404975*
X404350Y191011D02*
X401850D01*
Y189135D02*
X404975D01*
X381850Y199135D02*
Y202885D01*
X384037*
X384663Y202573*
X384975Y201948*
X384663Y201323*
X384037Y201011*
X381850*
X384037D02*
X384975Y199135D01*
X386850D02*
Y202885D01*
X389975*
X389350Y201011D02*
X386850D01*
Y199135D02*
X389975D01*
X391850D02*
Y202885D01*
X393725*
X394350Y202573*
X394663Y202261*
X394975Y201635*
Y200385*
X394663Y199761*
X394350Y199448*
X393725Y199135*
X391850*
D02*
D12*
X68100Y29448D02*
X78100D01*
X73100Y24448D02*
Y34448D01*
X68100Y260698D02*
X78100D01*
D02*
D13*
X19037Y248823D02*
X19350Y248511D01*
X19663Y247885*
Y246948*
X19350Y246323*
X19037Y246011*
X18413Y245698*
X17163*
X16537Y246011*
X16225Y246323*
X15913Y246948*
Y247885*
X16225Y248511*
X16537Y248823*
X18413Y250698D02*
X17163D01*
X16537Y251011*
X16225Y251323*
X15913Y251948*
Y252573*
X16225Y253198*
X16537Y253511*
X17163Y253823*
X18413*
X19037Y253511*
X19350Y253198*
X19663Y252573*
Y251948*
X19350Y251323*
X19037Y251011*
X18413Y250698*
X19663Y255698D02*
X15913D01*
X19663Y258823*
X15913*
X19663Y260698D02*
X15913D01*
X19663Y263823*
X15913*
X19663Y266323D02*
Y267573D01*
Y266948D02*
X15913D01*
X16537Y266323*
X19350Y271011D02*
X19663Y271635D01*
Y272261*
X19350Y272885*
X18725Y273198*
X16850*
X16225Y272885*
X15913Y272261*
Y271635*
X16225Y271011*
X16850Y270698*
X18725*
X19350Y271011*
X16225Y272885*
X19663Y278198D02*
Y275698D01*
X17475Y277885*
X16850Y278198*
X16225Y277885*
X15913Y277261*
Y276323*
X16225Y275698*
X25663Y245698D02*
X21913D01*
X23787Y247261*
X21913Y248823*
X25663*
X25037Y253823D02*
X25350Y253511D01*
X25663Y252885*
Y251948*
X25350Y251323*
X25037Y251011*
X24413Y250698*
X23163*
X22537Y251011*
X22225Y251323*
X21913Y251948*
Y252885*
X22225Y253511*
X22537Y253823*
X21913Y255698D02*
X24725D01*
X25350Y256011*
X25663Y256635*
Y257885*
X25350Y258511*
X24725Y258823*
X21913*
X25663Y266635D02*
Y267885D01*
Y267261D02*
X21913D01*
Y266635D02*
Y267885D01*
X25037Y273823D02*
X25350Y273511D01*
X25663Y272885*
Y271948*
X25350Y271323*
X25037Y271011*
X24413Y270698*
X23163*
X22537Y271011*
X22225Y271323*
X21913Y271948*
Y272885*
X22225Y273511*
X22537Y273823*
X24725Y275698D02*
X25350Y276011D01*
X25663Y276635*
Y277885*
X25350Y278511*
X24725Y278823*
X24100Y278511*
X23787Y277885*
Y276635*
X23475Y276011*
X22850Y275698*
X22225Y276011*
X21913Y276635*
Y277885*
X22225Y278511*
X22850Y278823*
X25663Y280698D02*
X21913D01*
Y282885*
X22225Y283511*
X22850Y283823*
X23475Y283511*
X23787Y282885*
Y280698*
X28100Y265698D02*
Y305698D01*
X48100*
Y245698*
X28100*
Y265698*
X42787Y196011D02*
X43413Y195698D01*
X43725Y195073*
X43413Y194448*
X42787Y194135*
X40600*
Y197885*
X42787*
X43413Y197573*
X43725Y196948*
X43413Y196323*
X42787Y196011*
X40600*
X47163Y194135D02*
Y197885D01*
X45600D02*
X48725D01*
X50600Y194135D02*
Y197885D01*
X53725Y194135*
Y197885*
X56225Y194135D02*
X57475D01*
X56850D02*
Y197885D01*
X56225Y197261*
X60913Y194448D02*
X61537Y194135D01*
X62163*
X62787Y194448*
X63100Y195073*
Y196948*
X62787Y197573*
X62163Y197885*
X61537*
X60913Y197573*
X60600Y196948*
Y195073*
X60913Y194448*
X62787Y197573*
X68100Y194135D02*
X65600D01*
X67787Y196323*
X68100Y196948*
X67787Y197573*
X67163Y197885*
X66225*
X65600Y197573*
X42787Y218511D02*
X43413Y218198D01*
X43725Y217573*
X43413Y216948*
X42787Y216635*
X40600*
Y220385*
X42787*
X43413Y220073*
X43725Y219448*
X43413Y218823*
X42787Y218511*
X40600*
X47163Y216635D02*
Y220385D01*
X45600D02*
X48725D01*
X50600Y216635D02*
Y220385D01*
X53725Y216635*
Y220385*
X56225Y216635D02*
X57475D01*
X56850D02*
Y220385D01*
X56225Y219761*
X60913Y216948D02*
X61537Y216635D01*
X62163*
X62787Y216948*
X63100Y217573*
Y219448*
X62787Y220073*
X62163Y220385*
X61537*
X60913Y220073*
X60600Y219448*
Y217573*
X60913Y216948*
X62787Y220073*
X66225Y216635D02*
X67475D01*
X66850D02*
Y220385D01*
X66225Y219761*
X46225Y66011D02*
X45913Y65698D01*
X45287Y65385*
X44350*
X43725Y65698*
X43413Y66011*
X43100Y66635*
Y67885*
X43413Y68511*
X43725Y68823*
X44350Y69135*
X45287*
X45913Y68823*
X46225Y68511*
X48100Y66635D02*
Y67885D01*
X48413Y68511*
X48725Y68823*
X49350Y69135*
X49975*
X50600Y68823*
X50913Y68511*
X51225Y67885*
Y66635*
X50913Y66011*
X50600Y65698*
X49975Y65385*
X49350*
X48725Y65698*
X48413Y66011*
X48100Y66635*
X53100Y65385D02*
Y69135D01*
X56225Y65385*
Y69135*
X58100Y65385D02*
Y69135D01*
X61225Y65385*
Y69135*
X63725Y65385D02*
X64975D01*
X64350D02*
Y69135D01*
X63725Y68511*
X68413Y65698D02*
X69037Y65385D01*
X69663*
X70287Y65698*
X70600Y66323*
Y68198*
X70287Y68823*
X69663Y69135*
X69037*
X68413Y68823*
X68100Y68198*
Y66323*
X68413Y65698*
X70287Y68823*
X73725Y65385D02*
X74975D01*
X74350D02*
Y69135D01*
X73725Y68511*
X79052Y386348D02*
X244288D01*
Y375048*
X81552*
X79052Y377548*
Y386348*
X82646Y388511D02*
X82333Y388198D01*
X81708Y387885*
X80770*
X80146Y388198*
X79833Y388511*
X79520Y389135*
Y390385*
X79833Y391011*
X80146Y391323*
X80770Y391635*
X81708*
X82333Y391323*
X82646Y391011*
X84520Y389135D02*
Y390385D01*
X84833Y391011*
X85146Y391323*
X85770Y391635*
X86396*
X87020Y391323*
X87333Y391011*
X87646Y390385*
Y389135*
X87333Y388511*
X87020Y388198*
X86396Y387885*
X85770*
X85146Y388198*
X84833Y388511*
X84520Y389135*
X89520Y387885D02*
Y391635D01*
X92646Y387885*
Y391635*
X94520Y387885D02*
Y391635D01*
X97646Y387885*
Y391635*
X100146Y387885D02*
X101396D01*
X100770D02*
Y391635D01*
X100146Y391011*
X104833Y388198D02*
X105458Y387885D01*
X106083*
X106708Y388198*
X107020Y388823*
Y390698*
X106708Y391323*
X106083Y391635*
X105458*
X104833Y391323*
X104520Y390698*
Y388823*
X104833Y388198*
X106708Y391323*
X109833Y388198D02*
X110458Y387885D01*
X111083*
X111708Y388198*
X112020Y388823*
X111708Y389448*
X111083Y389761*
X110458*
X111083D02*
X111708Y390073D01*
X112020Y390698*
X111708Y391323*
X111083Y391635*
X110458*
X109833Y391323*
X130287Y317261D02*
X130913Y316948D01*
X131225Y316323*
X130913Y315698*
X130287Y315385*
X128100*
Y319135*
X130287*
X130913Y318823*
X131225Y318198*
X130913Y317573*
X130287Y317261*
X128100*
X133100Y315385D02*
X134663Y319135D01*
X136225Y315385*
X133725Y316948D02*
X135600D01*
X139663Y315385D02*
Y319135D01*
X138100D02*
X141225D01*
X144663Y315385D02*
Y319135D01*
X143100D02*
X146225D01*
X148725Y315385D02*
X149975D01*
X149350D02*
Y319135D01*
X148725Y318511*
X153413Y315698D02*
X154037Y315385D01*
X154663*
X155287Y315698*
X155600Y316323*
Y318198*
X155287Y318823*
X154663Y319135*
X154037*
X153413Y318823*
X153100Y318198*
Y316323*
X153413Y315698*
X155287Y318823*
X158725Y315385D02*
X159975D01*
X159350D02*
Y319135D01*
X158725Y318511*
X159970Y312233D02*
X81230D01*
Y19163*
X159970*
Y312233*
X189975Y299761D02*
X189663Y299448D01*
X189037Y299135*
X188100*
X187475Y299448*
X187163Y299761*
X186850Y300385*
Y301635*
X187163Y302261*
X187475Y302573*
X188100Y302885*
X189037*
X189663Y302573*
X189975Y302261*
X191850Y300385D02*
Y301635D01*
X192163Y302261*
X192475Y302573*
X193100Y302885*
X193725*
X194350Y302573*
X194663Y302261*
X194975Y301635*
Y300385*
X194663Y299761*
X194350Y299448*
X193725Y299135*
X193100*
X192475Y299448*
X192163Y299761*
X191850Y300385*
X196850Y299135D02*
Y302885D01*
X199975Y299135*
Y302885*
X201850Y299135D02*
Y302885D01*
X204975Y299135*
Y302885*
X209350Y299135D02*
X206850D01*
X209037Y301323*
X209350Y301948*
X209037Y302573*
X208413Y302885*
X207475*
X206850Y302573*
X212163Y299448D02*
X212787Y299135D01*
X213413*
X214037Y299448*
X214350Y300073*
Y301948*
X214037Y302573*
X213413Y302885*
X212787*
X212163Y302573*
X211850Y301948*
Y300073*
X212163Y299448*
X214037Y302573*
X219350Y299135D02*
X216850D01*
X219037Y301323*
X219350Y301948*
X219037Y302573*
X218413Y302885*
X217475*
X216850Y302573*
X358725Y179761D02*
X358413Y179448D01*
X357787Y179135*
X356850*
X356225Y179448*
X355913Y179761*
X355600Y180385*
Y181635*
X355913Y182261*
X356225Y182573*
X356850Y182885*
X357787*
X358413Y182573*
X358725Y182261*
X360600Y180385D02*
Y181635D01*
X360913Y182261*
X361225Y182573*
X361850Y182885*
X362475*
X363100Y182573*
X363413Y182261*
X363725Y181635*
Y180385*
X363413Y179761*
X363100Y179448*
X362475Y179135*
X361850*
X361225Y179448*
X360913Y179761*
X360600Y180385*
X365600Y179135D02*
Y182885D01*
X368725Y179135*
Y182885*
X370600Y179135D02*
Y182885D01*
X373725Y179135*
Y182885*
X378100Y179135D02*
X375600D01*
X377787Y181323*
X378100Y181948*
X377787Y182573*
X377163Y182885*
X376225*
X375600Y182573*
X380913Y179448D02*
X381537Y179135D01*
X382163*
X382787Y179448*
X383100Y180073*
Y181948*
X382787Y182573*
X382163Y182885*
X381537*
X380913Y182573*
X380600Y181948*
Y180073*
X380913Y179448*
X382787Y182573*
X386225Y179135D02*
X387475D01*
X386850D02*
Y182885D01*
X386225Y182261*
D02*
D14*
X42600Y200198D02*
X63600D01*
Y211198*
X42600*
Y200198*
Y222698D02*
X63600D01*
Y233698*
X42600*
Y222698*
X68139Y62732D02*
X48061D01*
Y39132*
X68139*
Y62732*
X208600Y305698D02*
Y346698D01*
X197600*
Y305698*
X208600*
X356066Y205737D02*
Y185659D01*
X379666*
Y205737*
X356066*
X0Y0D02*
M02*
