G04 EasyPC Gerber Version 21.0.3 Build 4286 *
G04 #@! TF.Part,Single*
G04 #@! TF.FileFunction,Drillmap *
G04 #@! TF.FilePolarity,Positive *
%FSLAX35Y35*%
%MOIN*%
%ADD13C,0.00500*%
%ADD10C,0.01200*%
G04 #@! TA.AperFunction,WasherPad*
%ADD143C,0.10000*%
X0Y0D02*
D02*
D10*
X418710Y123434D02*
Y160835D01*
G75*
G02X424616Y166741I5906*
G01*
Y346899*
G75*
G02X391820Y379694J32795*
G01*
Y423198*
X33395*
X33395Y379694*
G75*
G02X600Y346898I-32795*
G01*
Y166741*
G75*
G02X6506Y160836J-5906*
G01*
Y123434*
G75*
G02X600Y117529I-5906*
G01*
Y79497*
G75*
G02X33395Y46702J-32795*
G01*
Y3198*
X391820*
Y46702*
G75*
G02X424616Y79497I32795*
G01*
Y117529*
G75*
G02X418710Y123434J5905*
G01*
D02*
D13*
X29694Y108900D02*
X31257Y112650D01*
X32819Y108900*
X30319Y110462D02*
X32194D01*
X29694Y219135D02*
X31257Y222885D01*
X32819Y219135*
X30319Y220698D02*
X32194D01*
X29694Y329371D02*
X31257Y333121D01*
X32819Y329371*
X30319Y330934D02*
X32194D01*
X38100Y282135D02*
Y285885D01*
X41225*
X40600Y284011D02*
X38100D01*
X42300Y291535D02*
Y295285D01*
X45425*
X44800Y293411D02*
X42300D01*
X48100Y256635D02*
Y260385D01*
X51225*
X50600Y258511D02*
X48100D01*
Y256635D02*
X51225D01*
X48100Y266635D02*
Y270385D01*
X51225*
X50600Y268511D02*
X48100D01*
Y266635D02*
X51225D01*
X48100Y276635D02*
Y280385D01*
X51225*
X50600Y278511D02*
X48100D01*
Y276635D02*
X51225D01*
X48100Y286635D02*
Y290385D01*
X51225*
X50600Y288511D02*
X48100D01*
Y286635D02*
X51225D01*
X48100Y296635D02*
Y300385D01*
X51225*
X50600Y298511D02*
X48100D01*
Y296635D02*
X51225D01*
X48100Y306635D02*
Y310385D01*
X51225*
X50600Y308511D02*
X48100D01*
Y306635D02*
X51225D01*
X58100Y211635D02*
Y215385D01*
X61225*
X60600Y213511D02*
X58100D01*
Y211635D02*
X61225D01*
X58100Y234135D02*
Y237885D01*
X61225*
X60600Y236011D02*
X58100D01*
Y234135D02*
X61225D01*
X58350Y65035D02*
Y68785D01*
X61475*
X60850Y66911D02*
X58350D01*
Y69535D02*
Y73285D01*
X61475*
X60850Y71411D02*
X58350D01*
X58600Y114135D02*
Y117885D01*
X61725*
X61100Y116011D02*
X58600D01*
Y121589D02*
Y125339D01*
X61725*
X61100Y123464D02*
X58600D01*
Y129135D02*
Y132885D01*
X61725*
X61100Y131011D02*
X58600D01*
X66225Y55894D02*
X65913Y55582D01*
X65287Y55269*
X64350*
X63725Y55582*
X63413Y55894*
X63100Y56519*
Y57769*
X63413Y58394*
X63725Y58707*
X64350Y59019*
X65287*
X65913Y58707*
X66225Y58394*
X63100Y62135D02*
Y65885D01*
X66225*
X65600Y64011D02*
X63100D01*
Y109385D02*
Y113135D01*
X66225*
X65600Y111261D02*
X63100D01*
X68100Y211635D02*
Y215385D01*
X71225*
X70600Y213511D02*
X68100D01*
Y211635D02*
X71225D01*
X68100Y234135D02*
Y237885D01*
X71225*
X70600Y236011D02*
X68100D01*
Y234135D02*
X71225D01*
X71100Y94385D02*
Y98135D01*
X74225*
X73600Y96261D02*
X71100D01*
X71860Y88970D02*
Y92720D01*
X74985*
X74360Y90846D02*
X71860D01*
X76225Y55894D02*
X75913Y55582D01*
X75287Y55269*
X74350*
X73725Y55582*
X73413Y55894*
X73100Y56519*
Y57769*
X73413Y58394*
X73725Y58707*
X74350Y59019*
X75287*
X75913Y58707*
X76225Y58394*
X74970Y289372D02*
X76533Y293122D01*
X78095Y289372*
X75595Y290934D02*
X77470D01*
X74970Y411419D02*
X76533Y415169D01*
X78095Y411419*
X75595Y412981D02*
X77470D01*
X79250Y107945D02*
Y111695D01*
X82375*
X81750Y109820D02*
X79250D01*
X80488Y121635D02*
Y125385D01*
X83613*
X82988Y123511D02*
X80488D01*
X83550Y107945D02*
Y111695D01*
X86675*
X86050Y109820D02*
X83550D01*
X87150Y113095D02*
Y116845D01*
X90275*
X89650Y114970D02*
X87150D01*
X88100Y126589D02*
Y130339D01*
X91225*
X90600Y128464D02*
X88100D01*
X89300Y116682D02*
Y120432D01*
X92425*
X91800Y118557D02*
X89300D01*
X93285Y85198D02*
Y88948D01*
X96410*
X95785Y87074D02*
X93285D01*
X96670Y386635D02*
Y390385D01*
X98545*
X99170Y390073*
X99483Y389761*
X99795Y389135*
Y387885*
X99483Y387261*
X99170Y386948*
X98545Y386635*
X96670*
X96860Y88970D02*
Y92720D01*
X99985*
X99360Y90846D02*
X96860D01*
X98600Y193535D02*
Y197285D01*
X101725*
X101100Y195411D02*
X98600D01*
Y197035D02*
Y200785D01*
X101725*
X101100Y198911D02*
X98600D01*
X100600Y391926D02*
Y395676D01*
X103725*
X103100Y393802D02*
X100600D01*
Y401344D02*
Y405094D01*
X103725*
X103100Y403220D02*
X100600D01*
X102150Y56635D02*
Y60385D01*
X105275*
X104650Y58511D02*
X102150D01*
X102170Y376635D02*
Y380385D01*
X105295*
X104670Y378511D02*
X102170D01*
X106670Y386635D02*
Y390385D01*
X108545*
X109170Y390073*
X109483Y389761*
X109795Y389135*
Y387885*
X109483Y387261*
X109170Y386948*
X108545Y386635*
X106670*
X107300Y51485D02*
Y55235D01*
X110425*
X109800Y53361D02*
X107300D01*
Y61785D02*
Y65535D01*
X110425*
X109800Y63661D02*
X107300D01*
X111250Y381135D02*
Y384885D01*
X114375*
X113750Y383011D02*
X111250D01*
X112450Y56635D02*
Y60385D01*
X115575*
X114950Y58511D02*
X112450D01*
X116670Y386635D02*
Y390385D01*
X118545*
X119170Y390073*
X119483Y389761*
X119795Y389135*
Y387885*
X119483Y387261*
X119170Y386948*
X118545Y386635*
X116670*
X117600Y114135D02*
Y117885D01*
X120725*
X120100Y116011D02*
X117600D01*
Y129135D02*
Y132885D01*
X120725*
X120100Y131011D02*
X117600D01*
Y180535D02*
Y184285D01*
X120725*
X120100Y182411D02*
X117600D01*
Y184635D02*
Y188385D01*
X120725*
X120100Y186511D02*
X117600D01*
X122787Y79022D02*
X123413Y78710D01*
X123725Y78085*
X123413Y77460*
X122787Y77147*
X120600*
Y80897*
X122787*
X123413Y80585*
X123725Y79960*
X123413Y79335*
X122787Y79022*
X120600*
X122787Y267999D02*
X123413Y267686D01*
X123725Y267061*
X123413Y266436*
X122787Y266124*
X120600*
Y269874*
X122787*
X123413Y269561*
X123725Y268936*
X123413Y268311*
X122787Y267999*
X120600*
X126670Y386635D02*
Y390385D01*
X128545*
X129170Y390073*
X129483Y389761*
X129795Y389135*
Y387885*
X129483Y387261*
X129170Y386948*
X128545Y386635*
X126670*
X128100Y209135D02*
Y212885D01*
X131225*
X130600Y211011D02*
X128100D01*
Y214135D02*
Y217885D01*
X131225*
X130600Y216011D02*
X128100D01*
X130000Y151635D02*
Y155385D01*
X133125*
X132500Y153511D02*
X130000D01*
Y156011D02*
Y159761D01*
X133125*
X132500Y157886D02*
X130000D01*
Y160385D02*
Y164135D01*
X133125*
X132500Y162261D02*
X130000D01*
X132787Y49022D02*
X133413Y48710D01*
X133725Y48085*
X133413Y47460*
X132787Y47147*
X130600*
Y50897*
X132787*
X133413Y50585*
X133725Y49960*
X133413Y49335*
X132787Y49022*
X130600*
X132787Y297999D02*
X133413Y297686D01*
X133725Y297061*
X133413Y296436*
X132787Y296124*
X130600*
Y299874*
X132787*
X133413Y299561*
X133725Y298936*
X133413Y298311*
X132787Y297999*
X130600*
X132175Y223735D02*
Y227485D01*
X135300*
X134675Y225611D02*
X132175D01*
X133100Y209135D02*
Y212885D01*
X136225*
X135600Y211011D02*
X133100D01*
Y214135D02*
Y217885D01*
X136225*
X135600Y216011D02*
X133100D01*
X134250Y200187D02*
Y203937D01*
X137375*
X136750Y202062D02*
X134250D01*
X136670Y386635D02*
Y390385D01*
X138545*
X139170Y390073*
X139483Y389761*
X139795Y389135*
Y387885*
X139483Y387261*
X139170Y386948*
X138545Y386635*
X136670*
X139850Y165885D02*
Y169635D01*
X142975*
X142350Y167760D02*
X139850D01*
X142787Y79022D02*
X143413Y78710D01*
X143725Y78085*
X143413Y77460*
X142787Y77147*
X140600*
Y80897*
X142787*
X143413Y80585*
X143725Y79960*
X143413Y79335*
X142787Y79022*
X140600*
Y144435D02*
Y148185D01*
X143725*
X143100Y146311D02*
X140600D01*
Y149135D02*
Y152885D01*
X143725*
X143100Y151011D02*
X140600D01*
X142787Y267999D02*
X143413Y267686D01*
X143725Y267061*
X143413Y266436*
X142787Y266124*
X140600*
Y269874*
X142787*
X143413Y269561*
X143725Y268936*
X143413Y268311*
X142787Y267999*
X140600*
X144350Y184187D02*
Y187937D01*
X147475*
X146850Y186062D02*
X144350D01*
X145600Y139135D02*
Y142885D01*
X148725*
X148100Y141011D02*
X145600D01*
X145663Y236635D02*
Y240385D01*
X148788*
X148163Y238511D02*
X145663D01*
X146670Y386635D02*
Y390385D01*
X148545*
X149170Y390073*
X149483Y389761*
X149795Y389135*
Y387885*
X149483Y387261*
X149170Y386948*
X148545Y386635*
X146670*
X148100Y176135D02*
Y179885D01*
X151225*
X150600Y178011D02*
X148100D01*
X148175Y187885D02*
Y191635D01*
X151300*
X150675Y189761D02*
X148175D01*
Y193535D02*
Y197285D01*
X151300*
X150675Y195411D02*
X148175D01*
Y197485D02*
Y201235D01*
X151300*
X150675Y199361D02*
X148175D01*
X150413Y243635D02*
Y247385D01*
X153538*
X152913Y245511D02*
X150413D01*
X150600Y139135D02*
Y142885D01*
X153725*
X153100Y141011D02*
X150600D01*
X153147Y254135D02*
Y257885D01*
X156272*
X155647Y256011D02*
X153147D01*
X155163Y236635D02*
Y240385D01*
X158288*
X157663Y238511D02*
X155163D01*
X156154Y149674D02*
Y153424D01*
X159279*
X158654Y151550D02*
X156154D01*
X156328Y249674D02*
Y253424D01*
X159453*
X158828Y251550D02*
X156328D01*
X156670Y386635D02*
Y390385D01*
X158545*
X159170Y390073*
X159483Y389761*
X159795Y389135*
Y387885*
X159483Y387261*
X159170Y386948*
X158545Y386635*
X156670*
X158100Y88970D02*
Y92720D01*
X161225*
X160600Y90846D02*
X158100D01*
X158646Y152167D02*
Y155917D01*
X161771*
X161146Y154042D02*
X158646D01*
X159872Y249674D02*
Y253424D01*
X162997*
X162372Y251550D02*
X159872D01*
X161037Y236635D02*
Y240385D01*
X164162*
X163537Y238511D02*
X161037D01*
X163053Y254135D02*
Y257885D01*
X166178*
X165553Y256011D02*
X163053D01*
X165787Y243635D02*
Y247385D01*
X168912*
X168287Y245511D02*
X165787D01*
X166100Y121635D02*
Y125385D01*
X169225*
X168600Y123511D02*
X166100D01*
X166250Y139135D02*
Y142885D01*
X169375*
X168750Y141011D02*
X166250D01*
X166670Y386635D02*
Y390385D01*
X168545*
X169170Y390073*
X169483Y389761*
X169795Y389135*
Y387885*
X169483Y387261*
X169170Y386948*
X168545Y386635*
X166670*
X170537Y236635D02*
Y240385D01*
X173662*
X173037Y238511D02*
X170537D01*
X170600Y144285D02*
Y148035D01*
X173725*
X173100Y146161D02*
X170600D01*
X175950Y94785D02*
Y98535D01*
X179075*
X178450Y96661D02*
X175950D01*
X176350Y90385D02*
Y94135D01*
X179475*
X178850Y92261D02*
X176350D01*
X176550Y141635D02*
Y145385D01*
X179675*
X179050Y143511D02*
X176550D01*
X176670Y386635D02*
Y390385D01*
X178545*
X179170Y390073*
X179483Y389761*
X179795Y389135*
Y387885*
X179483Y387261*
X179170Y386948*
X178545Y386635*
X176670*
X180246Y95385D02*
Y99135D01*
X183371*
X182746Y97261D02*
X180246D01*
X186670Y386635D02*
Y390385D01*
X188545*
X189170Y390073*
X189483Y389761*
X189795Y389135*
Y387885*
X189483Y387261*
X189170Y386948*
X188545Y386635*
X186670*
X189300Y89335D02*
Y93085D01*
X192425*
X191800Y91211D02*
X189300D01*
X194439Y125443D02*
Y129193D01*
X197564*
X196939Y127318D02*
X194439D01*
X196670Y386635D02*
Y390385D01*
X198545*
X199170Y390073*
X199483Y389761*
X199795Y389135*
Y387885*
X199483Y387261*
X199170Y386948*
X198545Y386635*
X196670*
X197324Y130296D02*
Y134046D01*
X200449*
X199824Y132172D02*
X197324D01*
X202150Y141635D02*
Y145385D01*
X205275*
X204650Y143511D02*
X202150D01*
X206670Y386635D02*
Y390385D01*
X208545*
X209170Y390073*
X209483Y389761*
X209795Y389135*
Y387885*
X209483Y387261*
X209170Y386948*
X208545Y386635*
X206670*
X206850Y133985D02*
Y137735D01*
X209975*
X209350Y135861D02*
X206850D01*
X212450Y139135D02*
Y142885D01*
X215575*
X214950Y141011D02*
X212450D01*
X213100Y317135D02*
Y320885D01*
X214975*
X215600Y320573*
X215913Y320261*
X216225Y319635*
Y318385*
X215913Y317761*
X215600Y317448*
X214975Y317135*
X213100*
Y327135D02*
Y330885D01*
X214975*
X215600Y330573*
X215913Y330261*
X216225Y329635*
Y328385*
X215913Y327761*
X215600Y327448*
X214975Y327135*
X213100*
Y337135D02*
Y340885D01*
X214975*
X215600Y340573*
X215913Y340261*
X216225Y339635*
Y338385*
X215913Y337761*
X215600Y337448*
X214975Y337135*
X213100*
Y347135D02*
Y350885D01*
X214975*
X215600Y350573*
X215913Y350261*
X216225Y349635*
Y348385*
X215913Y347761*
X215600Y347448*
X214975Y347135*
X213100*
X216670Y386635D02*
Y390385D01*
X218545*
X219170Y390073*
X219483Y389761*
X219795Y389135*
Y387885*
X219483Y387261*
X219170Y386948*
X218545Y386635*
X216670*
X219445Y164017D02*
X221007Y167767D01*
X222570Y164017*
X220070Y165580D02*
X221945D01*
X219445Y203387D02*
X221007Y207137D01*
X222570Y203387*
X220070Y204950D02*
X221945D01*
X219445Y242757D02*
X221007Y246507D01*
X222570Y242757*
X220070Y244320D02*
X221945D01*
X220600Y341635D02*
Y345385D01*
X223725*
X223100Y343511D02*
X220600D01*
X222608Y22285D02*
X224170Y26035D01*
X225733Y22285*
X223233Y23848D02*
X225108D01*
X222608Y415985D02*
X224170Y419735D01*
X225733Y415985*
X223233Y417548D02*
X225108D01*
X225350Y334135D02*
Y337885D01*
X228475*
X227850Y336011D02*
X225350D01*
X226670Y386635D02*
Y390385D01*
X228545*
X229170Y390073*
X229483Y389761*
X229795Y389135*
Y387885*
X229483Y387261*
X229170Y386948*
X228545Y386635*
X226670*
X234355Y375585D02*
Y379335D01*
X237480*
X236855Y377461D02*
X234355D01*
X236670Y386635D02*
Y390385D01*
X238545*
X239170Y390073*
X239483Y389761*
X239795Y389135*
Y387885*
X239483Y387261*
X239170Y386948*
X238545Y386635*
X236670*
X241505Y377785D02*
Y381535D01*
X244630*
X244005Y379661D02*
X241505D01*
X242250Y392035D02*
Y395785D01*
X245375*
X244750Y393911D02*
X242250D01*
Y401235D02*
Y404985D01*
X245375*
X244750Y403111D02*
X242250D01*
X246170Y359385D02*
Y363135D01*
X249295*
X248670Y361261D02*
X246170D01*
X246670Y386635D02*
Y390385D01*
X248545*
X249170Y390073*
X249483Y389761*
X249795Y389135*
Y387885*
X249483Y387261*
X249170Y386948*
X248545Y386635*
X246670*
X251170Y364135D02*
Y367885D01*
X254295*
X253670Y366011D02*
X251170D01*
Y396635D02*
Y400385D01*
X254295*
X253670Y398511D02*
X251170D01*
X252350Y200385D02*
Y204135D01*
X255475*
X254850Y202261D02*
X252350D01*
X257350Y205135D02*
Y208885D01*
X260475*
X259850Y207011D02*
X257350D01*
X261850Y205135D02*
Y208885D01*
X264975*
X264350Y207011D02*
X261850D01*
X279010Y198131D02*
Y201881D01*
X282135*
X281510Y200007D02*
X279010D01*
Y203131D02*
Y206881D01*
X282135*
X281510Y205007D02*
X279010D01*
Y208131D02*
Y211881D01*
X282135*
X281510Y210007D02*
X279010D01*
X283600Y191635D02*
Y195385D01*
X286725*
X286100Y193511D02*
X283600D01*
Y195631D02*
Y199381D01*
X286725*
X286100Y197507D02*
X283600D01*
X284160Y213385D02*
Y217135D01*
X287285*
X286660Y215261D02*
X284160D01*
X297360Y180481D02*
Y184231D01*
X300485*
X299860Y182357D02*
X297360D01*
X301100Y180128D02*
Y183878D01*
X304225*
X303600Y182003D02*
X301100D01*
X304084Y182178D02*
Y185928D01*
X307209*
X306584Y184054D02*
X304084D01*
X318260Y213385D02*
Y217135D01*
X321385*
X320760Y215261D02*
X318260D01*
X318600Y191635D02*
Y195385D01*
X321725*
X321100Y193511D02*
X318600D01*
Y195631D02*
Y199381D01*
X321725*
X321100Y197507D02*
X318600D01*
X323410Y198131D02*
Y201881D01*
X326535*
X325910Y200007D02*
X323410D01*
Y203131D02*
Y206881D01*
X326535*
X325910Y205007D02*
X323410D01*
Y208131D02*
Y211881D01*
X326535*
X325910Y210007D02*
X323410D01*
X370246Y289372D02*
X371809Y293122D01*
X373371Y289372*
X370871Y290934D02*
X372746D01*
X370246Y411419D02*
X371809Y415169D01*
X373371Y411419*
X370871Y412981D02*
X372746D01*
X379466Y196635D02*
Y200385D01*
X381341*
X381966Y200073*
X382279Y199761*
X382591Y199135*
Y197885*
X382279Y197261*
X381966Y196948*
X381341Y196635*
X379466*
Y206635D02*
Y210385D01*
X381341*
X381966Y210073*
X382279Y209761*
X382591Y209135*
Y207885*
X382279Y207261*
X381966Y206948*
X381341Y206635*
X379466*
X415521Y108900D02*
X417083Y112650D01*
X418646Y108900*
X416146Y110462D02*
X418021D01*
X415521Y219135D02*
X417083Y222885D01*
X418646Y219135*
X416146Y220698D02*
X418021D01*
X415521Y329371D02*
X417083Y333121D01*
X418646Y329371*
X416146Y330934D02*
X418021D01*
D02*
D143*
X19694Y102962D03*
Y213198D03*
Y323434D03*
X28100Y276198D03*
X32300Y285598D03*
X38100Y250698D03*
Y260698D03*
Y270698D03*
Y280698D03*
Y290698D03*
Y300698D03*
X48100Y205698D03*
Y228198D03*
X48350Y59098D03*
Y63598D03*
X48600Y108198D03*
Y115651D03*
Y123198D03*
X53100Y49332D03*
Y56198D03*
Y103448D03*
X58100Y205698D03*
Y228198D03*
X61100Y88448D03*
X61860Y83033D03*
X63100Y49332D03*
X64970Y283434D03*
Y405481D03*
X69250Y102008D03*
X70488Y115698D03*
X73550Y102008D03*
X77150Y107158D03*
X78100Y120651D03*
X79300Y110745D03*
X83285Y79261D03*
X86670Y380698D03*
X86860Y83033D03*
X88600Y187598D03*
Y191098D03*
X90600Y385989D03*
Y395407D03*
X92150Y50698D03*
X92170Y370698D03*
X96670Y380698D03*
X97300Y45548D03*
Y55848D03*
X101250Y375198D03*
X102450Y50698D03*
X106670Y380698D03*
X107600Y108198D03*
Y123198D03*
Y174598D03*
Y178698D03*
X110600Y71210D03*
Y260186D03*
X116670Y380698D03*
X118100Y203198D03*
Y208198D03*
X120000Y145698D03*
Y150073D03*
Y154448D03*
X120600Y41210D03*
Y290186D03*
X122175Y217798D03*
X123100Y203198D03*
Y208198D03*
X124250Y194249D03*
X126670Y380698D03*
X129850Y159948D03*
X130600Y71210D03*
Y138498D03*
Y143198D03*
Y260186D03*
X134350Y178249D03*
X135600Y133198D03*
X135663Y230698D03*
X136670Y380698D03*
X138100Y170198D03*
X138175Y181948D03*
Y187598D03*
Y191548D03*
X140413Y237698D03*
X140600Y133198D03*
X143147Y248198D03*
X145163Y230698D03*
X146154Y143737D03*
X146328Y243737D03*
X146670Y380698D03*
X148100Y83033D03*
X148646Y146229D03*
X149872Y243737D03*
X151037Y230698D03*
X153053Y248198D03*
X155787Y237698D03*
X156100Y115698D03*
X156250Y133198D03*
X156670Y380698D03*
X160537Y230698D03*
X160600Y138348D03*
X165950Y88848D03*
X166350Y84448D03*
X166550Y135698D03*
X166670Y380698D03*
X170246Y89448D03*
X176670Y380698D03*
X179300Y83398D03*
X184439Y119505D03*
X186670Y380698D03*
X187324Y124359D03*
X192150Y135698D03*
X196670Y380698D03*
X196850Y128048D03*
X202450Y133198D03*
X203100Y311198D03*
Y321198D03*
Y331198D03*
Y341198D03*
X206670Y380698D03*
X209445Y158080D03*
Y197450D03*
Y236820D03*
X210600Y335698D03*
X212608Y16348D03*
Y410048D03*
X215350Y328198D03*
X216670Y380698D03*
X224355Y369648D03*
X226670Y380698D03*
X231505Y371848D03*
X232250Y386098D03*
Y395298D03*
X236170Y353448D03*
X236670Y380698D03*
X241170Y358198D03*
Y390698D03*
X242350Y194448D03*
X247350Y199198D03*
X251850D03*
X269010Y192194D03*
Y197194D03*
Y202194D03*
X273600Y185698D03*
Y189694D03*
X274160Y207448D03*
X287360Y174544D03*
X291100Y174190D03*
X294084Y176241D03*
X308260Y207448D03*
X308600Y185698D03*
Y189694D03*
X313410Y192194D03*
Y197194D03*
Y202194D03*
X360246Y283434D03*
Y405481D03*
X369466Y190698D03*
Y200698D03*
X405521Y102962D03*
Y213198D03*
Y323434D03*
X0Y0D02*
M02*
